<?xml version="1.0" encoding="UTF-8" standalone="no"?>
<svg
   xmlns:dc="http://purl.org/dc/elements/1.1/"
   xmlns:cc="http://creativecommons.org/ns#"
   xmlns:rdf="http://www.w3.org/1999/02/22-rdf-syntax-ns#"
   xmlns:svg="http://www.w3.org/2000/svg"
   xmlns="http://www.w3.org/2000/svg"
   xmlns:sodipodi="http://sodipodi.sourceforge.net/DTD/sodipodi-0.dtd"
   xmlns:inkscape="http://www.inkscape.org/namespaces/inkscape"
   version="1.1"
   width="45"
   height="380"
   viewBox="0 0 45 380"
   id="svg116"
   sodipodi:docname="3hp.svg"
   inkscape:version="0.92.3 (2405546, 2018-03-11)">
  <metadata
     id="metadata120">
    <rdf:RDF>
      <cc:Work
         rdf:about="">
        <dc:format>image/svg+xml</dc:format>
        <dc:type
           rdf:resource="http://purl.org/dc/dcmitype/StillImage" />
        <dc:title />
      </cc:Work>
    </rdf:RDF>
  </metadata>
  <sodipodi:namedview
     pagecolor="#ffffff"
     bordercolor="#666666"
     borderopacity="1"
     objecttolerance="10"
     gridtolerance="10"
     guidetolerance="10"
     inkscape:pageopacity="0"
     inkscape:pageshadow="2"
     inkscape:window-width="1721"
     inkscape:window-height="1740"
     id="namedview118"
     showgrid="false"
     inkscape:zoom="3.7263158"
     inkscape:cx="27.59887"
     inkscape:cy="190"
     inkscape:window-x="-11"
     inkscape:window-y="0"
     inkscape:window-maximized="1"
     inkscape:current-layer="svg116" />
  <style
     id="style94">
    text {
      fill: #333;
      font-family: 'Roboto', sans-serif;
      font-weight: bold;
    }
    text.title {
      font-family: 'Comfortaa', sans-serif;
      font-weight: normal;
    }
    text.brand {
      font-family: 'Audiowide', sans-serif;
      font-weight: bold;
    }
  </style>
  <defs
     id="defs96" />
  <path
     style="fill:#dddddd"
     d="M 0,-4 H 45 V 376 H 0 Z"
     id="rect98" />
  <polyline
     points="1,1 44,1 44,379 1,379 1,1"
     stroke="#e4e4e4"
     stroke-width="0.5"
     fill="none"
     id="polyline100" />
  <polyline
     points="0.5,0.5 44.5,0.5 44.5,379.5 0.5,379.5 0.5,0.5"
     stroke="#ebebeb"
     stroke-width="0.8"
     fill="none"
     id="polyline102" />
  <polyline
     points="0,0 45,0 45,380 0,380 0,0"
     stroke="#f2f2f2"
     stroke-width="1"
     fill="none"
     id="polyline104" />
  <text
     xml:space="preserve"
     style="font-style:normal;font-weight:normal;font-size:10.66666667px;line-height:1.25;font-family:sans-serif;letter-spacing:0px;word-spacing:0px;fill:#000000;fill-opacity:1;stroke:none;"
     x="6.9774013"
     y="201.80791"
     id="text40"><tspan
       sodipodi:role="line"
       x="6.9774013"
       y="238.30112"
       id="tspan42"
       style="font-size:10.66666667px;line-height:0;" /></text>
  <g
     aria-label="cable opcty"
     style="font-style:normal;font-weight:normal;font-size:10.66666698px;line-height:1.25;font-family:sans-serif;letter-spacing:0px;word-spacing:0px;fill:#000000;fill-opacity:1;stroke:none"
     id="text62"
     transform="translate(0,2)">
    <path
       d="m 13.067708,27.717337 q -0.489584,0.234375 -0.932292,0.364584 -0.4375,0.130208 -0.932292,0.130208 -0.630208,0 -1.15625,-0.182292 -0.5260414,-0.1875 -0.9010414,-0.5625 -0.3802084,-0.375 -0.5885417,-0.947916 -0.2083333,-0.572917 -0.2083333,-1.338542 0,-1.427084 0.78125,-2.239584 0.7864583,-0.8125 2.0729164,-0.8125 0.5,0 0.979167,0.140625 0.484375,0.140625 0.885417,0.34375 v 1.088542 h -0.05208 q -0.447916,-0.348958 -0.927083,-0.536458 -0.473958,-0.1875 -0.927083,-0.1875 -0.833334,0 -1.3177087,0.5625 -0.4791667,0.557292 -0.4791667,1.640625 0,1.052083 0.46875,1.619792 0.4739584,0.5625 1.3281254,0.5625 0.296875,0 0.604166,-0.07813 0.307292,-0.07813 0.552084,-0.203125 0.213541,-0.109375 0.401041,-0.229167 0.1875,-0.125 0.296875,-0.213542 h 0.05208 z"
       id="path233"
       inkscape:connector-curvature="0" />
    <path
       d="m 18.848958,28.081921 h -0.973959 v -0.619792 q -0.130208,0.08854 -0.354166,0.25 -0.21875,0.15625 -0.427084,0.25 -0.244791,0.119792 -0.5625,0.197917 -0.317708,0.08333 -0.744791,0.08333 -0.786459,0 -1.333334,-0.520833 -0.546875,-0.520834 -0.546875,-1.328125 0,-0.661459 0.28125,-1.067709 0.286459,-0.411458 0.8125,-0.645833 0.53125,-0.234375 1.276042,-0.317708 0.744792,-0.08333 1.598958,-0.125 v -0.151042 q 0,-0.333334 -0.119791,-0.552084 -0.114584,-0.21875 -0.333334,-0.34375 -0.208333,-0.119791 -0.5,-0.161458 -0.291666,-0.04167 -0.609375,-0.04167 -0.385416,0 -0.859375,0.104167 -0.473958,0.09896 -0.979166,0.291667 h -0.05208 v -0.994792 q 0.286459,-0.07813 0.828125,-0.171875 0.541667,-0.09375 1.067709,-0.09375 0.614583,0 1.067708,0.104167 0.458333,0.09896 0.791667,0.34375 0.328125,0.239583 0.5,0.619791 0.171875,0.380209 0.171875,0.942709 z m -0.973959,-1.432292 v -1.619792 q -0.447916,0.02604 -1.057291,0.07813 -0.604167,0.05208 -0.958334,0.151042 -0.421875,0.119792 -0.682291,0.375 -0.260417,0.25 -0.260417,0.692708 0,0.5 0.302083,0.755209 0.302084,0.25 0.921875,0.25 0.515625,0 0.942709,-0.197917 0.427083,-0.203125 0.791666,-0.484375 z"
       id="path235"
       inkscape:connector-curvature="0" />
    <path
       d="m 25.864583,25.128796 q 0,0.729166 -0.208333,1.3125 -0.203125,0.583333 -0.552084,0.979166 -0.369791,0.411459 -0.8125,0.619792 -0.442708,0.203125 -0.973958,0.203125 -0.494792,0 -0.864583,-0.119792 -0.369792,-0.114583 -0.729167,-0.3125 l -0.0625,0.270834 h -0.916667 v -8.104167 h 0.979167 v 2.895833 q 0.411458,-0.338542 0.875,-0.552083 0.463542,-0.21875 1.041667,-0.21875 1.03125,0 1.625,0.791666 0.598958,0.791667 0.598958,2.234376 z m -1.010417,0.02604 q 0,-1.041666 -0.34375,-1.578125 -0.34375,-0.541667 -1.109375,-0.541667 -0.427083,0 -0.864583,0.1875 -0.4375,0.182292 -0.8125,0.473959 v 3.333333 q 0.416667,0.1875 0.713542,0.260417 0.302083,0.07292 0.682291,0.07292 0.8125,0 1.270834,-0.53125 0.463541,-0.536459 0.463541,-1.677084 z"
       id="path237"
       inkscape:connector-curvature="0" />
    <path
       d="m 28.380208,28.081921 h -0.979167 v -8.104167 h 0.979167 z"
       id="path239"
       inkscape:connector-curvature="0" />
    <path
       d="m 35.197916,25.274629 h -4.286458 q 0,0.536458 0.161458,0.9375 0.161458,0.395833 0.442708,0.651042 0.270834,0.25 0.640625,0.375 0.375,0.125 0.822917,0.125 0.59375,0 1.192708,-0.234375 0.604167,-0.239584 0.859375,-0.46875 h 0.05208 v 1.067708 q -0.494792,0.208333 -1.010417,0.348958 -0.515625,0.140625 -1.083333,0.140625 -1.447917,0 -2.260417,-0.78125 -0.8125,-0.786458 -0.8125,-2.229166 0,-1.427084 0.776042,-2.265626 0.78125,-0.838541 2.052083,-0.838541 1.177083,0 1.8125,0.6875 0.640625,0.6875 0.640625,1.953125 z m -0.953125,-0.75 q -0.0052,-0.770834 -0.390625,-1.192709 -0.380208,-0.421875 -1.161458,-0.421875 -0.786459,0 -1.255209,0.463542 -0.463541,0.463542 -0.526041,1.151042 z"
       id="path241"
       inkscape:connector-curvature="0" />
    <path
       d="m 13.723958,38.509004 q 0,1.421875 -0.729167,2.244792 -0.729167,0.822917 -1.953125,0.822917 -1.2343751,0 -1.9635418,-0.822917 -0.7239583,-0.822917 -0.7239583,-2.244792 0,-1.421875 0.7239583,-2.244791 0.7291667,-0.828125 1.9635418,-0.828125 1.223958,0 1.953125,0.828125 0.729167,0.822916 0.729167,2.244791 z m -1.010417,0 q 0,-1.130208 -0.442708,-1.677083 -0.442709,-0.552083 -1.229167,-0.552083 -0.796875,0 -1.2395834,0.552083 -0.4375,0.546875 -0.4375,1.677083 0,1.09375 0.4427083,1.661459 0.4427081,0.5625 1.2343751,0.5625 0.78125,0 1.223958,-0.557292 0.447917,-0.5625 0.447917,-1.666667 z"
       id="path243"
       inkscape:connector-curvature="0" />
    <path
       d="m 20.364583,38.436088 q 0,0.708333 -0.203125,1.296875 -0.203125,0.583333 -0.572917,0.989583 -0.34375,0.385417 -0.8125,0.598958 -0.463541,0.208334 -0.984375,0.208334 -0.453125,0 -0.822916,-0.09896 -0.364584,-0.09896 -0.744792,-0.307291 v 2.4375 h -0.979167 v -7.963542 h 0.979167 v 0.609375 q 0.390625,-0.328125 0.875,-0.546875 0.489583,-0.223958 1.041667,-0.223958 1.052083,0 1.635416,0.796875 0.588542,0.791666 0.588542,2.203126 z m -1.010417,0.02604 q 0,-1.052083 -0.359375,-1.572916 -0.359375,-0.520834 -1.104166,-0.520834 -0.421875,0 -0.848959,0.182292 -0.427083,0.182292 -0.817708,0.479167 v 3.296875 q 0.416667,0.1875 0.713542,0.255208 0.302083,0.06771 0.682291,0.06771 0.817709,0 1.276042,-0.552083 0.458333,-0.552083 0.458333,-1.635417 z"
       id="path245"
       inkscape:connector-curvature="0" />
    <path
       d="m 26.192708,41.050671 q -0.489584,0.234375 -0.932292,0.364583 -0.4375,0.130209 -0.932292,0.130209 -0.630208,0 -1.15625,-0.182292 -0.526041,-0.1875 -0.901041,-0.5625 -0.380209,-0.375 -0.588542,-0.947917 -0.208333,-0.572916 -0.208333,-1.338541 0,-1.427084 0.78125,-2.239584 0.786458,-0.8125 2.072916,-0.8125 0.5,0 0.979167,0.140625 0.484375,0.140625 0.885417,0.34375 v 1.088542 h -0.05208 q -0.447916,-0.348958 -0.927083,-0.536458 -0.473958,-0.1875 -0.927083,-0.1875 -0.833334,0 -1.317709,0.5625 -0.479166,0.557291 -0.479166,1.640625 0,1.052083 0.46875,1.619791 0.473958,0.5625 1.328125,0.5625 0.296875,0 0.604166,-0.07813 0.307292,-0.07813 0.552084,-0.203125 0.213541,-0.109375 0.401041,-0.229166 0.1875,-0.125 0.296875,-0.213542 h 0.05208 z"
       id="path247"
       inkscape:connector-curvature="0" />
    <path
       d="m 30.473958,41.363171 q -0.276042,0.07292 -0.604167,0.119792 -0.322917,0.04687 -0.578125,0.04687 -0.890625,0 -1.354167,-0.479167 -0.463541,-0.479167 -0.463541,-1.536458 v -3.09375 h -0.661459 v -0.822917 h 0.661459 v -1.671875 h 0.979166 v 1.671875 h 2.020834 v 0.822917 h -2.020834 v 2.651041 q 0,0.458334 0.02083,0.71875 0.02083,0.255209 0.145833,0.479167 0.114583,0.208333 0.3125,0.307292 0.203125,0.09375 0.614583,0.09375 0.239584,0 0.5,-0.06771 0.260417,-0.07292 0.375,-0.119791 h 0.05208 z"
       id="path249"
       inkscape:connector-curvature="0" />
    <path
       d="m 36.651042,35.597546 -3.395833,7.963542 h -1.046875 l 1.083333,-2.427084 -2.317708,-5.536458 h 1.0625 l 1.786458,4.3125 1.802084,-4.3125 z"
       id="path251"
       inkscape:connector-curvature="0" />
  </g>
  <g
     aria-label="cable tensn"
     style="font-style:normal;font-weight:normal;font-size:10.66666698px;line-height:1.25;font-family:sans-serif;letter-spacing:0px;word-spacing:0px;fill:#000000;fill-opacity:1;stroke:none"
     id="text70">
    <path
       d="m 13.252604,95.095866 q -0.489583,0.234375 -0.932292,0.364583 -0.4375,0.130209 -0.932291,0.130209 -0.630209,0 -1.15625,-0.182292 -0.5260419,-0.1875 -0.901042,-0.5625 -0.3802083,-0.375 -0.5885416,-0.947917 -0.2083334,-0.572917 -0.2083334,-1.338542 0,-1.427083 0.78125,-2.239583 0.786458,-0.8125 2.072917,-0.8125 0.5,0 0.979166,0.140625 0.484375,0.140625 0.885417,0.34375 v 1.088542 h -0.05208 q -0.447917,-0.348959 -0.927084,-0.536459 -0.473958,-0.1875 -0.927083,-0.1875 -0.833333,0 -1.317708,0.5625 -0.4791669,0.557292 -0.4791669,1.640625 0,1.052084 0.4687499,1.619792 0.473958,0.5625 1.328125,0.5625 0.296875,0 0.604167,-0.07813 0.307291,-0.07813 0.552083,-0.203125 0.213542,-0.109375 0.401042,-0.229166 0.1875,-0.125 0.296875,-0.213542 h 0.05208 z"
       id="path212"
       inkscape:connector-curvature="0" />
    <path
       d="m 19.033854,95.460449 h -0.973958 v -0.619791 q -0.130209,0.08854 -0.354167,0.25 -0.21875,0.15625 -0.427083,0.25 -0.244792,0.119791 -0.5625,0.197916 -0.317709,0.08333 -0.744792,0.08333 -0.786458,0 -1.333333,-0.520834 -0.546875,-0.520833 -0.546875,-1.328125 0,-0.661458 0.28125,-1.067708 0.286458,-0.411459 0.8125,-0.645834 0.53125,-0.234375 1.276041,-0.317708 0.744792,-0.08333 1.598959,-0.125 v -0.151042 q 0,-0.333333 -0.119792,-0.552083 -0.114583,-0.21875 -0.333333,-0.34375 -0.208334,-0.119792 -0.5,-0.161458 -0.291667,-0.04167 -0.609375,-0.04167 -0.385417,0 -0.859375,0.104167 -0.473959,0.09896 -0.979167,0.291666 h -0.05208 v -0.994791 q 0.286458,-0.07813 0.828125,-0.171875 0.541666,-0.09375 1.067708,-0.09375 0.614583,0 1.067708,0.104166 0.458334,0.09896 0.791667,0.34375 0.328125,0.239584 0.5,0.619792 0.171875,0.380208 0.171875,0.942708 z m -0.973958,-1.432291 v -1.619792 q -0.447917,0.02604 -1.057292,0.07813 -0.604167,0.05208 -0.958333,0.151041 -0.421875,0.119792 -0.682292,0.375 -0.260417,0.25 -0.260417,0.692709 0,0.5 0.302084,0.755208 0.302083,0.25 0.921875,0.25 0.515625,0 0.942708,-0.197916 0.427083,-0.203125 0.791667,-0.484375 z"
       id="path214"
       inkscape:connector-curvature="0" />
    <path
       d="m 26.04948,92.507324 q 0,0.729167 -0.208334,1.3125 -0.203125,0.583334 -0.552083,0.979167 -0.369792,0.411458 -0.8125,0.619792 -0.442709,0.203125 -0.973959,0.203125 -0.494791,0 -0.864583,-0.119792 -0.369792,-0.114583 -0.729167,-0.3125 l -0.0625,0.270833 h -0.916666 v -8.104167 h 0.979166 v 2.895834 q 0.411459,-0.338542 0.875,-0.552084 0.463542,-0.21875 1.041667,-0.21875 1.03125,0 1.625,0.791667 0.598959,0.791667 0.598959,2.234375 z m -1.010417,0.02604 q 0,-1.041667 -0.34375,-1.578125 -0.34375,-0.541667 -1.109375,-0.541667 -0.427084,0 -0.864584,0.1875 -0.4375,0.182292 -0.8125,0.473958 v 3.333334 q 0.416667,0.1875 0.713542,0.260417 0.302083,0.07292 0.682292,0.07292 0.8125,0 1.270833,-0.53125 0.463542,-0.536458 0.463542,-1.677083 z"
       id="path216"
       inkscape:connector-curvature="0" />
    <path
       d="m 28.565104,95.460449 h -0.979167 v -8.104167 h 0.979167 z"
       id="path218"
       inkscape:connector-curvature="0" />
    <path
       d="m 35.382813,92.653157 h -4.286459 q 0,0.536459 0.161458,0.9375 0.161459,0.395834 0.442709,0.651042 0.270833,0.25 0.640625,0.375 0.375,0.125 0.822916,0.125 0.59375,0 1.192709,-0.234375 0.604167,-0.239583 0.859375,-0.46875 h 0.05208 v 1.067709 q -0.494792,0.208333 -1.010417,0.348958 -0.515625,0.140625 -1.083333,0.140625 -1.447917,0 -2.260417,-0.78125 -0.8125,-0.786458 -0.8125,-2.229167 0,-1.427083 0.776042,-2.265625 0.78125,-0.838542 2.052083,-0.838542 1.177084,0 1.8125,0.6875 0.640626,0.6875 0.640626,1.953125 z m -0.953126,-0.75 q -0.0052,-0.770833 -0.390625,-1.192708 -0.380208,-0.421875 -1.161458,-0.421875 -0.786458,0 -1.255208,0.463542 -0.463542,0.463541 -0.526042,1.151041 z"
       id="path220"
       inkscape:connector-curvature="0" />
    <path
       d="m 11.971354,108.7417 q -0.276042,0.0729 -0.604167,0.11979 -0.322916,0.0469 -0.578125,0.0469 -0.8906246,0 -1.3541663,-0.47917 -0.4635417,-0.47917 -0.4635417,-1.53646 v -3.09375 H 8.3098957 v -0.82292 H 8.971354 v -1.67187 h 0.9791667 v 1.67187 h 2.0208333 v 0.82292 H 9.9505207 v 2.65104 q 0,0.45834 0.020833,0.71875 0.020833,0.25521 0.1458333,0.47917 0.114584,0.20833 0.3125,0.30729 0.203125,0.0937 0.614584,0.0937 0.239583,0 0.5,-0.0677 0.260416,-0.0729 0.375,-0.11979 h 0.05208 z"
       id="path222"
       inkscape:connector-curvature="0" />
    <path
       d="m 18.028646,105.98649 h -4.286458 q 0,0.53646 0.161458,0.9375 0.161458,0.39583 0.442708,0.65104 0.270834,0.25 0.640625,0.375 0.375,0.125 0.822917,0.125 0.59375,0 1.192708,-0.23437 0.604167,-0.23959 0.859375,-0.46875 h 0.05208 v 1.06771 q -0.494792,0.20833 -1.010417,0.34895 -0.515625,0.14063 -1.083333,0.14063 -1.447917,0 -2.260417,-0.78125 -0.8125,-0.78646 -0.8125,-2.22917 0,-1.42708 0.776042,-2.26562 0.78125,-0.83854 2.052083,-0.83854 1.177083,0 1.8125,0.6875 0.640625,0.6875 0.640625,1.95312 z m -0.953125,-0.75 q -0.0052,-0.77083 -0.390625,-1.19271 -0.380208,-0.42187 -1.161458,-0.42187 -0.786459,0 -1.255209,0.46354 -0.463541,0.46354 -0.526041,1.15104 z"
       id="path224"
       inkscape:connector-curvature="0" />
    <path
       d="m 24.377604,108.79378 h -0.979167 v -3.3125 q 0,-0.40104 -0.04687,-0.75 -0.04687,-0.35416 -0.171875,-0.55208 -0.130208,-0.21875 -0.375,-0.32292 -0.244791,-0.10937 -0.635416,-0.10937 -0.401042,0 -0.838542,0.19791 -0.4375,0.19792 -0.838542,0.50521 v 4.34375 h -0.979166 v -5.81771 h 0.979166 v 0.64584 q 0.458334,-0.38021 0.947917,-0.59375 0.489583,-0.21354 1.005208,-0.21354 0.942709,0 1.4375,0.5677 0.494792,0.56771 0.494792,1.63542 z"
       id="path226"
       inkscape:connector-curvature="0" />
    <path
       d="m 30.419271,107.1167 q 0,0.79687 -0.661459,1.30729 -0.65625,0.51042 -1.796875,0.51042 -0.645833,0 -1.1875,-0.15104 -0.536458,-0.15625 -0.901041,-0.33855 v -1.09895 h 0.05208 q 0.463542,0.34895 1.03125,0.55729 0.567708,0.20312 1.088542,0.20312 0.645833,0 1.010416,-0.20833 0.364584,-0.20833 0.364584,-0.65625 0,-0.34375 -0.197917,-0.52083 -0.197917,-0.17709 -0.760417,-0.30209 -0.208333,-0.0469 -0.546875,-0.10937 -0.333333,-0.0625 -0.609375,-0.13542 -0.765625,-0.20312 -1.088541,-0.59375 -0.317709,-0.39583 -0.317709,-0.96875 0,-0.35937 0.145834,-0.67708 0.151041,-0.31771 0.453125,-0.56771 0.291666,-0.24479 0.739583,-0.38542 0.453125,-0.14583 1.010417,-0.14583 0.520833,0 1.052083,0.13021 0.536458,0.125 0.890625,0.30729 v 1.04687 h -0.05208 q -0.375,-0.27604 -0.911459,-0.46354 -0.536458,-0.19271 -1.052083,-0.19271 -0.536458,0 -0.90625,0.20834 -0.369792,0.20312 -0.369792,0.60937 0,0.35938 0.223959,0.54167 0.21875,0.18229 0.708333,0.29687 0.270833,0.0625 0.604167,0.125 0.338541,0.0625 0.5625,0.11459 0.682291,0.15625 1.052083,0.53646 0.369792,0.38541 0.369792,1.02083 z"
       id="path228"
       inkscape:connector-curvature="0" />
    <path
       d="m 36.690104,108.79378 h -0.979167 v -3.3125 q 0,-0.40104 -0.04687,-0.75 -0.04687,-0.35416 -0.171875,-0.55208 -0.130208,-0.21875 -0.375,-0.32292 -0.244791,-0.10937 -0.635416,-0.10937 -0.401042,0 -0.838542,0.19791 -0.4375,0.19792 -0.838542,0.50521 v 4.34375 h -0.979166 v -5.81771 h 0.979166 v 0.64584 q 0.458334,-0.38021 0.947917,-0.59375 0.489583,-0.21354 1.005208,-0.21354 0.942709,0 1.4375,0.5677 0.494792,0.56771 0.494792,1.63542 z"
       id="path230"
       inkscape:connector-curvature="0" />
  </g>
  <g
     aria-label="input*"
     style="font-style:normal;font-variant:normal;font-weight:normal;font-stretch:normal;font-size:10.66666698px;line-height:1.25;font-family:sans-serif;-inkscape-font-specification:'sans-serif, Normal';font-variant-ligatures:normal;font-variant-caps:normal;font-variant-numeric:normal;font-feature-settings:normal;text-align:start;letter-spacing:0px;word-spacing:0px;writing-mode:lr-tb;text-anchor:start;fill:#000000;fill-opacity:1;stroke:none"
     id="text74"
     transform="translate(0,38)">
    <g
       aria-label="0-10V"
       style="font-style:normal;font-weight:normal;font-size:7.12083149px;line-height:1.25;font-family:sans-serif;letter-spacing:0px;word-spacing:0px;fill:#000000;fill-opacity:1;stroke:none;stroke-width:0.66757792"
       id="text124">
      <path
         d="m 15.509554,226.91247 q 0,1.39426 -0.438098,2.04793 -0.434621,0.65019 -1.352541,0.65019 -0.931827,0 -1.362971,-0.66062 -0.427667,-0.66062 -0.427667,-2.03055 0,-1.38036 0.434621,-2.0375 0.434621,-0.66063 1.356017,-0.66063 0.931828,0 1.359495,0.67106 0.431144,0.66758 0.431144,2.02012 z m -0.914443,1.57854 q 0.121694,-0.28163 0.163418,-0.66062 0.0452,-0.38247 0.0452,-0.91792 0,-0.5285 -0.0452,-0.91792 -0.04172,-0.38942 -0.166894,-0.66063 -0.121694,-0.26772 -0.333789,-0.40333 -0.208619,-0.1356 -0.538931,-0.1356 -0.326835,0 -0.542407,0.1356 -0.212095,0.13561 -0.337266,0.41029 -0.118217,0.25729 -0.163417,0.67105 -0.04172,0.41376 -0.04172,0.90749 0,0.54241 0.03825,0.90749 0.03825,0.36508 0.163417,0.65367 0.11474,0.2712 0.323358,0.41376 0.212096,0.14255 0.559792,0.14255 0.326835,0 0.542408,-0.1356 0.215572,-0.1356 0.333788,-0.41028 z"
         style="stroke-width:0.66757792"
         id="path126" />
      <path
         d="m 18.687503,227.55223 h -2.169628 v -0.62933 h 2.169628 z"
         style="stroke-width:0.66757792"
         id="path128" />
      <path
         d="m 22.995468,229.50281 h -2.802437 v -0.5285 h 1.07786 v -3.47002 h -1.07786 v -0.47286 q 0.219049,0 0.469391,-0.0348 0.250341,-0.0383 0.378989,-0.10779 0.159941,-0.0869 0.250342,-0.21905 0.09388,-0.1356 0.107786,-0.3616 h 0.53893 v 4.66609 h 1.056999 z"
         style="stroke-width:0.66757792"
         id="path130" />
      <path
         d="m 27.818023,226.91247 q 0,1.39426 -0.438098,2.04793 -0.434621,0.65019 -1.352541,0.65019 -0.931827,0 -1.362971,-0.66062 -0.427668,-0.66062 -0.427668,-2.03055 0,-1.38036 0.434622,-2.0375 0.434621,-0.66063 1.356017,-0.66063 0.931828,0 1.359495,0.67106 0.431144,0.66758 0.431144,2.02012 z m -0.914443,1.57854 q 0.121694,-0.28163 0.163418,-0.66062 0.0452,-0.38247 0.0452,-0.91792 0,-0.5285 -0.0452,-0.91792 -0.04172,-0.38942 -0.166895,-0.66063 -0.121694,-0.26772 -0.333789,-0.40333 -0.208618,-0.1356 -0.53893,-0.1356 -0.326835,0 -0.542407,0.1356 -0.212095,0.13561 -0.337266,0.41029 -0.118217,0.25729 -0.163417,0.67105 -0.04172,0.41376 -0.04172,0.90749 0,0.54241 0.03825,0.90749 0.03825,0.36508 0.163417,0.65367 0.11474,0.2712 0.323358,0.41376 0.212095,0.14255 0.559792,0.14255 0.326835,0 0.542407,-0.1356 0.215572,-0.1356 0.333789,-0.41028 z"
         style="stroke-width:0.66757792"
         id="path132" />
      <path
         d="m 33.071723,224.3256 -1.884517,5.17721 h -0.91792 l -1.884517,-5.17721 h 0.737117 l 1.623745,4.55483 1.623744,-4.55483 z"
         style="stroke-width:0.66757792"
         id="path134" />
    </g>
  </g>
  <g
     aria-label="zoom"
     style="font-style:normal;font-weight:normal;font-size:10.66666698px;line-height:1.25;font-family:sans-serif;letter-spacing:0px;word-spacing:0px;fill:#000000;fill-opacity:1;stroke:none"
     id="text82"
     transform="translate(0,20)">
    <path
       d="M 13.463542,152.20056 H 8.765625 v -0.72396 l 3.390625,-4.27604 H 8.8385417 v -0.81771 H 13.375 v 0.69792 l -3.4062499,4.29167 h 3.4947919 z"
       id="path203"
       inkscape:connector-curvature="0" />
    <path
       d="m 19.744792,149.29431 q 0,1.42188 -0.729167,2.24479 -0.729166,0.82292 -1.953125,0.82292 -1.234375,0 -1.963541,-0.82292 -0.723959,-0.82291 -0.723959,-2.24479 0,-1.42187 0.723959,-2.24479 0.729166,-0.82813 1.963541,-0.82813 1.223959,0 1.953125,0.82813 0.729167,0.82292 0.729167,2.24479 z m -1.010417,0 q 0,-1.13021 -0.442708,-1.67708 -0.442708,-0.55209 -1.229167,-0.55209 -0.796875,0 -1.239583,0.55209 -0.4375,0.54687 -0.4375,1.67708 0,1.09375 0.442708,1.66146 0.442709,0.5625 1.234375,0.5625 0.78125,0 1.223959,-0.55729 0.447916,-0.5625 0.447916,-1.66667 z"
       id="path205"
       inkscape:connector-curvature="0" />
    <path
       d="m 26.223959,149.29431 q 0,1.42188 -0.729167,2.24479 -0.729166,0.82292 -1.953125,0.82292 -1.234375,0 -1.963541,-0.82292 -0.723959,-0.82291 -0.723959,-2.24479 0,-1.42187 0.723959,-2.24479 0.729166,-0.82813 1.963541,-0.82813 1.223959,0 1.953125,0.82813 0.729167,0.82292 0.729167,2.24479 z m -1.010417,0 q 0,-1.13021 -0.442708,-1.67708 -0.442708,-0.55209 -1.229167,-0.55209 -0.796875,0 -1.239583,0.55209 -0.4375,0.54687 -0.4375,1.67708 0,1.09375 0.442708,1.66146 0.442709,0.5625 1.234375,0.5625 0.78125,0 1.223959,-0.55729 0.447916,-0.5625 0.447916,-1.66667 z"
       id="path207"
       inkscape:connector-curvature="0" />
    <path
       d="m 36.234375,152.20056 h -0.979166 v -3.3125 q 0,-0.375 -0.03646,-0.72396 -0.03125,-0.34896 -0.140625,-0.55729 -0.119791,-0.22396 -0.34375,-0.33854 -0.223958,-0.11458 -0.645833,-0.11458 -0.411458,0 -0.822917,0.20833 -0.411458,0.20312 -0.822916,0.52083 0.01563,0.11979 0.02604,0.28125 0.01042,0.15625 0.01042,0.3125 v 3.72396 H 31.5 v -3.3125 q 0,-0.38542 -0.03646,-0.72917 -0.03125,-0.34895 -0.140625,-0.55729 -0.119792,-0.22396 -0.34375,-0.33333 -0.223959,-0.11458 -0.645834,-0.11458 -0.401041,0 -0.807291,0.19791 -0.401042,0.19792 -0.802084,0.50521 v 4.34375 H 27.74479 v -5.81771 h 0.979166 v 0.64584 q 0.458334,-0.38021 0.911459,-0.59375 0.458333,-0.21355 0.973958,-0.21355 0.59375,0 1.005208,0.25 0.416667,0.25 0.619792,0.69271 0.59375,-0.5 1.083334,-0.71875 0.489583,-0.22396 1.046875,-0.22396 0.958333,0 1.411458,0.58334 0.458333,0.57812 0.458333,1.61979 z"
       id="path209"
       inkscape:connector-curvature="0" />
  </g>
  <g
     aria-label="gl0bz DLw*z"
     transform="rotate(-90)"
     style="font-style:normal;font-weight:normal;font-size:10.66666698px;line-height:1.25;font-family:sans-serif;letter-spacing:0px;word-spacing:0px;fill:#000000;fill-opacity:1;stroke:none"
     id="text256">
    <path
       d="m -365.65407,11.979653 q 0,1.479167 -0.67188,2.171875 -0.67187,0.692708 -2.06771,0.692708 -0.46354,0 -0.90625,-0.06771 -0.4375,-0.0625 -0.86458,-0.182292 v -1 h 0.0521 q 0.23959,0.09375 0.76042,0.229167 0.52083,0.140625 1.04167,0.140625 0.5,0 0.82812,-0.119792 0.32813,-0.119791 0.51042,-0.333333 0.18229,-0.203125 0.26042,-0.489583 0.0781,-0.286459 0.0781,-0.640625 v -0.53125 q -0.44271,0.354166 -0.84896,0.53125 -0.40104,0.171875 -1.02604,0.171875 -1.04167,0 -1.65625,-0.75 -0.60937,-0.755209 -0.60937,-2.1250004 0,-0.75 0.20833,-1.2916667 0.21354,-0.546875 0.57812,-0.9427083 0.33855,-0.3697917 0.82292,-0.5729167 0.48438,-0.2083334 0.96354,-0.2083334 0.50521,0 0.84375,0.1041667 0.34375,0.098958 0.72396,0.3072917 l 0.0625,-0.25 h 0.91667 z m -0.97917,-0.9375 V 7.8702779 q -0.39062,-0.1770833 -0.72917,-0.25 -0.33333,-0.078125 -0.66666,-0.078125 -0.80729,0 -1.27084,0.5416667 -0.46354,0.5416667 -0.46354,1.5729167 0,0.9791667 0.34375,1.4843747 0.34375,0.505209 1.14063,0.505209 0.42708,0 0.85416,-0.161459 0.4323,-0.166666 0.79167,-0.442708 z"
       id="path281"
       inkscape:connector-curvature="0" />
    <path
       d="m -362.73741,12.641111 h -0.97916 V 4.5369445 h 0.97916 z"
       id="path283"
       inkscape:connector-curvature="0" />
    <path
       d="m -355.67491,8.7609029 q 0,2.0885421 -0.65625,3.0677081 -0.65104,0.973959 -2.02604,0.973959 -1.39583,0 -2.04166,-0.989584 -0.64063,-0.989583 -0.64063,-3.0416664 0,-2.0677084 0.65104,-3.0520834 0.65104,-0.9895834 2.03125,-0.9895834 1.39584,0 2.03646,1.0052084 0.64583,1 0.64583,3.0260417 z m -1.36979,2.3645831 q 0.18229,-0.421875 0.24479,-0.989583 0.0677,-0.5729167 0.0677,-1.3750001 0,-0.7916667 -0.0677,-1.375 -0.0625,-0.5833334 -0.25,-0.9895834 -0.18229,-0.4010417 -0.5,-0.6041667 -0.3125,-0.203125 -0.80729,-0.203125 -0.48958,0 -0.8125,0.203125 -0.31771,0.203125 -0.50521,0.6145834 -0.17708,0.3854167 -0.24479,1.0052084 -0.0625,0.6197916 -0.0625,1.359375 0,0.8125 0.0573,1.3593754 0.0573,0.546875 0.2448,0.979166 0.17187,0.40625 0.48437,0.619792 0.31771,0.213542 0.83854,0.213542 0.48959,0 0.8125,-0.203125 0.32292,-0.203125 0.5,-0.614584 z"
       id="path285"
       inkscape:connector-curvature="0" />
    <path
       d="m -348.87803,9.6879863 q 0,0.7291667 -0.20833,1.3124997 -0.20313,0.583334 -0.55209,0.979167 -0.36979,0.411458 -0.8125,0.619792 -0.44271,0.203125 -0.97396,0.203125 -0.49479,0 -0.86458,-0.119792 -0.36979,-0.114583 -0.72917,-0.3125 l -0.0625,0.270833 h -0.91666 V 4.5369445 h 0.97916 v 2.8958334 q 0.41146,-0.3385417 0.875,-0.5520834 0.46355,-0.21875 1.04167,-0.21875 1.03125,0 1.625,0.7916667 0.59896,0.7916667 0.59896,2.2343751 z m -1.01042,0.026042 q 0,-1.0416667 -0.34375,-1.5781251 -0.34375,-0.5416667 -1.10937,-0.5416667 -0.42709,0 -0.86459,0.1875 -0.4375,0.1822917 -0.8125,0.4739584 v 3.3333331 q 0.41667,0.1875 0.71355,0.260417 0.30208,0.07292 0.68229,0.07292 0.8125,0 1.27083,-0.53125 0.46354,-0.536458 0.46354,-1.6770827 z"
       id="path287"
       inkscape:connector-curvature="0" />
    <path
       d="m -343.13324,12.641111 h -4.69792 v -0.723958 l 3.39063,-4.2760418 h -3.31771 V 6.8234029 h 4.53646 v 0.6979167 l -3.40625,4.2916664 h 3.49479 z"
       id="path289"
       inkscape:connector-curvature="0" />
    <path
       d="m -363.01866,22.104653 q 0,1.083334 -0.49479,1.942709 -0.49479,0.854166 -1.25,1.3125 -0.56771,0.34375 -1.24479,0.479166 -0.67708,0.135417 -1.60417,0.135417 h -2.73437 v -7.755208 h 2.8125 q 0.94792,0 1.63542,0.161458 0.6875,0.15625 1.15625,0.447917 0.80208,0.489583 1.26041,1.322916 0.46354,0.828125 0.46354,1.953125 z m -2.0677,-0.01563 q 0,-0.765625 -0.28125,-1.307291 -0.27605,-0.546875 -0.88021,-0.854167 -0.30729,-0.151042 -0.63021,-0.203125 -0.31771,-0.05729 -0.96354,-0.05729 h -0.50521 v 4.854167 h 0.50521 q 0.71354,0 1.04687,-0.0625 0.33334,-0.06771 0.65104,-0.239583 0.54688,-0.3125 0.80209,-0.833334 0.25521,-0.526041 0.25521,-1.296875 z"
       style="font-weight:bold"
       id="path291"
       inkscape:connector-curvature="0" />
    <path
       d="m -355.89886,25.974445 h -5.59375 v -7.755208 h 2 v 6.255208 h 3.59375 z"
       style="font-weight:bold"
       id="path293"
       inkscape:connector-curvature="0" />
    <path
       d="m -345.47699,20.125487 -1.8125,5.848958 h -1.98958 l -1.19271,-3.942708 -1.17188,3.942708 h -2.01562 l -1.79688,-5.848958 h 1.96875 l 1,4.03125 1.25,-4.03125 h 1.66146 l 1.1875,4.03125 0.98438,-4.03125 z"
       style="font-weight:bold"
       id="path295"
       inkscape:connector-curvature="0" />
    <path
       d="m -338.71136,21.620278 -0.57813,0.859375 -1.66667,-1.135416 0.0573,1.848958 h -1.10938 l 0.0417,-1.802083 -1.63542,1.09375 -0.56771,-0.864584 1.84896,-1.088541 -1.84375,-1.098959 0.5625,-0.869791 1.63021,1.109375 -0.0365,-1.802084 h 1.10417 l -0.0417,1.807292 1.65104,-1.098958 0.57813,0.864583 -1.86459,1.083333 z"
       style="font-weight:bold"
       id="path297"
       inkscape:connector-curvature="0" />
    <path
       d="m -331.71657,25.974445 h -5.49479 V 24.77132 l 3.08333,-3.276042 h -2.95833 v -1.369791 h 5.3125 v 1.182291 l -3.03646,3.270834 h 3.09375 z"
       style="font-weight:bold"
       id="path299"
       inkscape:connector-curvature="0" />
  </g>
</svg>
