<?xml version="1.0" encoding="UTF-8" standalone="no"?>
<!DOCTYPE svg PUBLIC "-//W3C//DTD SVG 1.1//EN" "http://www.w3.org/Graphics/SVG/1.1/DTD/svg11.dtd">
<svg width="94px" height="396px" version="1.1" xmlns="http://www.w3.org/2000/svg" xmlns:xlink="http://www.w3.org/1999/xlink" xml:space="preserve" xmlns:serif="http://www.serif.com/" style="fill-rule:evenodd;clip-rule:evenodd;stroke-linejoin:round;stroke-miterlimit:1.41421;">
    <g transform="matrix(1.04167,0,0,1.04167,0,0)">
        <g id="Layer-0" serif:id="Layer 0" transform="matrix(1,0,0,1,0,3.05176e-05)">
            <rect id="background" x="0" y="0" width="90" height="380" style="fill:white;"/>
            <g id="guy" transform="matrix(0.0723112,0,0,0.0603557,18.6064,290.921)">
                <path d="M365.013,467.444C371.602,467.444 372.294,466.986 384.295,482.467C391.32,491.525 406.514,510.849 414.572,522.459L535.268,522.014C550.307,521.335 551.967,519.605 558.191,515.137C569.567,506.972 580.182,493.164 605.094,454.104C612.618,442.304 622.226,427.414 626.442,421.023C632.845,410.733 630.505,409.069 647.413,405.697C635.169,436.059 619.511,471.833 609.028,487.733C588.404,519.014 555.548,552.549 490.451,573.467C541.09,564.69 557.127,549.275 590.861,521.739C567.941,569.059 535.981,611.833 506.428,655.027C572.854,584.363 636.545,506.037 670.573,414.077C676.468,396.054 683.162,371.344 682.375,370.561C669.863,384.574 654.65,400.127 622.369,400.873C573.529,402 535.918,387.093 500.646,360.435C496.933,363.144 492.415,365.509 492.333,371.041C492.257,376.232 497.953,381.956 509.096,388.249C527.396,398.583 574.36,410.793 595.789,410.793C598.501,410.793 600.715,411.049 600.715,411.374C600.715,411.702 588.123,427.711 572.731,446.92C549.103,476.401 544.112,482.047 540.708,483.218C532.811,485.94 488.683,484.143 464.964,480.14C453.591,478.22 448.508,476.111 442.42,470.765C431.388,459.506 422.999,445.604 411.733,434.878C399.242,439.592 385.972,444.492 365,444.732C348.635,444.915 333.359,440.505 318.268,434.878C307.003,445.604 298.612,459.506 287.58,470.765C281.492,476.111 276.41,478.22 265.035,480.14C241.316,484.143 197.19,485.94 189.292,483.218C185.888,482.047 180.896,476.401 157.27,446.92C141.876,427.711 129.286,411.702 129.286,411.374C129.286,411.049 131.499,410.793 134.212,410.793C155.639,410.793 202.605,398.583 220.903,388.249C232.047,381.956 237.742,376.232 237.667,371.041C237.586,365.509 233.069,363.144 229.353,360.435C194.082,387.093 156.471,402 107.63,400.873C75.35,400.127 60.138,384.574 47.624,370.561C46.84,371.344 53.531,396.054 59.427,414.077C93.454,506.037 157.148,584.363 223.571,655.027C194.019,611.833 162.061,569.059 139.139,521.739C172.873,549.275 188.911,564.69 239.548,573.467C174.451,552.549 141.597,519.014 120.973,487.733C110.488,471.833 94.833,436.059 82.587,405.697C99.496,409.069 97.155,410.733 103.559,421.023C107.774,427.414 117.38,442.304 124.907,454.104C149.818,493.164 160.434,506.972 171.81,515.137C178.034,519.605 179.693,521.335 194.732,522.014L315.428,522.459C323.486,510.849 338.679,491.525 345.705,482.467C357.706,466.986 358.423,467.444 365.013,467.444ZM163.463,6.521C121.321,6.942 83.129,30.726 63.874,94.307C98.041,76.218 142.12,76.595 179.952,89.586C230.397,106.908 273.55,146.643 310.844,198.411C306.695,168.367 294.206,137.181 286.246,121.06C293.602,122.256 303.976,125.842 308.552,120.205C313.494,114.117 309.609,107.932 304.72,102.826C265.248,61.593 212.019,34.739 154.465,32.453C191.648,30.733 238.509,36.901 280.191,53.562C246.109,26.348 203.051,6.127 163.463,6.521L163.463,6.521ZM566.539,6.521C526.951,6.127 483.89,26.348 449.809,53.562C491.49,36.901 538.352,30.733 575.534,32.453C517.981,34.739 464.753,61.593 425.279,102.826C420.391,107.932 416.507,114.117 421.449,120.205C426.024,125.842 436.399,122.256 443.753,121.06C435.793,137.181 423.305,168.367 419.156,198.411C456.452,146.643 499.604,106.908 550.048,89.586C587.88,76.595 631.958,76.218 666.127,94.307C646.87,30.726 608.681,6.942 566.539,6.521L566.539,6.521ZM187.821,158.829C168.965,159.015 153.156,161.814 141.225,167.006C117.663,177.259 103.203,216.598 82.075,218.664C63.094,220.52 52.173,194.207 44.134,180.211C49.155,196.084 57.589,212.408 68.253,223.898C57.358,230.831 45.699,237.831 37.737,248.052C51.876,238.397 66.018,228.869 79.372,230.399C63.626,239.047 41.362,251.074 30.587,270.631C49.326,252.203 71.971,235.454 99.248,236.933C107.128,237.36 109.493,238.012 119.023,242.544C143.104,256.344 169.451,256.686 196.1,256.399L196.1,240.08C177.156,240.032 158.247,237.708 139.686,233.991C131.882,232.007 118.449,225.628 115.738,222.633C113.895,220.596 113.919,220.262 116.285,214.661C122.426,200.133 132.392,188.543 144.886,180.724C160.167,171.161 178.339,169.413 195.929,169.913C195.985,169.915 196.044,169.911 196.1,169.913L196.1,158.966C196.011,158.963 195.84,158.934 195.758,158.932C194.358,158.894 192.988,158.841 191.619,158.829C190.334,158.82 189.078,158.817 187.821,158.829L187.821,158.829ZM538.381,158.829C537.014,158.842 535.643,158.894 534.242,158.932C534.159,158.934 533.989,158.963 533.901,158.966L533.901,169.913C533.957,169.911 534.014,169.914 534.071,169.913C551.661,169.413 569.832,171.161 585.114,180.724C597.608,188.543 607.576,200.132 613.714,214.661C616.082,220.262 616.104,220.596 614.263,222.633C611.551,225.628 598.119,232.007 590.314,233.991C571.752,237.708 552.845,240.032 533.901,240.08L533.901,256.399C560.549,256.685 586.895,256.344 610.977,242.543C620.506,238.011 622.871,237.36 630.751,236.933C658.029,235.454 680.674,252.203 699.413,270.631C688.637,251.073 666.374,239.047 650.628,230.399C663.984,228.869 678.122,238.397 692.265,248.052C684.302,237.831 672.641,230.831 661.748,223.898C672.411,212.408 680.844,196.084 685.865,180.211C677.829,194.207 666.907,220.52 647.925,218.664C626.798,216.598 612.337,177.259 588.773,167.005C576.845,161.814 561.035,159.015 542.179,158.829C540.923,158.817 539.666,158.819 538.381,158.829L538.381,158.829ZM208.245,160.471L208.245,171.111C236.729,175.624 269.332,191.832 276.838,206.93C254.649,191.5 228.959,179.014 201.539,179.424C183.739,179.69 161.495,184.241 144.134,193.861C135.371,198.717 122.987,209.61 122.786,212.985C121.993,226.245 181.372,233.505 202.703,232.588C227.685,231.524 252.861,230.352 275.093,219.451C262.433,236.61 232.507,239.121 208.245,239.841L208.245,256.091C246.312,253.937 293.085,236.699 292.917,214.388C292.661,180.224 235.192,165.022 208.245,160.471ZM521.754,160.471C494.808,165.022 437.34,180.224 437.084,214.388C436.917,236.699 483.688,253.937 521.754,256.091L521.754,239.841C497.492,239.121 467.566,236.61 454.908,219.451C477.139,230.352 502.313,231.524 527.298,232.588C548.63,233.505 608.005,226.245 607.216,212.985C607.014,209.61 594.627,198.717 585.865,193.861C568.506,184.241 546.262,179.69 528.46,179.424C501.041,179.014 475.352,191.5 453.162,206.93C460.667,191.832 493.271,175.624 521.754,171.111L521.754,160.471L521.754,160.471ZM322.578,178.158C322.463,244.557 312.119,290.875 270.03,341.825C260.694,353.126 249.626,365.399 249.127,380.826C248.752,392.423 254.179,402.918 261.169,412.984C257.086,403.098 254.377,393.434 255.525,382.673C256.532,373.226 263.167,366.624 282.517,347.572C301.133,329.243 304.637,324.873 308.005,328.517C309.494,330.127 309.272,339.423 307.183,356.296C304.175,380.599 305.217,397.248 310.399,407.509C315.721,418.046 329.73,426.65 348.783,431.114C352.894,432.077 358.811,432.346 365,432.346C371.188,432.346 377.106,432.077 381.217,431.114C400.268,426.65 414.278,418.046 419.601,407.509C424.783,397.248 425.825,380.599 422.816,356.296C420.729,339.423 420.504,330.127 421.995,328.517C425.364,324.873 428.868,329.243 447.482,347.572C466.833,366.624 473.467,373.226 474.474,382.673C475.624,393.434 472.915,403.098 468.832,412.984C475.823,402.918 481.247,392.423 480.875,380.826C480.376,365.399 469.306,353.126 459.969,341.825C417.881,290.875 407.537,244.557 407.423,178.158C400.13,213.028 401.156,265.155 402.494,310.076C403.341,338.431 405.589,357.013 408.585,374.189C411.424,390.469 411.01,402.855 405.301,407.509C394.481,416.331 379.373,419.505 365,419.517C350.627,419.53 335.526,416.366 324.699,407.509C318.997,402.846 318.576,390.469 321.415,374.189C324.41,357.013 326.659,338.431 327.505,310.076C328.844,265.155 329.87,213.028 322.578,178.158L322.578,178.158ZM287.17,411.204C285.607,411.257 284.139,411.481 282.825,411.889C280.35,412.656 280.133,416.518 283.236,420.613C286.77,424.812 290.545,426.814 298.699,428.822C306.679,430.789 311.077,430.859 311.597,428.311C313.558,418.68 298.11,410.831 287.17,411.204L287.17,411.204ZM442.831,411.204C431.89,410.831 416.441,418.68 418.405,428.311C418.923,430.859 423.321,430.789 431.3,428.822C439.455,426.814 443.228,424.812 446.765,420.613C449.869,416.518 449.651,412.656 447.175,411.889C445.862,411.481 444.394,411.257 442.831,411.204ZM278.617,526.908C276.835,528.527 274.105,530.043 275.504,532.244C277.026,534.637 292.025,538.312 313.204,539.326C347.631,540.974 382.366,541.602 416.794,539.326C437.965,537.924 452.975,534.637 454.497,532.244C455.896,530.043 453.165,528.527 451.384,526.908L278.617,526.908L278.617,526.908ZM321.963,592.522C335.147,608 342.694,616.064 342.626,627.863C342.5,649.988 332.915,652.615 333.902,687.836C334.695,716.117 339.276,734.547 341.908,752.494C348.171,795.204 355.483,795.873 365,795.873C374.516,795.873 381.829,795.204 388.093,752.494C390.724,734.547 395.305,716.117 396.098,687.836C397.086,652.615 387.5,649.988 387.374,627.863C387.307,616.064 394.853,608 408.039,592.522L321.963,592.522Z" style="fill-rule:nonzero;"/>
            </g>
            <g transform="matrix(1,0,0,1,6.8924,34.7165)">
                <path d="M27.783,202.973C27.457,202.973 27.099,202.921 26.709,202.817L26.699,205.151C26.699,205.294 26.654,205.411 26.565,205.502C26.475,205.594 26.36,205.639 26.22,205.639C26.08,205.639 25.966,205.594 25.876,205.502C25.787,205.411 25.742,205.294 25.742,205.151L25.757,203.198L25.757,201.249C25.747,200.537 25.722,199.887 25.683,199.301L25.61,198.31C25.61,198.079 25.652,197.884 25.737,197.724C25.835,197.532 25.976,197.436 26.162,197.436C26.289,197.436 26.395,197.481 26.482,197.57C26.568,197.66 26.611,197.77 26.611,197.9C26.611,197.929 26.606,197.983 26.596,198.061C26.58,198.162 26.569,198.255 26.562,198.339C26.842,198.147 27.112,198.003 27.373,197.907C27.633,197.811 27.882,197.763 28.12,197.763C28.787,197.763 29.275,198.059 29.585,198.652C29.829,199.121 29.951,199.741 29.951,200.512C29.951,201.215 29.762,201.795 29.384,202.25C28.984,202.732 28.45,202.973 27.783,202.973ZM28.12,198.74C27.82,198.74 27.55,198.806 27.309,198.94C27.137,199.034 26.919,199.207 26.655,199.457C26.697,200.196 26.718,200.973 26.718,201.787C27.073,201.923 27.428,201.992 27.783,201.992C28.19,201.992 28.501,201.84 28.716,201.538C28.901,201.274 28.994,200.932 28.994,200.512C28.994,199.92 28.921,199.476 28.777,199.182C28.632,198.887 28.413,198.74 28.12,198.74Z" style="fill-rule:nonzero;"/>
                <path d="M34.868,203.124C34.806,203.124 34.694,203.053 34.531,202.91C34.384,202.776 34.275,202.657 34.204,202.553C33.891,202.722 33.616,202.85 33.379,202.936C33.141,203.023 32.942,203.066 32.783,203.066C32.021,203.066 31.466,202.851 31.118,202.421C30.789,202.018 30.625,201.399 30.625,200.566C30.625,199.778 30.896,199.104 31.438,198.544C31.98,197.984 32.627,197.705 33.379,197.705C33.662,197.705 33.979,197.778 34.331,197.924C34.773,198.107 34.995,198.326 34.995,198.583C34.995,198.671 34.962,198.749 34.897,198.818C34.865,198.942 34.839,199.145 34.821,199.428C34.804,199.711 34.793,200.074 34.79,200.517C34.786,200.921 34.814,201.24 34.873,201.474C34.905,201.617 35.008,201.904 35.18,202.333C35.203,202.392 35.241,202.478 35.293,202.592L35.322,202.675C35.322,202.805 35.276,202.913 35.185,202.998C35.094,203.082 34.988,203.124 34.868,203.124ZM33.852,199.731C33.852,199.591 33.861,199.439 33.879,199.274C33.897,199.11 33.924,198.935 33.96,198.749C33.839,198.688 33.736,198.642 33.65,198.613C33.563,198.583 33.494,198.569 33.442,198.569C32.938,198.569 32.502,198.775 32.136,199.186C31.77,199.598 31.587,200.073 31.587,200.61C31.587,201.144 31.681,201.544 31.87,201.811C32.059,202.078 32.342,202.211 32.719,202.211C33.032,202.211 33.297,202.154 33.515,202.04C33.633,201.979 33.797,201.855 34.008,201.669C33.904,200.807 33.852,200.161 33.852,199.731Z" style="fill-rule:nonzero;"/>
                <path d="M39.438,198.642C39.37,198.642 39.289,198.639 39.196,198.632C39.104,198.626 39.023,198.623 38.955,198.623C38.88,198.623 38.659,198.647 38.291,198.696L38.383,201.581L38.388,201.796L38.393,202.045C38.406,202.758 38.235,203.115 37.881,203.115C37.75,203.115 37.637,203.072 37.541,202.988C37.445,202.903 37.397,202.797 37.397,202.67C37.397,202.547 37.402,202.361 37.412,202.114C37.422,201.866 37.426,201.681 37.426,201.557L37.329,198.706C37.091,198.696 36.73,198.668 36.245,198.623C35.955,198.583 35.81,198.422 35.81,198.139C35.81,197.996 35.854,197.877 35.942,197.783C36.03,197.688 36.142,197.641 36.279,197.641L37.304,197.724C37.304,197.558 37.297,197.336 37.282,197.058C37.268,196.779 37.26,196.578 37.26,196.455C37.26,196.318 37.308,196.205 37.402,196.115C37.496,196.026 37.612,195.981 37.749,195.981C38.042,195.981 38.213,196.22 38.261,196.699C38.271,196.819 38.276,196.964 38.276,197.133L38.266,197.416L38.261,197.719C38.665,197.667 38.896,197.641 38.955,197.641C39.293,197.641 39.515,197.657 39.619,197.69C39.817,197.755 39.917,197.908 39.917,198.149C39.917,198.292 39.872,198.41 39.782,198.503C39.693,198.596 39.578,198.642 39.438,198.642Z" style="fill-rule:nonzero;"/>
                <path d="M43.091,203.11C42.423,203.11 41.867,202.908 41.421,202.504C40.952,202.081 40.717,201.523 40.717,200.83C40.717,200.169 40.937,199.487 41.377,198.784C41.865,198.002 42.415,197.612 43.027,197.612C43.346,197.612 43.702,197.687 44.096,197.836C44.594,198.028 44.843,198.263 44.843,198.54C44.843,198.663 44.803,198.773 44.721,198.869C44.64,198.965 44.539,199.013 44.419,199.013C44.324,199.013 44.242,198.985 44.172,198.928C44.102,198.871 44.035,198.815 43.969,198.759C43.777,198.606 43.463,198.53 43.027,198.53C42.695,198.53 42.366,198.826 42.041,199.418C41.744,199.962 41.596,200.432 41.596,200.83C41.596,201.259 41.743,201.598 42.036,201.845C42.309,202.076 42.661,202.192 43.091,202.192C43.286,202.192 43.494,202.14 43.716,202.036L44.282,201.733C44.38,201.681 44.45,201.655 44.492,201.655C44.612,201.655 44.716,201.703 44.804,201.799C44.892,201.895 44.936,202.005 44.936,202.128C44.936,202.366 44.686,202.595 44.184,202.817C43.745,203.012 43.38,203.11 43.091,203.11Z" style="fill-rule:nonzero;"/>
                <path d="M50.107,203.105C49.876,203.105 49.725,202.981 49.653,202.734C49.578,202.467 49.51,202.088 49.448,201.596C49.389,201.124 49.36,200.737 49.36,200.434C49.36,200.349 49.364,200.221 49.372,200.048C49.38,199.876 49.384,199.747 49.384,199.663C49.384,199.051 49.231,198.745 48.925,198.745C48.512,198.745 48.143,198.932 47.817,199.306C47.651,199.498 47.423,199.864 47.133,200.405C47.133,201.645 47.081,202.379 46.977,202.607C46.886,202.809 46.744,202.91 46.552,202.91C46.419,202.91 46.302,202.864 46.201,202.773C46.1,202.682 46.049,202.571 46.049,202.441C46.049,202.395 46.064,202.324 46.093,202.226C46.119,202.145 46.137,201.907 46.147,201.513L46.162,200.79L46.176,197.202C46.199,196.798 46.211,196.526 46.211,196.386C46.211,196.22 46.195,196.063 46.164,195.915C46.133,195.767 46.118,195.613 46.118,195.454C46.118,195.317 46.165,195.204 46.259,195.114C46.354,195.025 46.469,194.98 46.606,194.98C46.873,194.98 47.029,195.123 47.075,195.41C47.127,195.725 47.153,196.01 47.153,196.264C47.153,196.606 47.142,196.962 47.119,197.333C47.099,197.688 47.091,198.045 47.094,198.403L47.099,198.832C47.366,198.474 47.652,198.207 47.956,198.029C48.261,197.852 48.584,197.763 48.925,197.763C49.466,197.763 49.837,197.939 50.039,198.29C50.182,198.538 50.263,198.955 50.283,199.54L50.322,200.473L50.42,201.489C50.465,201.87 50.521,202.205 50.586,202.495C50.599,202.55 50.605,202.597 50.605,202.636C50.605,202.77 50.556,202.881 50.459,202.971C50.361,203.06 50.244,203.105 50.107,203.105Z" style="fill-rule:nonzero;"/>
            </g>
            <g transform="matrix(1,0,0,1,-3.34789,12.8599)">
                <path d="M28.79,27.906C28.758,28.476 28.531,28.761 28.107,28.761C27.715,28.761 27.519,28.535 27.519,28.084C27.519,27.998 27.512,27.838 27.498,27.606L27.478,27.031C26.758,27.118 26.181,27.321 25.748,27.64C25.343,27.936 25.005,28.383 24.737,28.98L24.75,32.726C24.75,33.186 24.525,33.416 24.073,33.416C23.672,33.416 23.472,33.186 23.472,32.726L23.472,27.927C23.472,27.777 23.478,27.551 23.489,27.25C23.5,26.949 23.506,26.724 23.506,26.573C23.506,26.113 23.707,25.883 24.108,25.883C24.554,25.883 24.78,26.261 24.784,27.018C25.659,26.175 26.63,25.753 27.697,25.753C28.066,25.753 28.341,25.892 28.524,26.17C28.706,26.448 28.797,26.867 28.797,27.428C28.797,27.665 28.795,27.824 28.79,27.906Z" style="fill-rule:nonzero;"/>
                <path d="M35.838,29.971L35.838,32.5C35.838,32.924 35.631,33.136 35.216,33.136C34.733,33.136 34.491,32.806 34.491,32.145C34.491,32.063 34.496,31.947 34.505,31.796C34.514,31.646 34.519,31.543 34.519,31.489L34.512,29.937L31.497,29.862C30.873,29.862 30.44,29.841 30.198,29.8C29.784,29.732 29.576,29.57 29.576,29.315C29.576,29.11 29.702,28.85 29.952,28.535L30.54,27.838L33.904,22.93C34.209,22.506 34.596,22.294 35.066,22.294C35.581,22.294 35.838,22.517 35.838,22.964L35.838,28.645C35.916,28.64 36.009,28.638 36.118,28.638C36.957,28.638 37.376,28.864 37.376,29.315C37.376,29.643 37.203,29.85 36.857,29.937C36.702,29.978 36.362,29.989 35.838,29.971ZM34.512,24.188C33.295,26.129 32.345,27.583 31.661,28.549L34.512,28.617L34.512,24.188Z" style="fill-rule:nonzero;"/>
                <path d="M45.026,27.093L44.028,28.03L42.811,29.239L45.039,32.152C45.153,32.297 45.21,32.441 45.21,32.582C45.21,32.76 45.142,32.917 45.005,33.054C44.868,33.191 44.713,33.259 44.54,33.259C44.367,33.259 44.21,33.175 44.069,33.006C43.649,32.518 42.911,31.58 41.854,30.19L40.521,31.564C40.252,31.805 39.86,32.181 39.345,32.692C39.199,32.856 39.042,32.938 38.873,32.938C38.7,32.938 38.546,32.869 38.412,32.733C38.277,32.596 38.21,32.439 38.21,32.261C38.21,32.12 38.267,31.976 38.381,31.83C38.509,31.662 38.707,31.459 38.976,31.222C39.29,30.944 39.498,30.752 39.598,30.648L41.054,29.123L40.158,27.831C39.798,27.316 39.484,26.94 39.215,26.703C39.042,26.548 38.955,26.38 38.955,26.197C38.955,26.015 39.02,25.853 39.15,25.712C39.28,25.571 39.429,25.5 39.598,25.5C39.867,25.5 40.272,25.851 40.815,26.553L41.997,28.187L43.337,26.956C43.893,26.432 44.269,26.022 44.465,25.726C44.611,25.512 44.784,25.405 44.985,25.405C45.162,25.405 45.32,25.471 45.456,25.603C45.593,25.735 45.661,25.888 45.661,26.061C45.661,26.311 45.449,26.655 45.026,27.093Z" style="fill-rule:nonzero;"/>
                <path d="M56.011,23.326C55.943,23.518 55.908,23.798 55.908,24.167C55.908,24.304 55.913,24.507 55.922,24.776C55.931,25.044 55.936,25.247 55.936,25.384C55.936,25.84 55.896,26.519 55.816,27.421C55.736,28.323 55.697,29.002 55.697,29.458C55.697,29.805 55.722,30.324 55.772,31.017C55.822,31.71 55.847,32.231 55.847,32.582C55.847,32.769 55.784,32.926 55.659,33.054C55.534,33.182 55.378,33.245 55.191,33.245C55.008,33.245 54.853,33.182 54.726,33.054C54.598,32.926 54.534,32.769 54.534,32.582C54.534,32.231 54.509,31.71 54.459,31.017C54.409,30.324 54.384,29.805 54.384,29.458C54.384,29.126 54.395,28.788 54.418,28.447C53.639,28.46 52.675,28.576 51.527,28.795L48.656,29.356C48.656,29.766 48.614,30.348 48.532,31.102C48.45,31.857 48.409,32.441 48.409,32.856C48.409,33.043 48.347,33.201 48.221,33.331C48.096,33.461 47.94,33.526 47.753,33.526C47.566,33.526 47.41,33.461 47.285,33.331C47.16,33.201 47.097,33.043 47.097,32.856C47.097,32.373 47.137,31.651 47.217,30.692C47.296,29.733 47.336,29.012 47.336,28.529C47.336,28.278 47.327,27.9 47.309,27.394C47.291,26.888 47.281,26.507 47.281,26.252C47.281,25.892 47.304,25.351 47.35,24.629C47.395,23.906 47.418,23.365 47.418,23.005C47.418,22.814 47.481,22.654 47.606,22.527C47.732,22.399 47.888,22.335 48.074,22.335C48.261,22.335 48.417,22.399 48.543,22.527C48.668,22.654 48.731,22.814 48.731,23.005C48.731,23.37 48.707,23.915 48.659,24.642C48.611,25.369 48.587,25.915 48.587,26.28L48.628,28.009L51.561,27.455C52.732,27.237 53.719,27.123 54.521,27.114C54.571,26.462 54.596,25.48 54.596,24.167C54.596,23.821 54.653,23.47 54.767,23.114C54.917,22.627 55.129,22.383 55.403,22.383C55.576,22.383 55.731,22.446 55.867,22.571C56.004,22.696 56.072,22.855 56.072,23.046C56.072,23.114 56.052,23.208 56.011,23.326Z" style="fill-rule:nonzero;"/>
                <path d="M63.401,29.971L63.401,32.5C63.401,32.924 63.193,33.136 62.779,33.136C62.295,33.136 62.054,32.806 62.054,32.145C62.054,32.063 62.058,31.947 62.068,31.796C62.077,31.646 62.081,31.543 62.081,31.489L62.074,29.937L59.06,29.862C58.435,29.862 58.003,29.841 57.761,29.8C57.346,29.732 57.139,29.57 57.139,29.315C57.139,29.11 57.264,28.85 57.515,28.535L58.103,27.838L61.466,22.93C61.771,22.506 62.159,22.294 62.628,22.294C63.143,22.294 63.401,22.517 63.401,22.964L63.401,28.645C63.478,28.64 63.572,28.638 63.681,28.638C64.519,28.638 64.939,28.864 64.939,29.315C64.939,29.643 64.766,29.85 64.419,29.937C64.264,29.978 63.925,29.989 63.401,29.971ZM62.074,24.188C60.858,26.129 59.907,27.583 59.224,28.549L62.074,28.617L62.074,24.188Z" style="fill-rule:nonzero;"/>
                <path d="M72.588,27.093L71.59,28.03L70.373,29.239L72.602,32.152C72.716,32.297 72.773,32.441 72.773,32.582C72.773,32.76 72.704,32.917 72.568,33.054C72.431,33.191 72.276,33.259 72.103,33.259C71.93,33.259 71.772,33.175 71.631,33.006C71.212,32.518 70.474,31.58 69.416,30.19L68.083,31.564C67.814,31.805 67.422,32.181 66.907,32.692C66.762,32.856 66.604,32.938 66.436,32.938C66.263,32.938 66.109,32.869 65.974,32.733C65.84,32.596 65.773,32.439 65.773,32.261C65.773,32.12 65.83,31.976 65.944,31.83C66.071,31.662 66.269,31.459 66.538,31.222C66.853,30.944 67.06,30.752 67.16,30.648L68.616,29.123L67.721,27.831C67.361,27.316 67.046,26.94 66.778,26.703C66.604,26.548 66.518,26.38 66.518,26.197C66.518,26.015 66.583,25.853 66.713,25.712C66.843,25.571 66.992,25.5 67.16,25.5C67.429,25.5 67.835,25.851 68.377,26.553L69.56,28.187L70.9,26.956C71.456,26.432 71.832,26.022 72.028,25.726C72.173,25.512 72.347,25.405 72.547,25.405C72.725,25.405 72.882,25.471 73.019,25.603C73.156,25.735 73.224,25.888 73.224,26.061C73.224,26.311 73.012,26.655 72.588,27.093Z" style="fill-rule:nonzero;"/>
            </g>
            <g transform="matrix(1,0,0,1,16.4455,83.4014)">
                <path d="M15.971,61.267C15.971,61.359 15.89,61.491 15.728,61.666C15.609,61.786 15.49,61.905 15.373,62.025C15.084,62.353 14.857,62.822 14.693,63.431C14.55,63.963 14.478,64.485 14.478,64.998C14.478,66.321 14.778,67.291 15.377,67.908C15.497,68.002 15.618,68.096 15.74,68.189C15.891,68.309 15.967,68.428 15.967,68.545C15.967,68.631 15.933,68.706 15.865,68.769C15.797,68.833 15.719,68.865 15.631,68.865C15.553,68.865 15.459,68.835 15.349,68.775C14.248,68.158 13.697,66.869 13.697,64.908C13.697,64.202 13.839,63.487 14.123,62.763C14.441,61.959 14.857,61.375 15.373,61.013C15.477,60.941 15.559,60.904 15.619,60.904C15.713,60.904 15.795,60.941 15.865,61.015C15.935,61.09 15.971,61.174 15.971,61.267Z" style="fill-rule:nonzero;"/>
                <path d="M18.385,67.314C18.124,67.314 17.838,67.273 17.525,67.189L17.517,69.056C17.517,69.171 17.482,69.265 17.41,69.338C17.338,69.411 17.247,69.447 17.135,69.447C17.023,69.447 16.931,69.411 16.859,69.338C16.788,69.265 16.752,69.171 16.752,69.056L16.764,67.494L16.764,65.935C16.756,65.365 16.736,64.846 16.705,64.377L16.646,63.584C16.646,63.399 16.68,63.243 16.748,63.115C16.826,62.961 16.939,62.885 17.088,62.885C17.189,62.885 17.275,62.92 17.344,62.992C17.413,63.064 17.447,63.151 17.447,63.256C17.447,63.279 17.443,63.322 17.435,63.385C17.422,63.465 17.413,63.54 17.408,63.607C17.632,63.454 17.848,63.338 18.057,63.262C18.265,63.185 18.464,63.146 18.654,63.146C19.188,63.146 19.579,63.383 19.826,63.857C20.021,64.232 20.119,64.728 20.119,65.346C20.119,65.908 19.968,66.372 19.666,66.736C19.346,67.122 18.918,67.314 18.385,67.314ZM18.654,63.928C18.415,63.928 18.198,63.981 18.006,64.088C17.868,64.163 17.693,64.301 17.482,64.502C17.516,65.093 17.533,65.714 17.533,66.365C17.817,66.474 18.101,66.529 18.385,66.529C18.71,66.529 18.959,66.408 19.131,66.166C19.279,65.955 19.353,65.681 19.353,65.346C19.353,64.872 19.295,64.517 19.18,64.281C19.064,64.045 18.889,63.928 18.654,63.928Z" style="fill-rule:nonzero;"/>
                <path d="M24.053,67.435C24.003,67.435 23.913,67.378 23.783,67.263C23.666,67.157 23.579,67.062 23.521,66.978C23.271,67.114 23.051,67.216 22.861,67.285C22.671,67.354 22.512,67.388 22.385,67.388C21.775,67.388 21.331,67.217 21.053,66.873C20.79,66.55 20.658,66.055 20.658,65.388C20.658,64.758 20.875,64.219 21.308,63.771C21.742,63.323 22.26,63.099 22.861,63.099C23.088,63.099 23.342,63.158 23.623,63.275C23.977,63.421 24.154,63.597 24.154,63.803C24.154,63.873 24.128,63.935 24.076,63.99C24.05,64.089 24.03,64.252 24.015,64.478C24.001,64.705 23.993,64.995 23.99,65.349C23.987,65.672 24.01,65.928 24.057,66.115C24.083,66.23 24.165,66.459 24.303,66.803C24.321,66.849 24.351,66.918 24.392,67.01L24.416,67.076C24.416,67.18 24.379,67.266 24.307,67.334C24.234,67.401 24.149,67.435 24.053,67.435ZM23.24,64.721C23.24,64.609 23.247,64.487 23.262,64.355C23.276,64.224 23.297,64.084 23.326,63.935C23.23,63.886 23.147,63.849 23.078,63.826C23.009,63.803 22.954,63.791 22.912,63.791C22.508,63.791 22.16,63.956 21.867,64.285C21.574,64.614 21.428,64.994 21.428,65.424C21.428,65.851 21.503,66.171 21.654,66.385C21.805,66.598 22.032,66.705 22.334,66.705C22.584,66.705 22.796,66.659 22.971,66.568C23.064,66.519 23.196,66.42 23.365,66.271C23.282,65.581 23.24,65.064 23.24,64.721Z" style="fill-rule:nonzero;"/>
                <path d="M28.135,64.291C28.116,64.616 27.986,64.779 27.744,64.779C27.52,64.779 27.408,64.65 27.408,64.392C27.408,64.343 27.404,64.252 27.396,64.119L27.385,63.791C26.973,63.84 26.644,63.956 26.396,64.138C26.165,64.308 25.972,64.563 25.818,64.904L25.826,67.045C25.826,67.308 25.697,67.439 25.439,67.439C25.21,67.439 25.096,67.308 25.096,67.045L25.096,64.303C25.096,64.217 25.099,64.088 25.105,63.916C25.112,63.744 25.115,63.615 25.115,63.529C25.115,63.266 25.23,63.135 25.459,63.135C25.714,63.135 25.843,63.351 25.846,63.783C26.346,63.301 26.9,63.06 27.51,63.06C27.721,63.06 27.878,63.14 27.982,63.299C28.086,63.457 28.139,63.697 28.139,64.017C28.139,64.153 28.137,64.244 28.135,64.291Z" style="fill-rule:nonzero;"/>
                <path d="M31.553,63.849C31.498,63.849 31.433,63.847 31.359,63.842C31.285,63.836 31.221,63.834 31.166,63.834C31.106,63.834 30.929,63.853 30.635,63.892L30.709,66.201L30.713,66.373L30.717,66.572C30.727,67.142 30.59,67.428 30.307,67.428C30.202,67.428 30.112,67.394 30.035,67.326C29.958,67.258 29.92,67.174 29.92,67.072C29.92,66.973 29.924,66.825 29.932,66.627C29.939,66.429 29.943,66.28 29.943,66.181L29.865,63.9C29.675,63.892 29.386,63.87 28.998,63.834C28.766,63.803 28.65,63.674 28.65,63.447C28.65,63.332 28.685,63.237 28.756,63.162C28.826,63.086 28.916,63.049 29.025,63.049L29.846,63.115C29.846,62.982 29.84,62.804 29.828,62.582C29.816,62.359 29.81,62.198 29.81,62.099C29.81,61.99 29.848,61.9 29.924,61.828C29.999,61.756 30.092,61.721 30.201,61.721C30.435,61.721 30.572,61.912 30.611,62.295C30.619,62.391 30.623,62.507 30.623,62.642L30.615,62.869L30.611,63.111C30.934,63.069 31.119,63.049 31.166,63.049C31.437,63.049 31.614,63.062 31.697,63.088C31.856,63.14 31.935,63.262 31.935,63.455C31.935,63.569 31.9,63.664 31.828,63.738C31.756,63.812 31.665,63.849 31.553,63.849Z" style="fill-rule:nonzero;"/>
                <path d="M33.455,62.232C33.33,62.232 33.222,62.188 33.131,62.099C33.04,62.011 32.994,61.904 32.994,61.779C32.994,61.654 33.04,61.547 33.131,61.459C33.222,61.37 33.33,61.326 33.455,61.326C33.58,61.326 33.687,61.37 33.777,61.459C33.867,61.547 33.912,61.654 33.912,61.779C33.912,61.904 33.867,62.011 33.777,62.099C33.687,62.188 33.58,62.232 33.455,62.232ZM33.631,65.404C33.631,65.56 33.635,65.794 33.644,66.105C33.654,66.416 33.658,66.65 33.658,66.806C33.658,66.921 33.623,67.015 33.553,67.088C33.482,67.161 33.39,67.197 33.275,67.197C33.163,67.197 33.071,67.161 33,67.088C32.928,67.015 32.892,66.921 32.892,66.806C32.892,66.65 32.888,66.416 32.879,66.105C32.87,65.794 32.865,65.56 32.865,65.404C32.865,65.159 32.878,64.854 32.904,64.488C32.93,64.122 32.943,63.817 32.943,63.572C32.943,63.455 32.979,63.36 33.051,63.287C33.122,63.214 33.214,63.178 33.326,63.178C33.438,63.178 33.53,63.214 33.601,63.287C33.673,63.36 33.709,63.455 33.709,63.572C33.709,63.817 33.696,64.122 33.67,64.488C33.644,64.854 33.631,65.159 33.631,65.404Z" style="fill-rule:nonzero;"/>
                <path d="M38.002,67.435C37.952,67.435 37.862,67.378 37.732,67.263C37.615,67.157 37.528,67.062 37.471,66.978C37.221,67.114 37.001,67.216 36.81,67.285C36.62,67.354 36.461,67.388 36.334,67.388C35.724,67.388 35.28,67.217 35.002,66.873C34.739,66.55 34.607,66.055 34.607,65.388C34.607,64.758 34.824,64.219 35.258,63.771C35.691,63.323 36.209,63.099 36.81,63.099C37.037,63.099 37.291,63.158 37.572,63.275C37.926,63.421 38.103,63.597 38.103,63.803C38.103,63.873 38.077,63.935 38.025,63.99C37.999,64.089 37.979,64.252 37.965,64.478C37.95,64.705 37.942,64.995 37.939,65.349C37.937,65.672 37.959,65.928 38.006,66.115C38.032,66.23 38.114,66.459 38.252,66.803C38.27,66.849 38.3,66.918 38.342,67.01L38.365,67.076C38.365,67.18 38.329,67.266 38.256,67.334C38.183,67.401 38.098,67.435 38.002,67.435ZM37.189,64.721C37.189,64.609 37.196,64.487 37.211,64.355C37.225,64.224 37.247,64.084 37.275,63.935C37.179,63.886 37.096,63.849 37.027,63.826C36.958,63.803 36.903,63.791 36.861,63.791C36.458,63.791 36.109,63.956 35.816,64.285C35.523,64.614 35.377,64.994 35.377,65.424C35.377,65.851 35.452,66.171 35.603,66.385C35.754,66.598 35.981,66.705 36.283,66.705C36.533,66.705 36.745,66.659 36.92,66.568C37.014,66.519 37.145,66.42 37.314,66.271C37.231,65.581 37.189,65.064 37.189,64.721Z" style="fill-rule:nonzero;"/>
                <path d="M40.037,64.107L39.978,66.049C39.978,66.254 39.968,66.556 39.947,66.955C39.921,67.215 39.793,67.346 39.564,67.346C39.309,67.346 39.182,67.213 39.182,66.947C39.182,66.632 39.196,66.159 39.224,65.527C39.253,64.896 39.267,64.422 39.267,64.107C39.267,63.696 39.274,63.225 39.287,62.695C39.3,62.165 39.307,61.694 39.307,61.283C39.307,61.023 39.434,60.892 39.689,60.892C39.947,60.892 40.076,61.023 40.076,61.283C40.076,61.694 40.07,62.165 40.057,62.695C40.043,63.225 40.037,63.696 40.037,64.107Z" style="fill-rule:nonzero;"/>
                <path d="M43.412,64.908C43.412,66.869 42.86,68.158 41.756,68.775C41.649,68.835 41.557,68.865 41.478,68.865C41.39,68.865 41.312,68.833 41.244,68.769C41.176,68.706 41.142,68.631 41.142,68.545C41.142,68.428 41.218,68.309 41.369,68.189C41.489,68.096 41.61,68.002 41.732,67.908C42.331,67.291 42.631,66.321 42.631,64.998C42.631,64.485 42.559,63.963 42.416,63.431C42.249,62.822 42.023,62.353 41.736,62.025C41.616,61.905 41.498,61.786 41.381,61.666C41.219,61.491 41.139,61.359 41.139,61.267C41.139,61.174 41.173,61.09 41.242,61.015C41.311,60.941 41.392,60.904 41.486,60.904C41.546,60.904 41.629,60.941 41.736,61.013C42.252,61.375 42.668,61.959 42.986,62.763C43.27,63.487 43.412,64.202 43.412,64.908Z" style="fill-rule:nonzero;"/>
            </g>
            <g transform="matrix(1,0,0,1,24.6987,-14.1796)">
                <path d="M11.115,302.443C10.813,302.65 10.378,302.754 9.812,302.754C9.669,302.754 9.506,302.731 9.322,302.686C9.102,302.634 8.936,302.565 8.824,302.481L8.795,302.481C8.711,302.481 8.641,302.452 8.584,302.393C8.527,302.335 8.499,302.264 8.499,302.18C8.499,301.974 8.508,301.667 8.527,301.258C8.545,300.849 8.555,300.542 8.555,300.337C8.555,300.108 8.55,299.767 8.542,299.313C8.533,298.859 8.528,298.517 8.528,298.289C8.528,298.209 8.569,298.125 8.651,298.037C8.733,297.949 8.815,297.905 8.898,297.905C8.944,297.905 9.101,297.971 9.366,298.101C9.667,298.248 9.841,298.329 9.888,298.345C10.442,298.534 10.915,298.825 11.306,299.218C11.765,299.681 11.994,300.189 11.994,300.744C11.994,301.078 11.916,301.398 11.758,301.705C11.601,302.012 11.387,302.258 11.115,302.443ZM10.5,299.344C10.301,299.213 9.841,298.988 9.12,298.67L9.135,299.514L9.144,300.354L9.097,301.954C9.11,301.96 9.131,301.973 9.158,301.992C9.33,302.107 9.547,302.165 9.809,302.165C10.254,302.165 10.578,302.097 10.781,301.96C10.971,301.831 11.122,301.658 11.234,301.44C11.346,301.222 11.402,300.995 11.402,300.759C11.402,300.208 11.102,299.736 10.5,299.344Z" style="fill-rule:nonzero;"/>
                <path d="M15.296,302.344C15.075,302.447 14.729,302.54 14.256,302.622C13.82,302.698 13.465,302.736 13.189,302.736C12.992,302.736 12.851,302.706 12.765,302.645C12.648,302.563 12.589,302.413 12.589,302.194L12.648,301.224C12.698,300.33 12.724,299.338 12.724,298.248C12.724,298.164 12.752,298.093 12.807,298.034C12.863,297.975 12.932,297.946 13.014,297.946C13.098,297.946 13.168,297.975 13.223,298.034C13.279,298.093 13.307,298.164 13.307,298.248C13.307,299.351 13.28,300.355 13.228,301.26L13.189,301.705C13.174,301.867 13.168,302.011 13.172,302.136C13.682,302.141 14.326,302.021 15.106,301.775C15.139,301.765 15.17,301.761 15.199,301.761C15.283,301.761 15.354,301.794 15.41,301.86C15.459,301.921 15.483,301.99 15.483,302.068C15.483,302.193 15.421,302.285 15.296,302.344Z" style="fill-rule:nonzero;"/>
                <path d="M19.512,299.842C19.359,300.478 19.16,301.198 18.914,302.001C18.859,302.179 18.769,302.361 18.642,302.549C18.573,302.652 18.481,302.703 18.363,302.701C18.15,302.697 17.984,302.432 17.865,301.907C17.826,301.739 17.786,301.511 17.745,301.222L17.648,300.568L17.408,301.128L16.963,302.338C16.938,302.412 16.9,302.469 16.852,302.508C16.793,302.621 16.699,302.68 16.57,302.683C16.422,302.689 16.278,302.398 16.14,301.81C16.069,301.508 15.999,301.098 15.929,300.58L15.858,300.14C15.833,299.965 15.82,299.817 15.82,299.698C15.82,299.616 15.849,299.548 15.907,299.494C15.964,299.441 16.034,299.414 16.116,299.414C16.265,299.414 16.356,299.495 16.392,299.657C16.417,299.772 16.438,299.915 16.453,300.085L16.497,300.515L16.67,301.831C16.887,301.229 17.111,300.536 17.344,299.751C17.408,299.534 17.521,299.426 17.681,299.426C17.835,299.426 17.939,299.547 17.994,299.789C18.045,300.017 18.108,300.369 18.185,300.844C18.263,301.336 18.332,301.72 18.393,301.995L18.606,301.198L18.984,299.601C19.014,299.482 19.098,299.423 19.236,299.423C19.318,299.423 19.39,299.451 19.45,299.506C19.511,299.562 19.541,299.629 19.541,299.707C19.541,299.717 19.531,299.762 19.512,299.842Z" style="fill-rule:nonzero;"/>
                <path d="M20.669,298.755C20.575,298.755 20.494,298.722 20.426,298.655C20.357,298.589 20.323,298.509 20.323,298.415C20.323,298.321 20.357,298.241 20.426,298.175C20.494,298.108 20.575,298.075 20.669,298.075C20.763,298.075 20.843,298.108 20.911,298.175C20.978,298.241 21.012,298.321 21.012,298.415C21.012,298.509 20.978,298.589 20.911,298.655C20.843,298.722 20.763,298.755 20.669,298.755ZM20.801,301.134C20.801,301.251 20.804,301.426 20.811,301.66C20.818,301.893 20.821,302.068 20.821,302.185C20.821,302.271 20.795,302.342 20.742,302.396C20.689,302.451 20.62,302.478 20.534,302.478C20.45,302.478 20.381,302.451 20.328,302.396C20.274,302.342 20.247,302.271 20.247,302.185C20.247,302.068 20.244,301.893 20.237,301.66C20.23,301.426 20.227,301.251 20.227,301.134C20.227,300.95 20.236,300.721 20.256,300.447C20.275,300.172 20.285,299.943 20.285,299.76C20.285,299.672 20.312,299.6 20.366,299.546C20.419,299.491 20.488,299.464 20.572,299.464C20.656,299.464 20.725,299.491 20.779,299.546C20.833,299.6 20.859,299.672 20.859,299.76C20.859,299.943 20.85,300.172 20.83,300.447C20.811,300.721 20.801,300.95 20.801,301.134Z" style="fill-rule:nonzero;"/>
                <path d="M24.202,301.201L24.135,302.185C24.123,302.576 24.083,302.895 24.015,303.143C23.927,303.46 23.786,303.693 23.593,303.844C23.358,304.025 23.02,304.116 22.576,304.116C22.316,304.116 22.099,304.099 21.923,304.063C21.677,304.015 21.554,303.913 21.554,303.759C21.554,303.585 21.639,303.498 21.809,303.498C21.879,303.498 21.996,303.515 22.16,303.549C22.324,303.583 22.506,303.599 22.705,303.595C23.08,303.589 23.339,303.407 23.481,303.05C23.575,302.811 23.625,302.445 23.631,301.951C23.525,302.146 23.4,302.293 23.254,302.39C23.109,302.488 22.942,302.537 22.755,302.537C22.401,302.537 22.114,302.416 21.892,302.175C21.67,301.934 21.56,301.621 21.56,301.236C21.56,300.709 21.711,300.284 22.014,299.962C22.326,299.63 22.752,299.464 23.291,299.464C23.473,299.464 23.625,299.487 23.748,299.534C23.871,299.581 23.965,299.651 24.029,299.745C24.238,299.751 24.343,299.867 24.343,300.094C24.343,300.232 24.322,300.418 24.281,300.65C24.236,300.92 24.21,301.103 24.202,301.201ZM23.262,299.932C22.891,299.932 22.604,300.06 22.4,300.316C22.219,300.547 22.128,300.84 22.128,301.195C22.128,301.478 22.182,301.691 22.289,301.834C22.397,301.976 22.558,302.048 22.773,302.048C22.97,302.048 23.161,301.936 23.347,301.714C23.515,301.509 23.61,301.306 23.634,301.104C23.675,300.893 23.719,300.562 23.766,300.111C23.688,300.051 23.606,300.006 23.523,299.976C23.439,299.947 23.352,299.932 23.262,299.932Z" style="fill-rule:nonzero;"/>
                <path d="M27.387,301.201L27.319,302.185C27.308,302.576 27.268,302.895 27.199,303.143C27.111,303.46 26.971,303.693 26.777,303.844C26.543,304.025 26.204,304.116 25.761,304.116C25.501,304.116 25.283,304.099 25.107,304.063C24.861,304.015 24.738,303.913 24.738,303.759C24.738,303.585 24.823,303.498 24.993,303.498C25.064,303.498 25.181,303.515 25.345,303.549C25.509,303.583 25.69,303.599 25.89,303.595C26.265,303.589 26.523,303.407 26.666,303.05C26.76,302.811 26.81,302.445 26.815,301.951C26.71,302.146 26.585,302.293 26.439,302.39C26.293,302.488 26.127,302.537 25.939,302.537C25.586,302.537 25.298,302.416 25.077,302.175C24.855,301.934 24.744,301.621 24.744,301.236C24.744,300.709 24.896,300.284 25.198,299.962C25.511,299.63 25.937,299.464 26.476,299.464C26.657,299.464 26.81,299.487 26.933,299.534C27.056,299.581 27.149,299.651 27.214,299.745C27.423,299.751 27.527,299.867 27.527,300.094C27.527,300.232 27.507,300.418 27.466,300.65C27.421,300.92 27.395,301.103 27.387,301.201ZM26.446,299.932C26.075,299.932 25.788,300.06 25.585,300.316C25.403,300.547 25.313,300.84 25.313,301.195C25.313,301.478 25.366,301.691 25.474,301.834C25.581,301.976 25.742,302.048 25.957,302.048C26.154,302.048 26.346,301.936 26.531,301.714C26.699,301.509 26.795,301.306 26.818,301.104C26.859,300.893 26.903,300.562 26.95,300.111C26.872,300.051 26.791,300.006 26.707,299.976C26.623,299.947 26.536,299.932 26.446,299.932Z" style="fill-rule:nonzero;"/>
                <path d="M28.904,300.161L28.86,301.617C28.86,301.771 28.853,301.998 28.837,302.297C28.817,302.492 28.722,302.59 28.55,302.59C28.358,302.59 28.263,302.49 28.263,302.291C28.263,302.055 28.273,301.7 28.295,301.226C28.316,300.752 28.327,300.397 28.327,300.161C28.327,299.852 28.332,299.499 28.342,299.102C28.352,298.704 28.356,298.351 28.356,298.043C28.356,297.848 28.452,297.75 28.644,297.75C28.837,297.75 28.934,297.848 28.934,298.043C28.934,298.351 28.929,298.704 28.919,299.102C28.909,299.499 28.904,299.852 28.904,300.161Z" style="fill-rule:nonzero;"/>
                <path d="M32.221,300.094C32.047,300.303 31.824,300.605 31.553,301.002C31.238,301.463 31.008,301.789 30.861,301.98C31.066,301.971 31.245,301.966 31.398,301.966C31.474,301.966 31.587,301.98 31.737,302.01C31.888,302.039 32.001,302.054 32.077,302.054C32.163,302.054 32.233,302.081 32.287,302.137C32.34,302.193 32.367,302.264 32.367,302.349C32.367,302.437 32.34,302.509 32.287,302.563C32.233,302.618 32.163,302.645 32.077,302.645C32.001,302.645 31.888,302.631 31.737,302.601C31.587,302.572 31.474,302.557 31.398,302.557C30.958,302.557 30.541,302.598 30.147,302.678C30.106,302.685 30.069,302.689 30.038,302.689C29.849,302.689 29.754,302.606 29.754,302.44C29.754,302.343 29.803,302.249 29.9,302.159C30.41,301.698 30.965,300.98 31.564,300.006C31.305,300.021 31.116,300.029 30.999,300.029C30.71,300.029 30.413,300.007 30.108,299.962C29.935,299.936 29.848,299.84 29.848,299.672C29.848,299.586 29.874,299.514 29.927,299.456C29.98,299.399 30.046,299.37 30.126,299.37C30.222,299.37 30.366,299.381 30.56,299.404C30.753,299.426 30.899,299.437 30.999,299.437C31.132,299.437 31.331,299.428 31.597,299.41C31.862,299.391 32.062,299.382 32.194,299.382C32.36,299.382 32.443,299.45 32.443,299.587C32.443,299.745 32.369,299.914 32.221,300.094Z" style="fill-rule:nonzero;"/>
            </g>
            <g transform="matrix(1,0,0,1,0.148121,71)">
                <path d="M30.975,71.313C30.308,71.313 29.751,71.111 29.305,70.708C28.836,70.284 28.602,69.726 28.602,69.033C28.602,68.372 28.822,67.69 29.261,66.987C29.749,66.206 30.299,65.815 30.911,65.815C31.23,65.815 31.587,65.89 31.981,66.04C32.479,66.232 32.728,66.466 32.728,66.743C32.728,66.866 32.687,66.976 32.606,67.072C32.524,67.168 32.423,67.216 32.303,67.216C32.209,67.216 32.126,67.188 32.056,67.131C31.986,67.074 31.919,67.018 31.854,66.962C31.662,66.809 31.348,66.733 30.911,66.733C30.579,66.733 30.251,67.029 29.925,67.622C29.629,68.165 29.481,68.636 29.481,69.033C29.481,69.462 29.627,69.801 29.92,70.048C30.194,70.28 30.545,70.395 30.975,70.395C31.17,70.395 31.379,70.343 31.6,70.239L32.166,69.936C32.264,69.884 32.334,69.858 32.376,69.858C32.497,69.858 32.601,69.906 32.689,70.002C32.777,70.098 32.821,70.208 32.821,70.332C32.821,70.569 32.57,70.799 32.069,71.02C31.629,71.215 31.265,71.313 30.975,71.313Z" style="fill-rule:nonzero;"/>
                <path d="M37.718,71.328C37.656,71.328 37.544,71.256 37.381,71.113C37.235,70.979 37.126,70.861 37.054,70.756C36.742,70.926 36.466,71.053 36.229,71.14C35.991,71.226 35.793,71.269 35.633,71.269C34.871,71.269 34.316,71.054 33.968,70.625C33.639,70.221 33.475,69.602 33.475,68.769C33.475,67.981 33.746,67.308 34.288,66.748C34.83,66.188 35.477,65.908 36.229,65.908C36.512,65.908 36.829,65.981 37.181,66.128C37.624,66.31 37.845,66.53 37.845,66.787C37.845,66.875 37.812,66.953 37.747,67.021C37.715,67.145 37.69,67.348 37.672,67.631C37.654,67.915 37.643,68.278 37.64,68.72C37.637,69.124 37.664,69.443 37.723,69.677C37.756,69.821 37.858,70.107 38.031,70.537C38.053,70.595 38.091,70.682 38.143,70.795L38.172,70.878C38.172,71.009 38.127,71.116 38.035,71.201C37.944,71.285 37.839,71.328 37.718,71.328ZM36.702,67.934C36.702,67.794 36.711,67.642 36.729,67.478C36.747,67.313 36.774,67.138 36.81,66.953C36.689,66.891 36.586,66.845 36.5,66.816C36.414,66.787 36.344,66.772 36.292,66.772C35.788,66.772 35.352,66.978 34.986,67.39C34.62,67.802 34.437,68.276 34.437,68.813C34.437,69.347 34.531,69.747 34.72,70.014C34.909,70.281 35.192,70.415 35.57,70.415C35.882,70.415 36.147,70.358 36.366,70.244C36.483,70.182 36.647,70.058 36.859,69.873C36.755,69.01 36.702,68.364 36.702,67.934Z" style="fill-rule:nonzero;"/>
                <path d="M42.288,66.845C42.22,66.845 42.139,66.842 42.047,66.836C41.954,66.829 41.873,66.826 41.805,66.826C41.73,66.826 41.509,66.85 41.141,66.899L41.234,69.785L41.239,70L41.243,70.249C41.257,70.961 41.086,71.318 40.731,71.318C40.601,71.318 40.487,71.276 40.391,71.191C40.295,71.106 40.247,71.001 40.247,70.874C40.247,70.75 40.252,70.564 40.262,70.317C40.272,70.07 40.277,69.884 40.277,69.76L40.179,66.909C39.941,66.899 39.58,66.871 39.095,66.826C38.805,66.787 38.66,66.626 38.66,66.342C38.66,66.199 38.704,66.08 38.792,65.986C38.88,65.892 38.993,65.844 39.129,65.844L40.155,65.927C40.155,65.761 40.147,65.539 40.133,65.261C40.118,64.982 40.111,64.781 40.111,64.658C40.111,64.521 40.158,64.408 40.252,64.318C40.347,64.229 40.462,64.184 40.599,64.184C40.892,64.184 41.063,64.423 41.112,64.902C41.121,65.022 41.126,65.167 41.126,65.336L41.117,65.62L41.112,65.922C41.515,65.87 41.746,65.844 41.805,65.844C42.144,65.844 42.365,65.861 42.469,65.893C42.668,65.958 42.767,66.111 42.767,66.352C42.767,66.495 42.722,66.613 42.633,66.706C42.543,66.799 42.428,66.845 42.288,66.845Z" style="fill-rule:nonzero;"/>
                <path d="M47.547,71.328C47.485,71.328 47.373,71.256 47.21,71.113C47.064,70.979 46.955,70.861 46.883,70.756C46.571,70.926 46.296,71.053 46.058,71.14C45.82,71.226 45.622,71.269 45.462,71.269C44.701,71.269 44.145,71.054 43.797,70.625C43.468,70.221 43.304,69.602 43.304,68.769C43.304,67.981 43.575,67.308 44.117,66.748C44.659,66.188 45.306,65.908 46.058,65.908C46.341,65.908 46.659,65.981 47.01,66.128C47.453,66.31 47.674,66.53 47.674,66.787C47.674,66.875 47.642,66.953 47.576,67.021C47.544,67.145 47.519,67.348 47.501,67.631C47.483,67.915 47.472,68.278 47.469,68.72C47.466,69.124 47.493,69.443 47.552,69.677C47.585,69.821 47.687,70.107 47.86,70.537C47.882,70.595 47.92,70.682 47.972,70.795L48.001,70.878C48.001,71.009 47.956,71.116 47.865,71.201C47.773,71.285 47.668,71.328 47.547,71.328ZM46.532,67.934C46.532,67.794 46.541,67.642 46.558,67.478C46.576,67.313 46.603,67.138 46.639,66.953C46.519,66.891 46.415,66.845 46.329,66.816C46.243,66.787 46.173,66.772 46.121,66.772C45.617,66.772 45.181,66.978 44.815,67.39C44.449,67.802 44.266,68.276 44.266,68.813C44.266,69.347 44.36,69.747 44.549,70.014C44.738,70.281 45.021,70.415 45.399,70.415C45.711,70.415 45.977,70.358 46.195,70.244C46.312,70.182 46.476,70.058 46.688,69.873C46.584,69.01 46.532,68.364 46.532,67.934Z" style="fill-rule:nonzero;"/>
                <path d="M50.091,67.168L50.018,69.594C50.018,69.851 50.005,70.229 49.979,70.727C49.946,71.053 49.787,71.215 49.5,71.215C49.181,71.215 49.022,71.049 49.022,70.717C49.022,70.323 49.04,69.732 49.076,68.942C49.111,68.153 49.129,67.561 49.129,67.168C49.129,66.653 49.137,66.065 49.154,65.402C49.17,64.74 49.178,64.152 49.178,63.637C49.178,63.312 49.338,63.149 49.657,63.149C49.979,63.149 50.14,63.312 50.14,63.637C50.14,64.152 50.132,64.74 50.116,65.402C50.099,66.065 50.091,66.653 50.091,67.168Z" style="fill-rule:nonzero;"/>
                <path d="M53.421,71.294C52.874,71.294 52.404,71.092 52.01,70.688C51.571,70.239 51.34,69.635 51.317,68.877C51.297,68.141 51.483,67.493 51.873,66.933C52.329,66.272 52.964,65.942 53.778,65.942C54.429,65.942 54.922,66.24 55.257,66.836C55.524,67.317 55.653,67.897 55.643,68.574C55.633,69.296 55.444,69.913 55.076,70.424C54.66,71.004 54.108,71.294 53.421,71.294ZM53.714,66.933C53.236,66.93 52.863,67.158 52.596,67.617C52.384,67.985 52.279,68.405 52.279,68.877C52.279,69.349 52.407,69.716 52.664,69.98C52.879,70.198 53.132,70.307 53.421,70.307C53.76,70.307 54.051,70.183 54.295,69.936C54.572,69.663 54.718,69.293 54.735,68.828C54.78,67.568 54.44,66.936 53.714,66.933Z" style="fill-rule:nonzero;"/>
                <path d="M60.868,68.901L60.755,70.542C60.736,71.193 60.669,71.725 60.555,72.138C60.409,72.666 60.174,73.055 59.852,73.305C59.461,73.608 58.896,73.759 58.158,73.759C57.725,73.759 57.362,73.73 57.069,73.671C56.659,73.59 56.453,73.421 56.453,73.164C56.453,72.874 56.595,72.729 56.878,72.729C56.995,72.729 57.191,72.758 57.464,72.815C57.738,72.871 58.04,72.897 58.372,72.89C58.997,72.88 59.429,72.578 59.666,71.982C59.823,71.585 59.906,70.975 59.915,70.151C59.74,70.476 59.53,70.721 59.288,70.883C59.045,71.046 58.768,71.128 58.455,71.128C57.866,71.128 57.387,70.927 57.017,70.524C56.648,70.122 56.463,69.601 56.463,68.96C56.463,68.081 56.715,67.373 57.22,66.836C57.741,66.282 58.451,66.005 59.349,66.005C59.652,66.005 59.906,66.045 60.111,66.123C60.316,66.201 60.472,66.318 60.579,66.474C60.928,66.484 61.102,66.678 61.102,67.055C61.102,67.286 61.068,67.596 60.999,67.983C60.924,68.432 60.881,68.738 60.868,68.901ZM59.3,66.787C58.682,66.787 58.203,67 57.865,67.426C57.562,67.81 57.41,68.299 57.41,68.891C57.41,69.363 57.5,69.718 57.679,69.956C57.858,70.193 58.127,70.312 58.485,70.312C58.813,70.312 59.132,70.127 59.442,69.755C59.722,69.414 59.881,69.075 59.92,68.74C59.989,68.388 60.062,67.836 60.14,67.085C60.01,66.984 59.875,66.909 59.735,66.86C59.595,66.811 59.45,66.787 59.3,66.787Z" style="fill-rule:nonzero;"/>
            </g>
            <g id="border-bottom" serif:id="border bottom" transform="matrix(-0.239341,0,0,-0.144866,85.4196,259.027)">
                <path d="M32.129,26.046L38.009,24.619C46.689,12.496 71.643,6.206 91.166,28.051L95.005,25.919C78.51,6.168 48.19,2.44 32.129,26.046L32.129,26.046ZM28.007,48.514L27.315,44.128C-0.805,32.442 18.486,4.557 36.098,15.768L39.442,13.015C15.586,-3.636 -10.584,34.663 28.007,48.514ZM101.293,32.205L98.381,34.102C143.465,72.806 167.321,-4.158 212.669,27.112C167.796,-8.969 143.506,66.665 101.293,32.205L101.293,32.205ZM69.447,41.489L70.055,45.241C93.014,42.017 119.849,3.868 151.679,28.418L154.38,26.121C120.679,-2.201 89.595,38.255 69.447,41.489L69.447,41.489ZM46.522,19.164L43.647,21.675C49.58,27.679 49.709,33.831 50.562,43.593L54.831,42.826C54.305,34.076 53.345,25.602 46.522,19.164L46.522,19.164L46.522,19.164ZM53.73,26.936L54.68,30.56C62.76,33.159 65.389,40.041 63.289,52.76L67.019,52.557C69.223,39.206 67.357,29.825 53.73,26.936L53.73,26.936ZM30.109,36.913C28.13,44.222 29.298,60.71 47.969,60.798L48.655,57.041C33.468,56.453 32.574,43.57 35.542,34.553L30.109,36.913L30.109,36.913ZM14.435,43.024C-7.503,83.449 75.62,94.618 31.909,156.076L33.242,159.706C82.289,96.429 -0.59,80.554 18.07,45.914L14.435,43.024L14.435,43.024L14.435,43.024ZM60.945,43.297C53.85,45.823 44.713,46.537 37.197,46.323L37.906,49.601C43.566,50.338 56.427,48.673 61.323,46.926L60.945,43.297ZM50.955,51.315C50.846,63.443 51.634,75.345 36.302,88.072L38.584,91.16C54.048,79.243 54.904,68.279 54.794,50.7L50.955,51.315ZM56.575,56.372L56.828,60.359C82.688,53.405 84.097,67.322 79.592,72.068C75.087,76.815 64.758,73.121 66.164,61.032L62.561,61.246C60.275,75.792 74.794,82.981 82.875,75.191C90.913,67.442 84.935,48.223 56.575,56.372L56.575,56.372ZM29.904,93.237C-3.057,124.657 39.158,168.903 38.871,193.804C38.586,218.553 21.643,228.469 21.152,249.88C20.66,271.34 35.292,288.089 34.679,294.803C34.065,301.517 25.165,302.304 25.323,293.412C23.339,304.674 36.376,303.914 36.137,293.951C35.898,283.997 23.372,271.685 23.757,250.51C24.15,228.952 40.904,222.503 41.839,193.804C42.774,165.106 1.39,126.732 32.797,95.73L29.904,93.237L29.904,93.237ZM45.503,26.859C35.09,26.888 25.391,31.237 20.232,36.896L23.746,39.647C28.019,35.578 35.327,30.318 46.893,30.706L45.503,26.859ZM319.994,35.77C310.291,35.239 295.849,23.063 262.403,23.326C228.957,23.588 189.59,53.922 162.128,32.187L159.958,34.734C189.42,58.832 229.719,26.378 262.403,26.161C295.086,25.945 307.728,36.593 319.66,37.45C331.592,38.306 334.005,24.624 318.593,26.13C331.916,26.925 329.697,36.3 319.994,35.77ZM26.259,162.245C26.259,162.245 18.266,175.269 17.531,182.669C16.795,190.079 16.334,197.045 22.652,203.361C18.891,196.729 18.669,194.133 19.363,185.141C20.056,176.15 28.069,165.78 28.069,165.78L26.259,162.245L26.259,162.245Z"/>
            </g>
            <g id="border-top" serif:id="border top" transform="matrix(0.239341,0,0,0.144866,4.58044,18.7112)">
                <path d="M32.129,26.046L38.009,24.619C46.689,12.496 71.643,6.206 91.166,28.051L95.005,25.919C78.51,6.168 48.19,2.44 32.129,26.046L32.129,26.046ZM28.007,48.514L27.315,44.128C-0.805,32.442 18.486,4.557 36.098,15.768L39.442,13.015C15.586,-3.636 -10.584,34.663 28.007,48.514ZM101.293,32.205L98.381,34.102C143.465,72.806 167.321,-4.158 212.669,27.112C167.796,-8.969 143.506,66.665 101.293,32.205L101.293,32.205ZM69.447,41.489L70.055,45.241C93.014,42.017 119.849,3.868 151.679,28.418L154.38,26.121C120.679,-2.201 89.595,38.255 69.447,41.489L69.447,41.489ZM46.522,19.164L43.647,21.675C49.58,27.679 49.709,33.831 50.562,43.593L54.831,42.826C54.305,34.076 53.345,25.602 46.522,19.164L46.522,19.164L46.522,19.164ZM53.73,26.936L54.68,30.56C62.76,33.159 65.389,40.041 63.289,52.76L67.019,52.557C69.223,39.206 67.357,29.825 53.73,26.936L53.73,26.936ZM30.109,36.913C28.13,44.222 29.298,60.71 47.969,60.798L48.655,57.041C33.468,56.453 32.574,43.57 35.542,34.553L30.109,36.913L30.109,36.913ZM14.435,43.024C-7.503,83.449 75.62,94.618 31.909,156.076L33.242,159.706C82.289,96.429 -0.59,80.554 18.07,45.914L14.435,43.024L14.435,43.024L14.435,43.024ZM60.945,43.297C53.85,45.823 44.713,46.537 37.197,46.323L37.906,49.601C43.566,50.338 56.427,48.673 61.323,46.926L60.945,43.297ZM50.955,51.315C50.846,63.443 51.634,75.345 36.302,88.072L38.584,91.16C54.048,79.243 54.904,68.279 54.794,50.7L50.955,51.315ZM56.575,56.372L56.828,60.359C82.688,53.405 84.097,67.322 79.592,72.068C75.087,76.815 64.758,73.121 66.164,61.032L62.561,61.246C60.275,75.792 74.794,82.981 82.875,75.191C90.913,67.442 84.935,48.223 56.575,56.372L56.575,56.372ZM29.904,93.237C-3.057,124.657 39.158,168.903 38.871,193.804C38.586,218.553 21.643,228.469 21.152,249.88C20.66,271.34 35.292,288.089 34.679,294.803C34.065,301.517 25.165,302.304 25.323,293.412C23.339,304.674 36.376,303.914 36.137,293.951C35.898,283.997 23.372,271.685 23.757,250.51C24.15,228.952 40.904,222.503 41.839,193.804C42.774,165.106 1.39,126.732 32.797,95.73L29.904,93.237L29.904,93.237ZM45.503,26.859C35.09,26.888 25.391,31.237 20.232,36.896L23.746,39.647C28.019,35.578 35.327,30.318 46.893,30.706L45.503,26.859ZM319.994,35.77C310.291,35.239 295.849,23.063 262.403,23.326C228.957,23.588 189.59,53.922 162.128,32.187L159.958,34.734C189.42,58.832 229.719,26.378 262.403,26.161C295.086,25.945 307.728,36.593 319.66,37.45C331.592,38.306 334.005,24.624 318.593,26.13C331.916,26.925 329.697,36.3 319.994,35.77ZM26.259,162.245C26.259,162.245 18.266,175.269 17.531,182.669C16.795,190.079 16.334,197.045 22.652,203.361C18.891,196.729 18.669,194.133 19.363,185.141C20.056,176.15 28.069,165.78 28.069,165.78L26.259,162.245L26.259,162.245Z"/>
            </g>
        </g>
    </g>
</svg>
