<?xml version="1.0" encoding="UTF-8" standalone="no"?>
<!DOCTYPE svg PUBLIC "-//W3C//DTD SVG 1.1//EN" "http://www.w3.org/Graphics/SVG/1.1/DTD/svg11.dtd">
<svg width="90px" height="380px" version="1.1" xmlns="http://www.w3.org/2000/svg" xmlns:xlink="http://www.w3.org/1999/xlink" xml:space="preserve" xmlns:serif="http://www.serif.com/" style="fill-rule:evenodd;clip-rule:evenodd;stroke-linejoin:round;stroke-miterlimit:1.41421;">
    <g id="Layer-0" serif:id="Layer 0" transform="matrix(1,0,0,1,0,3.05176e-05)">
        <rect id="background" x="0" y="0" width="90" height="380" style="fill:white;"/>
        <g id="guy" transform="matrix(0.0723112,0,0,0.0603557,18.6064,306.921)">
            <path d="M365.013,467.444c6.589,0 7.281,-0.458 19.282,15.023c7.025,9.058 22.219,28.382 30.277,39.992l120.696,-0.445c15.039,-0.679 16.699,-2.409 22.923,-6.877c11.376,-8.165 21.991,-21.973 46.903,-61.033c7.524,-11.8 17.132,-26.69 21.348,-33.081c6.403,-10.29 4.063,-11.954 20.971,-15.326c-12.244,30.362 -27.902,66.136 -38.385,82.036c-20.624,31.281 -53.48,64.816 -118.577,85.734c50.639,-8.777 66.676,-24.192 100.41,-51.728c-22.92,47.32 -54.88,90.094 -84.433,133.288c66.426,-70.664 130.117,-148.99 164.145,-240.95c5.895,-18.023 12.589,-42.733 11.802,-43.516c-12.512,14.013 -27.725,29.566 -60.006,30.312c-48.84,1.127 -86.451,-13.78 -121.723,-40.438c-3.713,2.709 -8.231,5.074 -8.313,10.606c-0.076,5.191 5.62,10.915 16.763,17.208c18.3,10.334 65.264,22.544 86.693,22.544c2.712,0 4.926,0.256 4.926,0.581c0,0.328 -12.592,16.337 -27.984,35.546c-23.628,29.481 -28.619,35.127 -32.023,36.298c-7.897,2.722 -52.025,0.925 -75.744,-3.078c-11.373,-1.92 -16.456,-4.029 -22.544,-9.375c-11.032,-11.259 -19.421,-25.161 -30.687,-35.887c-12.491,4.714 -25.761,9.614 -46.733,9.854c-16.365,0.183 -31.641,-4.227 -46.732,-9.854c-11.265,10.726 -19.656,24.628 -30.688,35.887c-6.088,5.346 -11.17,7.455 -22.545,9.375c-23.719,4.003 -67.845,5.8 -75.743,3.078c-3.404,-1.171 -8.396,-6.817 -32.022,-36.298c-15.394,-19.209 -27.984,-35.218 -27.984,-35.546c0,-0.325 2.213,-0.581 4.926,-0.581c21.427,0 68.393,-12.21 86.691,-22.544c11.144,-6.293 16.839,-12.017 16.764,-17.208c-0.081,-5.532 -4.598,-7.897 -8.314,-10.606c-35.271,26.658 -72.882,41.565 -121.723,40.438c-32.28,-0.746 -47.492,-16.299 -60.006,-30.312c-0.784,0.783 5.907,25.493 11.803,43.516c34.027,91.96 97.721,170.286 164.144,240.95c-29.552,-43.194 -61.51,-85.968 -84.432,-133.288c33.734,27.536 49.772,42.951 100.409,51.728c-65.097,-20.918 -97.951,-54.453 -118.575,-85.734c-10.485,-15.9 -26.14,-51.674 -38.386,-82.036c16.909,3.372 14.568,5.036 20.972,15.326c4.215,6.391 13.821,21.281 21.348,33.081c24.911,39.06 35.527,52.868 46.903,61.033c6.224,4.468 7.883,6.198 22.922,6.877l120.696,0.445c8.058,-11.61 23.251,-30.934 30.277,-39.992c12.001,-15.481 12.718,-15.023 19.308,-15.023Zm-201.55,-460.923c-42.142,0.421 -80.334,24.205 -99.589,87.786c34.167,-18.089 78.246,-17.712 116.078,-4.721c50.445,17.322 93.598,57.057 130.892,108.825c-4.149,-30.044 -16.638,-61.23 -24.598,-77.351c7.356,1.196 17.73,4.782 22.306,-0.855c4.942,-6.088 1.057,-12.273 -3.832,-17.379c-39.472,-41.233 -92.701,-68.087 -150.255,-70.373c37.183,-1.72 84.044,4.448 125.726,21.109c-34.082,-27.214 -77.14,-47.435 -116.728,-47.041l0,0Zm403.076,0c-39.588,-0.394 -82.649,19.827 -116.73,47.041c41.681,-16.661 88.543,-22.829 125.725,-21.109c-57.553,2.286 -110.781,29.14 -150.255,70.373c-4.888,5.106 -8.772,11.291 -3.83,17.379c4.575,5.637 14.95,2.051 22.304,0.855c-7.96,16.121 -20.448,47.307 -24.597,77.351c37.296,-51.768 80.448,-91.503 130.892,-108.825c37.832,-12.991 81.91,-13.368 116.079,4.721c-19.257,-63.581 -57.446,-87.365 -99.588,-87.786l0,0Zm-378.718,152.308c-18.856,0.186 -34.665,2.985 -46.596,8.177c-23.562,10.253 -38.022,49.592 -59.15,51.658c-18.981,1.856 -29.902,-24.457 -37.941,-38.453c5.021,15.873 13.455,32.197 24.119,43.687c-10.895,6.933 -22.554,13.933 -30.516,24.154c14.139,-9.655 28.281,-19.183 41.635,-17.653c-15.746,8.648 -38.01,20.675 -48.785,40.232c18.739,-18.428 41.384,-35.177 68.661,-33.698c7.88,0.427 10.245,1.079 19.775,5.611c24.081,13.8 50.428,14.142 77.077,13.855l0,-16.319c-18.944,-0.048 -37.853,-2.372 -56.414,-6.089c-7.804,-1.984 -21.237,-8.363 -23.948,-11.358c-1.843,-2.037 -1.819,-2.371 0.547,-7.972c6.141,-14.528 16.107,-26.118 28.601,-33.937c15.281,-9.563 33.453,-11.311 51.043,-10.811c0.056,0.002 0.115,-0.002 0.171,0l0,-10.947c-0.089,-0.003 -0.26,-0.032 -0.342,-0.034c-1.4,-0.038 -2.77,-0.091 -4.139,-0.103c-1.285,-0.009 -2.541,-0.012 -3.798,0l0,0Zm350.56,0c-1.367,0.013 -2.738,0.065 -4.139,0.103c-0.083,0.002 -0.253,0.031 -0.341,0.034l0,10.947c0.056,-0.002 0.113,0.001 0.17,0c17.59,-0.5 35.761,1.248 51.043,10.811c12.494,7.819 22.462,19.408 28.6,33.937c2.368,5.601 2.39,5.935 0.549,7.972c-2.712,2.995 -16.144,9.374 -23.949,11.358c-18.562,3.717 -37.469,6.041 -56.413,6.089l0,16.319c26.648,0.286 52.994,-0.055 77.076,-13.856c9.529,-4.532 11.894,-5.183 19.774,-5.61c27.278,-1.479 49.923,15.27 68.662,33.698c-10.776,-19.558 -33.039,-31.584 -48.785,-40.232c13.356,-1.53 27.494,7.998 41.637,17.653c-7.963,-10.221 -19.624,-17.221 -30.517,-24.154c10.663,-11.49 19.096,-27.814 24.117,-43.687c-8.036,13.996 -18.958,40.309 -37.94,38.453c-21.127,-2.066 -35.588,-41.405 -59.152,-51.659c-11.928,-5.191 -27.738,-7.99 -46.594,-8.176c-1.256,-0.012 -2.513,-0.01 -3.798,0l0,0Zm-330.136,1.642l0,10.64c28.484,4.513 61.087,20.721 68.593,35.819c-22.189,-15.43 -47.879,-27.916 -75.299,-27.506c-17.8,0.266 -40.044,4.817 -57.405,14.437c-8.763,4.856 -21.147,15.749 -21.348,19.124c-0.793,13.26 58.586,20.52 79.917,19.603c24.982,-1.064 50.158,-2.236 72.39,-13.137c-12.66,17.159 -42.586,19.67 -66.848,20.39l0,16.25c38.067,-2.154 84.84,-19.392 84.672,-41.703c-0.256,-34.164 -57.725,-49.366 -84.672,-53.917Zm313.509,0c-26.946,4.551 -84.414,19.753 -84.67,53.917c-0.167,22.311 46.604,39.549 84.67,41.703l0,-16.25c-24.262,-0.72 -54.188,-3.231 -66.846,-20.39c22.231,10.901 47.405,12.073 72.39,13.137c21.332,0.917 80.707,-6.343 79.918,-19.603c-0.202,-3.375 -12.589,-14.268 -21.351,-19.124c-17.359,-9.62 -39.603,-14.171 -57.405,-14.437c-27.419,-0.41 -53.108,12.076 -75.298,27.506c7.505,-15.098 40.109,-31.306 68.592,-35.819l0,-10.64l0,0Zm-199.176,17.687c-0.115,66.399 -10.459,112.717 -52.548,163.667c-9.336,11.301 -20.404,23.574 -20.903,39.001c-0.375,11.597 5.052,22.092 12.042,32.158c-4.083,-9.886 -6.792,-19.55 -5.644,-30.311c1.007,-9.447 7.642,-16.049 26.992,-35.101c18.616,-18.329 22.12,-22.699 25.488,-19.055c1.489,1.61 1.267,10.906 -0.822,27.779c-3.008,24.303 -1.966,40.952 3.216,51.213c5.322,10.537 19.331,19.141 38.384,23.605c4.111,0.963 10.028,1.232 16.217,1.232c6.188,0 12.106,-0.269 16.217,-1.232c19.051,-4.464 33.061,-13.068 38.384,-23.605c5.182,-10.261 6.224,-26.91 3.215,-51.213c-2.087,-16.873 -2.312,-26.169 -0.821,-27.779c3.369,-3.644 6.873,0.726 25.487,19.055c19.351,19.052 25.985,25.654 26.992,35.101c1.15,10.761 -1.559,20.425 -5.642,30.311c6.991,-10.066 12.415,-20.561 12.043,-32.158c-0.499,-15.427 -11.569,-27.7 -20.906,-39.001c-42.088,-50.95 -52.432,-97.268 -52.546,-163.667c-7.293,34.87 -6.267,86.997 -4.929,131.918c0.847,28.355 3.095,46.937 6.091,64.113c2.839,16.28 2.425,28.666 -3.284,33.32c-10.82,8.822 -25.928,11.996 -40.301,12.008c-14.373,0.013 -29.474,-3.151 -40.301,-12.008c-5.702,-4.663 -6.123,-17.04 -3.284,-33.32c2.995,-17.176 5.244,-35.758 6.09,-64.113c1.339,-44.921 2.365,-97.048 -4.927,-131.918l0,0Zm-35.408,233.046c-1.563,0.053 -3.031,0.277 -4.345,0.685c-2.475,0.767 -2.692,4.629 0.411,8.724c3.534,4.199 7.309,6.201 15.463,8.209c7.98,1.967 12.378,2.037 12.898,-0.511c1.961,-9.631 -13.487,-17.48 -24.427,-17.107l0,0Zm155.661,0c-10.941,-0.373 -26.39,7.476 -24.426,17.107c0.518,2.548 4.916,2.478 12.895,0.511c8.155,-2.008 11.928,-4.01 15.465,-8.209c3.104,-4.095 2.886,-7.957 0.41,-8.724c-1.313,-0.408 -2.781,-0.632 -4.344,-0.685Zm-164.214,115.704c-1.782,1.619 -4.512,3.135 -3.113,5.336c1.522,2.393 16.521,6.068 37.7,7.082c34.427,1.648 69.162,2.276 103.59,0c21.171,-1.402 36.181,-4.689 37.703,-7.082c1.399,-2.201 -1.332,-3.717 -3.113,-5.336l-172.767,0l0,0Zm43.346,65.614c13.184,15.478 20.731,23.542 20.663,35.341c-0.126,22.125 -9.711,24.752 -8.724,59.973c0.793,28.281 5.374,46.711 8.006,64.658c6.263,42.71 13.575,43.379 23.092,43.379c9.516,0 16.829,-0.669 23.093,-43.379c2.631,-17.947 7.212,-36.377 8.005,-64.658c0.988,-35.221 -8.598,-37.848 -8.724,-59.973c-0.067,-11.799 7.479,-19.863 20.665,-35.341l-86.076,0Z" style="fill-rule:nonzero;"/>
        </g>
        <g transform="matrix(1,0,0,1,6.8924,44.7165)">
            <path d="M27.783,202.973c-0.326,0 -0.684,-0.052 -1.074,-0.156l-0.01,2.334c0,0.143 -0.045,0.26 -0.134,0.351c-0.09,0.092 -0.205,0.137 -0.345,0.137c-0.14,0 -0.254,-0.045 -0.344,-0.137c-0.089,-0.091 -0.134,-0.208 -0.134,-0.351l0.015,-1.953l0,-1.949c-0.01,-0.712 -0.035,-1.362 -0.074,-1.948l-0.073,-0.991c0,-0.231 0.042,-0.426 0.127,-0.586c0.098,-0.192 0.239,-0.288 0.425,-0.288c0.127,0 0.233,0.045 0.32,0.134c0.086,0.09 0.129,0.2 0.129,0.33c0,0.029 -0.005,0.083 -0.015,0.161c-0.016,0.101 -0.027,0.194 -0.034,0.278c0.28,-0.192 0.55,-0.336 0.811,-0.432c0.26,-0.096 0.509,-0.144 0.747,-0.144c0.667,0 1.155,0.296 1.465,0.889c0.244,0.469 0.366,1.089 0.366,1.86c0,0.703 -0.189,1.283 -0.567,1.738c-0.4,0.482 -0.934,0.723 -1.601,0.723Zm0.337,-4.233c-0.3,0 -0.57,0.066 -0.811,0.2c-0.172,0.094 -0.39,0.267 -0.654,0.517c0.042,0.739 0.063,1.516 0.063,2.33c0.355,0.136 0.71,0.205 1.065,0.205c0.407,0 0.718,-0.152 0.933,-0.454c0.185,-0.264 0.278,-0.606 0.278,-1.026c0,-0.592 -0.073,-1.036 -0.217,-1.33c-0.145,-0.295 -0.364,-0.442 -0.657,-0.442Z" style="fill-rule:nonzero;"/>
            <path d="M34.868,203.124c-0.062,0 -0.174,-0.071 -0.337,-0.214c-0.147,-0.134 -0.256,-0.253 -0.327,-0.357c-0.313,0.169 -0.588,0.297 -0.825,0.383c-0.238,0.087 -0.437,0.13 -0.596,0.13c-0.762,0 -1.317,-0.215 -1.665,-0.645c-0.329,-0.403 -0.493,-1.022 -0.493,-1.855c0,-0.788 0.271,-1.462 0.813,-2.022c0.542,-0.56 1.189,-0.839 1.941,-0.839c0.283,0 0.6,0.073 0.952,0.219c0.442,0.183 0.664,0.402 0.664,0.659c0,0.088 -0.033,0.166 -0.098,0.235c-0.032,0.124 -0.058,0.327 -0.076,0.61c-0.017,0.283 -0.028,0.646 -0.031,1.089c-0.004,0.404 0.024,0.723 0.083,0.957c0.032,0.143 0.135,0.43 0.307,0.859c0.023,0.059 0.061,0.145 0.113,0.259l0.029,0.083c0,0.13 -0.046,0.238 -0.137,0.323c-0.091,0.084 -0.197,0.126 -0.317,0.126Zm-1.016,-3.393c0,-0.14 0.009,-0.292 0.027,-0.457c0.018,-0.164 0.045,-0.339 0.081,-0.525c-0.121,-0.061 -0.224,-0.107 -0.31,-0.136c-0.087,-0.03 -0.156,-0.044 -0.208,-0.044c-0.504,0 -0.94,0.206 -1.306,0.617c-0.366,0.412 -0.549,0.887 -0.549,1.424c0,0.534 0.094,0.934 0.283,1.201c0.189,0.267 0.472,0.4 0.849,0.4c0.313,0 0.578,-0.057 0.796,-0.171c0.118,-0.061 0.282,-0.185 0.493,-0.371c-0.104,-0.862 -0.156,-1.508 -0.156,-1.938Z" style="fill-rule:nonzero;"/>
            <path d="M39.438,198.642c-0.068,0 -0.149,-0.003 -0.242,-0.01c-0.092,-0.006 -0.173,-0.009 -0.241,-0.009c-0.075,0 -0.296,0.024 -0.664,0.073l0.092,2.885l0.005,0.215l0.005,0.249c0.013,0.713 -0.158,1.07 -0.512,1.07c-0.131,0 -0.244,-0.043 -0.34,-0.127c-0.096,-0.085 -0.144,-0.191 -0.144,-0.318c0,-0.123 0.005,-0.309 0.015,-0.556c0.01,-0.248 0.014,-0.433 0.014,-0.557l-0.097,-2.851c-0.238,-0.01 -0.599,-0.038 -1.084,-0.083c-0.29,-0.04 -0.435,-0.201 -0.435,-0.484c0,-0.143 0.044,-0.262 0.132,-0.356c0.088,-0.095 0.2,-0.142 0.337,-0.142l1.025,0.083c0,-0.166 -0.007,-0.388 -0.022,-0.666c-0.014,-0.279 -0.022,-0.48 -0.022,-0.603c0,-0.137 0.048,-0.25 0.142,-0.34c0.094,-0.089 0.21,-0.134 0.347,-0.134c0.293,0 0.464,0.239 0.512,0.718c0.01,0.12 0.015,0.265 0.015,0.434l-0.01,0.283l-0.005,0.303c0.404,-0.052 0.635,-0.078 0.694,-0.078c0.338,0 0.56,0.016 0.664,0.049c0.198,0.065 0.298,0.218 0.298,0.459c0,0.143 -0.045,0.261 -0.135,0.354c-0.089,0.093 -0.204,0.139 -0.344,0.139Z" style="fill-rule:nonzero;"/>
            <path d="M43.091,203.11c-0.668,0 -1.224,-0.202 -1.67,-0.606c-0.469,-0.423 -0.704,-0.981 -0.704,-1.674c0,-0.661 0.22,-1.343 0.66,-2.046c0.488,-0.782 1.038,-1.172 1.65,-1.172c0.319,0 0.675,0.075 1.069,0.224c0.498,0.192 0.747,0.427 0.747,0.704c0,0.123 -0.04,0.233 -0.122,0.329c-0.081,0.096 -0.182,0.144 -0.302,0.144c-0.095,0 -0.177,-0.028 -0.247,-0.085c-0.07,-0.057 -0.137,-0.113 -0.203,-0.169c-0.192,-0.153 -0.506,-0.229 -0.942,-0.229c-0.332,0 -0.661,0.296 -0.986,0.888c-0.297,0.544 -0.445,1.014 -0.445,1.412c0,0.429 0.147,0.768 0.44,1.015c0.273,0.231 0.625,0.347 1.055,0.347c0.195,0 0.403,-0.052 0.625,-0.156l0.566,-0.303c0.098,-0.052 0.168,-0.078 0.21,-0.078c0.12,0 0.224,0.048 0.312,0.144c0.088,0.096 0.132,0.206 0.132,0.329c0,0.238 -0.25,0.467 -0.752,0.689c-0.439,0.195 -0.804,0.293 -1.093,0.293Z" style="fill-rule:nonzero;"/>
            <path d="M50.107,203.105c-0.231,0 -0.382,-0.124 -0.454,-0.371c-0.075,-0.267 -0.143,-0.646 -0.205,-1.138c-0.059,-0.472 -0.088,-0.859 -0.088,-1.162c0,-0.085 0.004,-0.213 0.012,-0.386c0.008,-0.172 0.012,-0.301 0.012,-0.385c0,-0.612 -0.153,-0.918 -0.459,-0.918c-0.413,0 -0.782,0.187 -1.108,0.561c-0.166,0.192 -0.394,0.558 -0.684,1.099c0,1.24 -0.052,1.974 -0.156,2.202c-0.091,0.202 -0.233,0.303 -0.425,0.303c-0.133,0 -0.25,-0.046 -0.351,-0.137c-0.101,-0.091 -0.152,-0.202 -0.152,-0.332c0,-0.046 0.015,-0.117 0.044,-0.215c0.026,-0.081 0.044,-0.319 0.054,-0.713l0.015,-0.723l0.014,-3.588c0.023,-0.404 0.035,-0.676 0.035,-0.816c0,-0.166 -0.016,-0.323 -0.047,-0.471c-0.031,-0.148 -0.046,-0.302 -0.046,-0.461c0,-0.137 0.047,-0.25 0.141,-0.34c0.095,-0.089 0.21,-0.134 0.347,-0.134c0.267,0 0.423,0.143 0.469,0.43c0.052,0.315 0.078,0.6 0.078,0.854c0,0.342 -0.011,0.698 -0.034,1.069c-0.02,0.355 -0.028,0.712 -0.025,1.07l0.005,0.429c0.267,-0.358 0.553,-0.625 0.857,-0.803c0.305,-0.177 0.628,-0.266 0.969,-0.266c0.541,0 0.912,0.176 1.114,0.527c0.143,0.248 0.224,0.665 0.244,1.25l0.039,0.933l0.098,1.016c0.045,0.381 0.101,0.716 0.166,1.006c0.013,0.055 0.019,0.102 0.019,0.141c0,0.134 -0.049,0.245 -0.146,0.335c-0.098,0.089 -0.215,0.134 -0.352,0.134Z" style="fill-rule:nonzero;"/>
        </g>
        <g transform="matrix(1,0,0,1,-3.34789,12.8599)">
            <path d="M28.79,27.906c-0.032,0.57 -0.259,0.855 -0.683,0.855c-0.392,0 -0.588,-0.226 -0.588,-0.677c0,-0.086 -0.007,-0.246 -0.021,-0.478l-0.02,-0.575c-0.72,0.087 -1.297,0.29 -1.73,0.609c-0.405,0.296 -0.743,0.743 -1.011,1.34l0.013,3.746c0,0.46 -0.225,0.69 -0.677,0.69c-0.401,0 -0.601,-0.23 -0.601,-0.69l0,-4.799c0,-0.15 0.006,-0.376 0.017,-0.677c0.011,-0.301 0.017,-0.526 0.017,-0.677c0,-0.46 0.201,-0.69 0.602,-0.69c0.446,0 0.672,0.378 0.676,1.135c0.875,-0.843 1.846,-1.265 2.913,-1.265c0.369,0 0.644,0.139 0.827,0.417c0.182,0.278 0.273,0.697 0.273,1.258c0,0.237 -0.002,0.396 -0.007,0.478Z" style="fill-rule:nonzero;"/>
            <path d="M35.838,29.971l0,2.529c0,0.424 -0.207,0.636 -0.622,0.636c-0.483,0 -0.725,-0.33 -0.725,-0.991c0,-0.082 0.005,-0.198 0.014,-0.349c0.009,-0.15 0.014,-0.253 0.014,-0.307l-0.007,-1.552l-3.015,-0.075c-0.624,0 -1.057,-0.021 -1.299,-0.062c-0.414,-0.068 -0.622,-0.23 -0.622,-0.485c0,-0.205 0.126,-0.465 0.376,-0.78l0.588,-0.697l3.364,-4.908c0.305,-0.424 0.692,-0.636 1.162,-0.636c0.515,0 0.772,0.223 0.772,0.67l0,5.681c0.078,-0.005 0.171,-0.007 0.28,-0.007c0.839,0 1.258,0.226 1.258,0.677c0,0.328 -0.173,0.535 -0.519,0.622c-0.155,0.041 -0.495,0.052 -1.019,0.034Zm-1.326,-5.783c-1.217,1.941 -2.167,3.395 -2.851,4.361l2.851,0.068l0,-4.429Z" style="fill-rule:nonzero;"/>
            <path d="M45.026,27.093l-0.998,0.937l-1.217,1.209l2.228,2.913c0.114,0.145 0.171,0.289 0.171,0.43c0,0.178 -0.068,0.335 -0.205,0.472c-0.137,0.137 -0.292,0.205 -0.465,0.205c-0.173,0 -0.33,-0.084 -0.471,-0.253c-0.42,-0.488 -1.158,-1.426 -2.215,-2.816l-1.333,1.374c-0.269,0.241 -0.661,0.617 -1.176,1.128c-0.146,0.164 -0.303,0.246 -0.472,0.246c-0.173,0 -0.327,-0.069 -0.461,-0.205c-0.135,-0.137 -0.202,-0.294 -0.202,-0.472c0,-0.141 0.057,-0.285 0.171,-0.431c0.128,-0.168 0.326,-0.371 0.595,-0.608c0.314,-0.278 0.522,-0.47 0.622,-0.574l1.456,-1.525l-0.896,-1.292c-0.36,-0.515 -0.674,-0.891 -0.943,-1.128c-0.173,-0.155 -0.26,-0.323 -0.26,-0.506c0,-0.182 0.065,-0.344 0.195,-0.485c0.13,-0.141 0.279,-0.212 0.448,-0.212c0.269,0 0.674,0.351 1.217,1.053l1.182,1.634l1.34,-1.231c0.556,-0.524 0.932,-0.934 1.128,-1.23c0.146,-0.214 0.319,-0.321 0.52,-0.321c0.177,0 0.335,0.066 0.471,0.198c0.137,0.132 0.205,0.285 0.205,0.458c0,0.25 -0.212,0.594 -0.635,1.032Z" style="fill-rule:nonzero;"/>
            <path d="M56.011,23.326c-0.068,0.192 -0.103,0.472 -0.103,0.841c0,0.137 0.005,0.34 0.014,0.609c0.009,0.268 0.014,0.471 0.014,0.608c0,0.456 -0.04,1.135 -0.12,2.037c-0.08,0.902 -0.119,1.581 -0.119,2.037c0,0.347 0.025,0.866 0.075,1.559c0.05,0.693 0.075,1.214 0.075,1.565c0,0.187 -0.063,0.344 -0.188,0.472c-0.125,0.128 -0.281,0.191 -0.468,0.191c-0.183,0 -0.338,-0.063 -0.465,-0.191c-0.128,-0.128 -0.192,-0.285 -0.192,-0.472c0,-0.351 -0.025,-0.872 -0.075,-1.565c-0.05,-0.693 -0.075,-1.212 -0.075,-1.559c0,-0.332 0.011,-0.67 0.034,-1.011c-0.779,0.013 -1.743,0.129 -2.891,0.348l-2.871,0.561c0,0.41 -0.042,0.992 -0.124,1.746c-0.082,0.755 -0.123,1.339 -0.123,1.754c0,0.187 -0.062,0.345 -0.188,0.475c-0.125,0.13 -0.281,0.195 -0.468,0.195c-0.187,0 -0.343,-0.065 -0.468,-0.195c-0.125,-0.13 -0.188,-0.288 -0.188,-0.475c0,-0.483 0.04,-1.205 0.12,-2.164c0.079,-0.959 0.119,-1.68 0.119,-2.163c0,-0.251 -0.009,-0.629 -0.027,-1.135c-0.018,-0.506 -0.028,-0.887 -0.028,-1.142c0,-0.36 0.023,-0.901 0.069,-1.623c0.045,-0.723 0.068,-1.264 0.068,-1.624c0,-0.191 0.063,-0.351 0.188,-0.478c0.126,-0.128 0.282,-0.192 0.468,-0.192c0.187,0 0.343,0.064 0.469,0.192c0.125,0.127 0.188,0.287 0.188,0.478c0,0.365 -0.024,0.91 -0.072,1.637c-0.048,0.727 -0.072,1.273 -0.072,1.638l0.041,1.729l2.933,-0.554c1.171,-0.218 2.158,-0.332 2.96,-0.341c0.05,-0.652 0.075,-1.634 0.075,-2.947c0,-0.346 0.057,-0.697 0.171,-1.053c0.15,-0.487 0.362,-0.731 0.636,-0.731c0.173,0 0.328,0.063 0.464,0.188c0.137,0.125 0.205,0.284 0.205,0.475c0,0.068 -0.02,0.162 -0.061,0.28Z" style="fill-rule:nonzero;"/>
            <path d="M63.401,29.971l0,2.529c0,0.424 -0.208,0.636 -0.622,0.636c-0.484,0 -0.725,-0.33 -0.725,-0.991c0,-0.082 0.004,-0.198 0.014,-0.349c0.009,-0.15 0.013,-0.253 0.013,-0.307l-0.007,-1.552l-3.014,-0.075c-0.625,0 -1.057,-0.021 -1.299,-0.062c-0.415,-0.068 -0.622,-0.23 -0.622,-0.485c0,-0.205 0.125,-0.465 0.376,-0.78l0.588,-0.697l3.363,-4.908c0.305,-0.424 0.693,-0.636 1.162,-0.636c0.515,0 0.773,0.223 0.773,0.67l0,5.681c0.077,-0.005 0.171,-0.007 0.28,-0.007c0.838,0 1.258,0.226 1.258,0.677c0,0.328 -0.173,0.535 -0.52,0.622c-0.155,0.041 -0.494,0.052 -1.018,0.034Zm-1.327,-5.783c-1.216,1.941 -2.167,3.395 -2.85,4.361l2.85,0.068l0,-4.429Z" style="fill-rule:nonzero;"/>
            <path d="M72.588,27.093l-0.998,0.937l-1.217,1.209l2.229,2.913c0.114,0.145 0.171,0.289 0.171,0.43c0,0.178 -0.069,0.335 -0.205,0.472c-0.137,0.137 -0.292,0.205 -0.465,0.205c-0.173,0 -0.331,-0.084 -0.472,-0.253c-0.419,-0.488 -1.157,-1.426 -2.215,-2.816l-1.333,1.374c-0.269,0.241 -0.661,0.617 -1.176,1.128c-0.145,0.164 -0.303,0.246 -0.471,0.246c-0.173,0 -0.327,-0.069 -0.462,-0.205c-0.134,-0.137 -0.201,-0.294 -0.201,-0.472c0,-0.141 0.057,-0.285 0.171,-0.431c0.127,-0.168 0.325,-0.371 0.594,-0.608c0.315,-0.278 0.522,-0.47 0.622,-0.574l1.456,-1.525l-0.895,-1.292c-0.36,-0.515 -0.675,-0.891 -0.943,-1.128c-0.174,-0.155 -0.26,-0.323 -0.26,-0.506c0,-0.182 0.065,-0.344 0.195,-0.485c0.13,-0.141 0.279,-0.212 0.447,-0.212c0.269,0 0.675,0.351 1.217,1.053l1.183,1.634l1.34,-1.231c0.556,-0.524 0.932,-0.934 1.128,-1.23c0.145,-0.214 0.319,-0.321 0.519,-0.321c0.178,0 0.335,0.066 0.472,0.198c0.137,0.132 0.205,0.285 0.205,0.458c0,0.25 -0.212,0.594 -0.636,1.032Z" style="fill-rule:nonzero;"/>
        </g>
        <g transform="matrix(1,0,0,1,16.4455,89.4014)">
            <path d="M15.971,61.267c0,0.092 -0.081,0.224 -0.243,0.399c-0.119,0.12 -0.238,0.239 -0.355,0.359c-0.289,0.328 -0.516,0.797 -0.68,1.406c-0.143,0.532 -0.215,1.054 -0.215,1.567c0,1.323 0.3,2.293 0.899,2.91c0.12,0.094 0.241,0.188 0.363,0.281c0.151,0.12 0.227,0.239 0.227,0.356c0,0.086 -0.034,0.161 -0.102,0.224c-0.068,0.064 -0.146,0.096 -0.234,0.096c-0.078,0 -0.172,-0.03 -0.282,-0.09c-1.101,-0.617 -1.652,-1.906 -1.652,-3.867c0,-0.706 0.142,-1.421 0.426,-2.145c0.318,-0.804 0.734,-1.388 1.25,-1.75c0.104,-0.072 0.186,-0.109 0.246,-0.109c0.094,0 0.176,0.037 0.246,0.111c0.07,0.075 0.106,0.159 0.106,0.252Z" style="fill-rule:nonzero;"/>
            <path d="M18.385,67.314c-0.261,0 -0.547,-0.041 -0.86,-0.125l-0.008,1.867c0,0.115 -0.035,0.209 -0.107,0.282c-0.072,0.073 -0.163,0.109 -0.275,0.109c-0.112,0 -0.204,-0.036 -0.276,-0.109c-0.071,-0.073 -0.107,-0.167 -0.107,-0.282l0.012,-1.562l0,-1.559c-0.008,-0.57 -0.028,-1.089 -0.059,-1.558l-0.059,-0.793c0,-0.185 0.034,-0.341 0.102,-0.469c0.078,-0.154 0.191,-0.23 0.34,-0.23c0.101,0 0.187,0.035 0.256,0.107c0.069,0.072 0.103,0.159 0.103,0.264c0,0.023 -0.004,0.066 -0.012,0.129c-0.013,0.08 -0.022,0.155 -0.027,0.222c0.224,-0.153 0.44,-0.269 0.649,-0.345c0.208,-0.077 0.407,-0.116 0.597,-0.116c0.534,0 0.925,0.237 1.172,0.711c0.195,0.375 0.293,0.871 0.293,1.489c0,0.562 -0.151,1.026 -0.453,1.39c-0.32,0.386 -0.748,0.578 -1.281,0.578Zm0.269,-3.386c-0.239,0 -0.456,0.053 -0.648,0.16c-0.138,0.075 -0.313,0.213 -0.524,0.414c0.034,0.591 0.051,1.212 0.051,1.863c0.284,0.109 0.568,0.164 0.852,0.164c0.325,0 0.574,-0.121 0.746,-0.363c0.148,-0.211 0.222,-0.485 0.222,-0.82c0,-0.474 -0.058,-0.829 -0.173,-1.065c-0.116,-0.236 -0.291,-0.353 -0.526,-0.353Z" style="fill-rule:nonzero;"/>
            <path d="M24.053,67.435c-0.05,0 -0.14,-0.057 -0.27,-0.172c-0.117,-0.106 -0.204,-0.201 -0.262,-0.285c-0.25,0.136 -0.47,0.238 -0.66,0.307c-0.19,0.069 -0.349,0.103 -0.476,0.103c-0.61,0 -1.054,-0.171 -1.332,-0.515c-0.263,-0.323 -0.395,-0.818 -0.395,-1.485c0,-0.63 0.217,-1.169 0.65,-1.617c0.434,-0.448 0.952,-0.672 1.553,-0.672c0.227,0 0.481,0.059 0.762,0.176c0.354,0.146 0.531,0.322 0.531,0.528c0,0.07 -0.026,0.132 -0.078,0.187c-0.026,0.099 -0.046,0.262 -0.061,0.488c-0.014,0.227 -0.022,0.517 -0.025,0.871c-0.003,0.323 0.02,0.579 0.067,0.766c0.026,0.115 0.108,0.344 0.246,0.688c0.018,0.046 0.048,0.115 0.089,0.207l0.024,0.066c0,0.104 -0.037,0.19 -0.109,0.258c-0.073,0.067 -0.158,0.101 -0.254,0.101Zm-0.813,-2.714c0,-0.112 0.007,-0.234 0.022,-0.366c0.014,-0.131 0.035,-0.271 0.064,-0.42c-0.096,-0.049 -0.179,-0.086 -0.248,-0.109c-0.069,-0.023 -0.124,-0.035 -0.166,-0.035c-0.404,0 -0.752,0.165 -1.045,0.494c-0.293,0.329 -0.439,0.709 -0.439,1.139c0,0.427 0.075,0.747 0.226,0.961c0.151,0.213 0.378,0.32 0.68,0.32c0.25,0 0.462,-0.046 0.637,-0.137c0.093,-0.049 0.225,-0.148 0.394,-0.297c-0.083,-0.69 -0.125,-1.207 -0.125,-1.55Z" style="fill-rule:nonzero;"/>
            <path d="M28.135,64.291c-0.019,0.325 -0.149,0.488 -0.391,0.488c-0.224,0 -0.336,-0.129 -0.336,-0.387c0,-0.049 -0.004,-0.14 -0.012,-0.273l-0.011,-0.328c-0.412,0.049 -0.741,0.165 -0.989,0.347c-0.231,0.17 -0.424,0.425 -0.578,0.766l0.008,2.141c0,0.263 -0.129,0.394 -0.387,0.394c-0.229,0 -0.343,-0.131 -0.343,-0.394l0,-2.742c0,-0.086 0.003,-0.215 0.009,-0.387c0.007,-0.172 0.01,-0.301 0.01,-0.387c0,-0.263 0.115,-0.394 0.344,-0.394c0.255,0 0.384,0.216 0.387,0.648c0.5,-0.482 1.054,-0.723 1.664,-0.723c0.211,0 0.368,0.08 0.472,0.239c0.104,0.158 0.157,0.398 0.157,0.718c0,0.136 -0.002,0.227 -0.004,0.274Z" style="fill-rule:nonzero;"/>
            <path d="M31.553,63.849c-0.055,0 -0.12,-0.002 -0.194,-0.007c-0.074,-0.006 -0.138,-0.008 -0.193,-0.008c-0.06,0 -0.237,0.019 -0.531,0.058l0.074,2.309l0.004,0.172l0.004,0.199c0.01,0.57 -0.127,0.856 -0.41,0.856c-0.105,0 -0.195,-0.034 -0.272,-0.102c-0.077,-0.068 -0.115,-0.152 -0.115,-0.254c0,-0.099 0.004,-0.247 0.012,-0.445c0.007,-0.198 0.011,-0.347 0.011,-0.446l-0.078,-2.281c-0.19,-0.008 -0.479,-0.03 -0.867,-0.066c-0.232,-0.031 -0.348,-0.16 -0.348,-0.387c0,-0.115 0.035,-0.21 0.106,-0.285c0.07,-0.076 0.16,-0.113 0.269,-0.113l0.821,0.066c0,-0.133 -0.006,-0.311 -0.018,-0.533c-0.012,-0.223 -0.018,-0.384 -0.018,-0.483c0,-0.109 0.038,-0.199 0.114,-0.271c0.075,-0.072 0.168,-0.107 0.277,-0.107c0.234,0 0.371,0.191 0.41,0.574c0.008,0.096 0.012,0.212 0.012,0.347l-0.008,0.227l-0.004,0.242c0.323,-0.042 0.508,-0.062 0.555,-0.062c0.271,0 0.448,0.013 0.531,0.039c0.159,0.052 0.238,0.174 0.238,0.367c0,0.114 -0.035,0.209 -0.107,0.283c-0.072,0.074 -0.163,0.111 -0.275,0.111Z" style="fill-rule:nonzero;"/>
            <path d="M33.455,62.232c-0.125,0 -0.233,-0.044 -0.324,-0.133c-0.091,-0.088 -0.137,-0.195 -0.137,-0.32c0,-0.125 0.046,-0.232 0.137,-0.32c0.091,-0.089 0.199,-0.133 0.324,-0.133c0.125,0 0.232,0.044 0.322,0.133c0.09,0.088 0.135,0.195 0.135,0.32c0,0.125 -0.045,0.232 -0.135,0.32c-0.09,0.089 -0.197,0.133 -0.322,0.133Zm0.176,3.172c0,0.156 0.004,0.39 0.013,0.701c0.01,0.311 0.014,0.545 0.014,0.701c0,0.115 -0.035,0.209 -0.105,0.282c-0.071,0.073 -0.163,0.109 -0.278,0.109c-0.112,0 -0.204,-0.036 -0.275,-0.109c-0.072,-0.073 -0.108,-0.167 -0.108,-0.282c0,-0.156 -0.004,-0.39 -0.013,-0.701c-0.009,-0.311 -0.014,-0.545 -0.014,-0.701c0,-0.245 0.013,-0.55 0.039,-0.916c0.026,-0.366 0.039,-0.671 0.039,-0.916c0,-0.117 0.036,-0.212 0.108,-0.285c0.071,-0.073 0.163,-0.109 0.275,-0.109c0.112,0 0.204,0.036 0.275,0.109c0.072,0.073 0.108,0.168 0.108,0.285c0,0.245 -0.013,0.55 -0.039,0.916c-0.026,0.366 -0.039,0.671 -0.039,0.916Z" style="fill-rule:nonzero;"/>
            <path d="M38.002,67.435c-0.05,0 -0.14,-0.057 -0.27,-0.172c-0.117,-0.106 -0.204,-0.201 -0.261,-0.285c-0.25,0.136 -0.47,0.238 -0.661,0.307c-0.19,0.069 -0.349,0.103 -0.476,0.103c-0.61,0 -1.054,-0.171 -1.332,-0.515c-0.263,-0.323 -0.395,-0.818 -0.395,-1.485c0,-0.63 0.217,-1.169 0.651,-1.617c0.433,-0.448 0.951,-0.672 1.552,-0.672c0.227,0 0.481,0.059 0.762,0.176c0.354,0.146 0.531,0.322 0.531,0.528c0,0.07 -0.026,0.132 -0.078,0.187c-0.026,0.099 -0.046,0.262 -0.06,0.488c-0.015,0.227 -0.023,0.517 -0.026,0.871c-0.002,0.323 0.02,0.579 0.067,0.766c0.026,0.115 0.108,0.344 0.246,0.688c0.018,0.046 0.048,0.115 0.09,0.207l0.023,0.066c0,0.104 -0.036,0.19 -0.109,0.258c-0.073,0.067 -0.158,0.101 -0.254,0.101Zm-0.813,-2.714c0,-0.112 0.007,-0.234 0.022,-0.366c0.014,-0.131 0.036,-0.271 0.064,-0.42c-0.096,-0.049 -0.179,-0.086 -0.248,-0.109c-0.069,-0.023 -0.124,-0.035 -0.166,-0.035c-0.403,0 -0.752,0.165 -1.045,0.494c-0.293,0.329 -0.439,0.709 -0.439,1.139c0,0.427 0.075,0.747 0.226,0.961c0.151,0.213 0.378,0.32 0.68,0.32c0.25,0 0.462,-0.046 0.637,-0.137c0.094,-0.049 0.225,-0.148 0.394,-0.297c-0.083,-0.69 -0.125,-1.207 -0.125,-1.55Z" style="fill-rule:nonzero;"/>
            <path d="M40.037,64.107l-0.059,1.942c0,0.205 -0.01,0.507 -0.031,0.906c-0.026,0.26 -0.154,0.391 -0.383,0.391c-0.255,0 -0.382,-0.133 -0.382,-0.399c0,-0.315 0.014,-0.788 0.042,-1.42c0.029,-0.631 0.043,-1.105 0.043,-1.42c0,-0.411 0.007,-0.882 0.02,-1.412c0.013,-0.53 0.02,-1.001 0.02,-1.412c0,-0.26 0.127,-0.391 0.382,-0.391c0.258,0 0.387,0.131 0.387,0.391c0,0.411 -0.006,0.882 -0.019,1.412c-0.014,0.53 -0.02,1.001 -0.02,1.412Z" style="fill-rule:nonzero;"/>
            <path d="M43.412,64.908c0,1.961 -0.552,3.25 -1.656,3.867c-0.107,0.06 -0.199,0.09 -0.278,0.09c-0.088,0 -0.166,-0.032 -0.234,-0.096c-0.068,-0.063 -0.102,-0.138 -0.102,-0.224c0,-0.117 0.076,-0.236 0.227,-0.356c0.12,-0.093 0.241,-0.187 0.363,-0.281c0.599,-0.617 0.899,-1.587 0.899,-2.91c0,-0.513 -0.072,-1.035 -0.215,-1.567c-0.167,-0.609 -0.393,-1.078 -0.68,-1.406c-0.12,-0.12 -0.238,-0.239 -0.355,-0.359c-0.162,-0.175 -0.242,-0.307 -0.242,-0.399c0,-0.093 0.034,-0.177 0.103,-0.252c0.069,-0.074 0.15,-0.111 0.244,-0.111c0.06,0 0.143,0.037 0.25,0.109c0.516,0.362 0.932,0.946 1.25,1.75c0.284,0.724 0.426,1.439 0.426,2.145Z" style="fill-rule:nonzero;"/>
        </g>
        <g transform="matrix(1,0,0,1,24.6987,1.82044)">
            <path d="M11.115,302.443c-0.302,0.207 -0.737,0.311 -1.303,0.311c-0.143,0 -0.306,-0.023 -0.49,-0.068c-0.22,-0.052 -0.386,-0.121 -0.498,-0.205l-0.029,0c-0.084,0 -0.154,-0.029 -0.211,-0.088c-0.057,-0.058 -0.085,-0.129 -0.085,-0.213c0,-0.206 0.009,-0.513 0.028,-0.922c0.018,-0.409 0.028,-0.716 0.028,-0.921c0,-0.229 -0.005,-0.57 -0.013,-1.024c-0.009,-0.454 -0.014,-0.796 -0.014,-1.024c0,-0.08 0.041,-0.164 0.123,-0.252c0.082,-0.088 0.164,-0.132 0.247,-0.132c0.046,0 0.203,0.066 0.468,0.196c0.301,0.147 0.475,0.228 0.522,0.244c0.554,0.189 1.027,0.48 1.418,0.873c0.459,0.463 0.688,0.971 0.688,1.526c0,0.334 -0.078,0.654 -0.236,0.961c-0.157,0.307 -0.371,0.553 -0.643,0.738Zm-0.615,-3.099c-0.199,-0.131 -0.659,-0.356 -1.38,-0.674l0.015,0.844l0.009,0.84l-0.047,1.6c0.013,0.006 0.034,0.019 0.061,0.038c0.172,0.115 0.389,0.173 0.651,0.173c0.445,0 0.769,-0.068 0.972,-0.205c0.19,-0.129 0.341,-0.302 0.453,-0.52c0.112,-0.218 0.168,-0.445 0.168,-0.681c0,-0.551 -0.3,-1.023 -0.902,-1.415Z" style="fill-rule:nonzero;"/>
            <path d="M15.296,302.344c-0.221,0.103 -0.567,0.196 -1.04,0.278c-0.436,0.076 -0.791,0.114 -1.067,0.114c-0.197,0 -0.338,-0.03 -0.424,-0.091c-0.117,-0.082 -0.176,-0.232 -0.176,-0.451l0.059,-0.97c0.05,-0.894 0.076,-1.886 0.076,-2.976c0,-0.084 0.028,-0.155 0.083,-0.214c0.056,-0.059 0.125,-0.088 0.207,-0.088c0.084,0 0.154,0.029 0.209,0.088c0.056,0.059 0.084,0.13 0.084,0.214c0,1.103 -0.027,2.107 -0.079,3.012l-0.039,0.445c-0.015,0.162 -0.021,0.306 -0.017,0.431c0.51,0.005 1.154,-0.115 1.934,-0.361c0.033,-0.01 0.064,-0.014 0.093,-0.014c0.084,0 0.155,0.033 0.211,0.099c0.049,0.061 0.073,0.13 0.073,0.208c0,0.125 -0.062,0.217 -0.187,0.276Z" style="fill-rule:nonzero;"/>
            <path d="M19.512,299.842c-0.153,0.636 -0.352,1.356 -0.598,2.159c-0.055,0.178 -0.145,0.36 -0.272,0.548c-0.069,0.103 -0.161,0.154 -0.279,0.152c-0.213,-0.004 -0.379,-0.269 -0.498,-0.794c-0.039,-0.168 -0.079,-0.396 -0.12,-0.685l-0.097,-0.654l-0.24,0.56l-0.445,1.21c-0.025,0.074 -0.063,0.131 -0.111,0.17c-0.059,0.113 -0.153,0.172 -0.282,0.175c-0.148,0.006 -0.292,-0.285 -0.43,-0.873c-0.071,-0.302 -0.141,-0.712 -0.211,-1.23l-0.071,-0.44c-0.025,-0.175 -0.038,-0.323 -0.038,-0.442c0,-0.082 0.029,-0.15 0.087,-0.204c0.057,-0.053 0.127,-0.08 0.209,-0.08c0.149,0 0.24,0.081 0.276,0.243c0.025,0.115 0.046,0.258 0.061,0.428l0.044,0.43l0.173,1.316c0.217,-0.602 0.441,-1.295 0.674,-2.08c0.064,-0.217 0.177,-0.325 0.337,-0.325c0.154,0 0.258,0.121 0.313,0.363c0.051,0.228 0.114,0.58 0.191,1.055c0.078,0.492 0.147,0.876 0.208,1.151l0.213,-0.797l0.378,-1.597c0.03,-0.119 0.114,-0.178 0.252,-0.178c0.082,0 0.154,0.028 0.214,0.083c0.061,0.056 0.091,0.123 0.091,0.201c0,0.01 -0.01,0.055 -0.029,0.135Z" style="fill-rule:nonzero;"/>
            <path d="M20.669,298.755c-0.094,0 -0.175,-0.033 -0.243,-0.1c-0.069,-0.066 -0.103,-0.146 -0.103,-0.24c0,-0.094 0.034,-0.174 0.103,-0.24c0.068,-0.067 0.149,-0.1 0.243,-0.1c0.094,0 0.174,0.033 0.242,0.1c0.067,0.066 0.101,0.146 0.101,0.24c0,0.094 -0.034,0.174 -0.101,0.24c-0.068,0.067 -0.148,0.1 -0.242,0.1Zm0.132,2.379c0,0.117 0.003,0.292 0.01,0.526c0.007,0.233 0.01,0.408 0.01,0.525c0,0.086 -0.026,0.157 -0.079,0.211c-0.053,0.055 -0.122,0.082 -0.208,0.082c-0.084,0 -0.153,-0.027 -0.206,-0.082c-0.054,-0.054 -0.081,-0.125 -0.081,-0.211c0,-0.117 -0.003,-0.292 -0.01,-0.525c-0.007,-0.234 -0.01,-0.409 -0.01,-0.526c0,-0.184 0.009,-0.413 0.029,-0.687c0.019,-0.275 0.029,-0.504 0.029,-0.687c0,-0.088 0.027,-0.16 0.081,-0.214c0.053,-0.055 0.122,-0.082 0.206,-0.082c0.084,0 0.153,0.027 0.207,0.082c0.054,0.054 0.08,0.126 0.08,0.214c0,0.183 -0.009,0.412 -0.029,0.687c-0.019,0.274 -0.029,0.503 -0.029,0.687Z" style="fill-rule:nonzero;"/>
            <path d="M24.202,301.201l-0.067,0.984c-0.012,0.391 -0.052,0.71 -0.12,0.958c-0.088,0.317 -0.229,0.55 -0.422,0.701c-0.235,0.181 -0.573,0.272 -1.017,0.272c-0.26,0 -0.477,-0.017 -0.653,-0.053c-0.246,-0.048 -0.369,-0.15 -0.369,-0.304c0,-0.174 0.085,-0.261 0.255,-0.261c0.07,0 0.187,0.017 0.351,0.051c0.164,0.034 0.346,0.05 0.545,0.046c0.375,-0.006 0.634,-0.188 0.776,-0.545c0.094,-0.239 0.144,-0.605 0.15,-1.099c-0.106,0.195 -0.231,0.342 -0.377,0.439c-0.145,0.098 -0.312,0.147 -0.499,0.147c-0.354,0 -0.641,-0.121 -0.863,-0.362c-0.222,-0.241 -0.332,-0.554 -0.332,-0.939c0,-0.527 0.151,-0.952 0.454,-1.274c0.312,-0.332 0.738,-0.498 1.277,-0.498c0.182,0 0.334,0.023 0.457,0.07c0.123,0.047 0.217,0.117 0.281,0.211c0.209,0.006 0.314,0.122 0.314,0.349c0,0.138 -0.021,0.324 -0.062,0.556c-0.045,0.27 -0.071,0.453 -0.079,0.551Zm-0.94,-1.269c-0.371,0 -0.658,0.128 -0.862,0.384c-0.181,0.231 -0.272,0.524 -0.272,0.879c0,0.283 0.054,0.496 0.161,0.639c0.108,0.142 0.269,0.214 0.484,0.214c0.197,0 0.388,-0.112 0.574,-0.334c0.168,-0.205 0.263,-0.408 0.287,-0.61c0.041,-0.211 0.085,-0.542 0.132,-0.993c-0.078,-0.06 -0.16,-0.105 -0.243,-0.135c-0.084,-0.029 -0.171,-0.044 -0.261,-0.044Z" style="fill-rule:nonzero;"/>
            <path d="M27.387,301.201l-0.068,0.984c-0.011,0.391 -0.051,0.71 -0.12,0.958c-0.088,0.317 -0.228,0.55 -0.422,0.701c-0.234,0.181 -0.573,0.272 -1.016,0.272c-0.26,0 -0.478,-0.017 -0.654,-0.053c-0.246,-0.048 -0.369,-0.15 -0.369,-0.304c0,-0.174 0.085,-0.261 0.255,-0.261c0.071,0 0.188,0.017 0.352,0.051c0.164,0.034 0.345,0.05 0.545,0.046c0.375,-0.006 0.633,-0.188 0.776,-0.545c0.094,-0.239 0.144,-0.605 0.149,-1.099c-0.105,0.195 -0.23,0.342 -0.376,0.439c-0.146,0.098 -0.312,0.147 -0.5,0.147c-0.353,0 -0.641,-0.121 -0.862,-0.362c-0.222,-0.241 -0.333,-0.554 -0.333,-0.939c0,-0.527 0.152,-0.952 0.454,-1.274c0.313,-0.332 0.739,-0.498 1.278,-0.498c0.181,0 0.334,0.023 0.457,0.07c0.123,0.047 0.216,0.117 0.281,0.211c0.209,0.006 0.313,0.122 0.313,0.349c0,0.138 -0.02,0.324 -0.061,0.556c-0.045,0.27 -0.071,0.453 -0.079,0.551Zm-0.941,-1.269c-0.371,0 -0.658,0.128 -0.861,0.384c-0.182,0.231 -0.272,0.524 -0.272,0.879c0,0.283 0.053,0.496 0.161,0.639c0.107,0.142 0.268,0.214 0.483,0.214c0.197,0 0.389,-0.112 0.574,-0.334c0.168,-0.205 0.264,-0.408 0.287,-0.61c0.041,-0.211 0.085,-0.542 0.132,-0.993c-0.078,-0.06 -0.159,-0.105 -0.243,-0.135c-0.084,-0.029 -0.171,-0.044 -0.261,-0.044Z" style="fill-rule:nonzero;"/>
            <path d="M28.904,300.161l-0.044,1.456c0,0.154 -0.007,0.381 -0.023,0.68c-0.02,0.195 -0.115,0.293 -0.287,0.293c-0.192,0 -0.287,-0.1 -0.287,-0.299c0,-0.236 0.01,-0.591 0.032,-1.065c0.021,-0.474 0.032,-0.829 0.032,-1.065c0,-0.309 0.005,-0.662 0.015,-1.059c0.01,-0.398 0.014,-0.751 0.014,-1.059c0,-0.195 0.096,-0.293 0.288,-0.293c0.193,0 0.29,0.098 0.29,0.293c0,0.308 -0.005,0.661 -0.015,1.059c-0.01,0.397 -0.015,0.75 -0.015,1.059Z" style="fill-rule:nonzero;"/>
            <path d="M32.221,300.094c-0.174,0.209 -0.397,0.511 -0.668,0.908c-0.315,0.461 -0.545,0.787 -0.692,0.978c0.205,-0.009 0.384,-0.014 0.537,-0.014c0.076,0 0.189,0.014 0.339,0.044c0.151,0.029 0.264,0.044 0.34,0.044c0.086,0 0.156,0.027 0.21,0.083c0.053,0.056 0.08,0.127 0.08,0.212c0,0.088 -0.027,0.16 -0.08,0.214c-0.054,0.055 -0.124,0.082 -0.21,0.082c-0.076,0 -0.189,-0.014 -0.34,-0.044c-0.15,-0.029 -0.263,-0.044 -0.339,-0.044c-0.44,0 -0.857,0.041 -1.251,0.121c-0.041,0.007 -0.078,0.011 -0.109,0.011c-0.189,0 -0.284,-0.083 -0.284,-0.249c0,-0.097 0.049,-0.191 0.146,-0.281c0.51,-0.461 1.065,-1.179 1.664,-2.153c-0.259,0.015 -0.448,0.023 -0.565,0.023c-0.289,0 -0.586,-0.022 -0.891,-0.067c-0.173,-0.026 -0.26,-0.122 -0.26,-0.29c0,-0.086 0.026,-0.158 0.079,-0.216c0.053,-0.057 0.119,-0.086 0.199,-0.086c0.096,0 0.24,0.011 0.434,0.034c0.193,0.022 0.339,0.033 0.439,0.033c0.133,0 0.332,-0.009 0.598,-0.027c0.265,-0.019 0.465,-0.028 0.597,-0.028c0.166,0 0.249,0.068 0.249,0.205c0,0.158 -0.074,0.327 -0.222,0.507Z" style="fill-rule:nonzero;"/>
        </g>
        <g transform="matrix(1,0,0,1,0.148121,77)">
            <path d="M30.975,71.313c-0.667,0 -1.224,-0.202 -1.67,-0.605c-0.469,-0.424 -0.703,-0.982 -0.703,-1.675c0,-0.661 0.22,-1.343 0.659,-2.046c0.488,-0.781 1.038,-1.172 1.65,-1.172c0.319,0 0.676,0.075 1.07,0.225c0.498,0.192 0.747,0.426 0.747,0.703c0,0.123 -0.041,0.233 -0.122,0.329c-0.082,0.096 -0.183,0.144 -0.303,0.144c-0.094,0 -0.177,-0.028 -0.247,-0.085c-0.07,-0.057 -0.137,-0.113 -0.202,-0.169c-0.192,-0.153 -0.506,-0.229 -0.943,-0.229c-0.332,0 -0.66,0.296 -0.986,0.889c-0.296,0.543 -0.444,1.014 -0.444,1.411c0,0.429 0.146,0.768 0.439,1.015c0.274,0.232 0.625,0.347 1.055,0.347c0.195,0 0.404,-0.052 0.625,-0.156l0.566,-0.303c0.098,-0.052 0.168,-0.078 0.21,-0.078c0.121,0 0.225,0.048 0.313,0.144c0.088,0.096 0.132,0.206 0.132,0.33c0,0.237 -0.251,0.467 -0.752,0.688c-0.44,0.195 -0.804,0.293 -1.094,0.293Z" style="fill-rule:nonzero;"/>
            <path d="M37.718,71.328c-0.062,0 -0.174,-0.072 -0.337,-0.215c-0.146,-0.134 -0.255,-0.252 -0.327,-0.357c-0.312,0.17 -0.588,0.297 -0.825,0.384c-0.238,0.086 -0.436,0.129 -0.596,0.129c-0.762,0 -1.317,-0.215 -1.665,-0.644c-0.329,-0.404 -0.493,-1.023 -0.493,-1.856c0,-0.788 0.271,-1.461 0.813,-2.021c0.542,-0.56 1.189,-0.84 1.941,-0.84c0.283,0 0.6,0.073 0.952,0.22c0.443,0.182 0.664,0.402 0.664,0.659c0,0.088 -0.033,0.166 -0.098,0.234c-0.032,0.124 -0.057,0.327 -0.075,0.61c-0.018,0.284 -0.029,0.647 -0.032,1.089c-0.003,0.404 0.024,0.723 0.083,0.957c0.033,0.144 0.135,0.43 0.308,0.86c0.022,0.058 0.06,0.145 0.112,0.258l0.029,0.083c0,0.131 -0.045,0.238 -0.137,0.323c-0.091,0.084 -0.196,0.127 -0.317,0.127Zm-1.016,-3.394c0,-0.14 0.009,-0.292 0.027,-0.456c0.018,-0.165 0.045,-0.34 0.081,-0.525c-0.121,-0.062 -0.224,-0.108 -0.31,-0.137c-0.086,-0.029 -0.156,-0.044 -0.208,-0.044c-0.504,0 -0.94,0.206 -1.306,0.618c-0.366,0.412 -0.549,0.886 -0.549,1.423c0,0.534 0.094,0.934 0.283,1.201c0.189,0.267 0.472,0.401 0.85,0.401c0.312,0 0.577,-0.057 0.796,-0.171c0.117,-0.062 0.281,-0.186 0.493,-0.371c-0.104,-0.863 -0.157,-1.509 -0.157,-1.939Z" style="fill-rule:nonzero;"/>
            <path d="M42.288,66.845c-0.068,0 -0.149,-0.003 -0.241,-0.009c-0.093,-0.007 -0.174,-0.01 -0.242,-0.01c-0.075,0 -0.296,0.024 -0.664,0.073l0.093,2.886l0.005,0.215l0.004,0.249c0.014,0.712 -0.157,1.069 -0.512,1.069c-0.13,0 -0.244,-0.042 -0.34,-0.127c-0.096,-0.085 -0.144,-0.19 -0.144,-0.317c0,-0.124 0.005,-0.31 0.015,-0.557c0.01,-0.247 0.015,-0.433 0.015,-0.557l-0.098,-2.851c-0.238,-0.01 -0.599,-0.038 -1.084,-0.083c-0.29,-0.039 -0.435,-0.2 -0.435,-0.484c0,-0.143 0.044,-0.262 0.132,-0.356c0.088,-0.094 0.201,-0.142 0.337,-0.142l1.026,0.083c0,-0.166 -0.008,-0.388 -0.022,-0.666c-0.015,-0.279 -0.022,-0.48 -0.022,-0.603c0,-0.137 0.047,-0.25 0.141,-0.34c0.095,-0.089 0.21,-0.134 0.347,-0.134c0.293,0 0.464,0.239 0.513,0.718c0.009,0.12 0.014,0.265 0.014,0.434l-0.009,0.284l-0.005,0.302c0.403,-0.052 0.634,-0.078 0.693,-0.078c0.339,0 0.56,0.017 0.664,0.049c0.199,0.065 0.298,0.218 0.298,0.459c0,0.143 -0.045,0.261 -0.134,0.354c-0.09,0.093 -0.205,0.139 -0.345,0.139Z" style="fill-rule:nonzero;"/>
            <path d="M47.547,71.328c-0.062,0 -0.174,-0.072 -0.337,-0.215c-0.146,-0.134 -0.255,-0.252 -0.327,-0.357c-0.312,0.17 -0.587,0.297 -0.825,0.384c-0.238,0.086 -0.436,0.129 -0.596,0.129c-0.761,0 -1.317,-0.215 -1.665,-0.644c-0.329,-0.404 -0.493,-1.023 -0.493,-1.856c0,-0.788 0.271,-1.461 0.813,-2.021c0.542,-0.56 1.189,-0.84 1.941,-0.84c0.283,0 0.601,0.073 0.952,0.22c0.443,0.182 0.664,0.402 0.664,0.659c0,0.088 -0.032,0.166 -0.098,0.234c-0.032,0.124 -0.057,0.327 -0.075,0.61c-0.018,0.284 -0.029,0.647 -0.032,1.089c-0.003,0.404 0.024,0.723 0.083,0.957c0.033,0.144 0.135,0.43 0.308,0.86c0.022,0.058 0.06,0.145 0.112,0.258l0.029,0.083c0,0.131 -0.045,0.238 -0.136,0.323c-0.092,0.084 -0.197,0.127 -0.318,0.127Zm-1.015,-3.394c0,-0.14 0.009,-0.292 0.026,-0.456c0.018,-0.165 0.045,-0.34 0.081,-0.525c-0.12,-0.062 -0.224,-0.108 -0.31,-0.137c-0.086,-0.029 -0.156,-0.044 -0.208,-0.044c-0.504,0 -0.94,0.206 -1.306,0.618c-0.366,0.412 -0.549,0.886 -0.549,1.423c0,0.534 0.094,0.934 0.283,1.201c0.189,0.267 0.472,0.401 0.85,0.401c0.312,0 0.578,-0.057 0.796,-0.171c0.117,-0.062 0.281,-0.186 0.493,-0.371c-0.104,-0.863 -0.156,-1.509 -0.156,-1.939Z" style="fill-rule:nonzero;"/>
            <path d="M50.091,67.168l-0.073,2.426c0,0.257 -0.013,0.635 -0.039,1.133c-0.033,0.326 -0.192,0.488 -0.479,0.488c-0.319,0 -0.478,-0.166 -0.478,-0.498c0,-0.394 0.018,-0.985 0.054,-1.775c0.035,-0.789 0.053,-1.381 0.053,-1.774c0,-0.515 0.008,-1.103 0.025,-1.766c0.016,-0.662 0.024,-1.25 0.024,-1.765c0,-0.325 0.16,-0.488 0.479,-0.488c0.322,0 0.483,0.163 0.483,0.488c0,0.515 -0.008,1.103 -0.024,1.765c-0.017,0.663 -0.025,1.251 -0.025,1.766Z" style="fill-rule:nonzero;"/>
            <path d="M53.421,71.294c-0.547,0 -1.017,-0.202 -1.411,-0.606c-0.439,-0.449 -0.67,-1.053 -0.693,-1.811c-0.02,-0.736 0.166,-1.384 0.556,-1.944c0.456,-0.661 1.091,-0.991 1.905,-0.991c0.651,0 1.144,0.298 1.479,0.894c0.267,0.481 0.396,1.061 0.386,1.738c-0.01,0.722 -0.199,1.339 -0.567,1.85c-0.416,0.58 -0.968,0.87 -1.655,0.87Zm0.293,-4.361c-0.478,-0.003 -0.851,0.225 -1.118,0.684c-0.212,0.368 -0.317,0.788 -0.317,1.26c0,0.472 0.128,0.839 0.385,1.103c0.215,0.218 0.468,0.327 0.757,0.327c0.339,0 0.63,-0.124 0.874,-0.371c0.277,-0.273 0.423,-0.643 0.44,-1.108c0.045,-1.26 -0.295,-1.892 -1.021,-1.895Z" style="fill-rule:nonzero;"/>
            <path d="M60.868,68.901l-0.113,1.641c-0.019,0.651 -0.086,1.183 -0.2,1.596c-0.146,0.528 -0.381,0.917 -0.703,1.167c-0.391,0.303 -0.956,0.454 -1.694,0.454c-0.433,0 -0.796,-0.029 -1.089,-0.088c-0.41,-0.081 -0.616,-0.25 -0.616,-0.507c0,-0.29 0.142,-0.435 0.425,-0.435c0.117,0 0.313,0.029 0.586,0.086c0.274,0.056 0.576,0.082 0.908,0.075c0.625,-0.01 1.057,-0.312 1.294,-0.908c0.157,-0.397 0.24,-1.007 0.249,-1.831c-0.175,0.325 -0.385,0.57 -0.627,0.732c-0.243,0.163 -0.52,0.245 -0.833,0.245c-0.589,0 -1.068,-0.201 -1.438,-0.604c-0.369,-0.402 -0.554,-0.923 -0.554,-1.564c0,-0.879 0.252,-1.587 0.757,-2.124c0.521,-0.554 1.231,-0.831 2.129,-0.831c0.303,0 0.557,0.04 0.762,0.118c0.205,0.078 0.361,0.195 0.468,0.351c0.349,0.01 0.523,0.204 0.523,0.581c0,0.231 -0.034,0.541 -0.103,0.928c-0.075,0.449 -0.118,0.755 -0.131,0.918Zm-1.568,-2.114c-0.618,0 -1.097,0.213 -1.435,0.639c-0.303,0.384 -0.455,0.873 -0.455,1.465c0,0.472 0.09,0.827 0.269,1.065c0.179,0.237 0.448,0.356 0.806,0.356c0.328,0 0.647,-0.185 0.957,-0.557c0.28,-0.341 0.439,-0.68 0.478,-1.015c0.069,-0.352 0.142,-0.904 0.22,-1.655c-0.13,-0.101 -0.265,-0.176 -0.405,-0.225c-0.14,-0.049 -0.285,-0.073 -0.435,-0.073Z" style="fill-rule:nonzero;"/>
        </g>
        <g id="border-bottom" serif:id="border bottom" transform="matrix(-0.239341,0,0,-0.144866,85.4196,280.027)">
            <path d="M32.129,26.046l5.88,-1.427c8.68,-12.123 33.634,-18.413 53.157,3.432l3.839,-2.132c-16.495,-19.751 -46.815,-23.479 -62.876,0.127l0,0Zm-4.122,22.468l-0.692,-4.386c-28.12,-11.686 -8.829,-39.571 8.783,-28.36l3.344,-2.753c-23.856,-16.651 -50.026,21.648 -11.435,35.499Zm73.286,-16.309l-2.912,1.897c45.084,38.704 68.94,-38.26 114.288,-6.99c-44.873,-36.081 -69.163,39.553 -111.376,5.093l0,0Zm-31.846,9.284l0.608,3.752c22.959,-3.224 49.794,-41.373 81.624,-16.823l2.701,-2.297c-33.701,-28.322 -64.785,12.134 -84.933,15.368l0,0Zm-22.925,-22.325l-2.875,2.511c5.933,6.004 6.062,12.156 6.915,21.918l4.269,-0.767c-0.526,-8.75 -1.486,-17.224 -8.309,-23.662l0,0l0,0Zm7.208,7.772l0.95,3.624c8.08,2.599 10.709,9.481 8.609,22.2l3.73,-0.203c2.204,-13.351 0.338,-22.732 -13.289,-25.621l0,0Zm-23.621,9.977c-1.979,7.309 -0.811,23.797 17.86,23.885l0.686,-3.757c-15.187,-0.588 -16.081,-13.471 -13.113,-22.488l-5.433,2.36l0,0Zm-15.674,6.111c-21.938,40.425 61.185,51.594 17.474,113.052l1.333,3.63c49.047,-63.277 -33.832,-79.152 -15.172,-113.792l-3.635,-2.89l0,0l0,0Zm46.51,0.273c-7.095,2.526 -16.232,3.24 -23.748,3.026l0.709,3.278c5.66,0.737 18.521,-0.928 23.417,-2.675l-0.378,-3.629Zm-9.99,8.018c-0.109,12.128 0.679,24.03 -14.653,36.757l2.282,3.088c15.464,-11.917 16.32,-22.881 16.21,-40.46l-3.839,0.615Zm5.62,5.057l0.253,3.987c25.86,-6.954 27.269,6.963 22.764,11.709c-4.505,4.747 -14.834,1.053 -13.428,-11.036l-3.603,0.214c-2.286,14.546 12.233,21.735 20.314,13.945c8.038,-7.749 2.06,-26.968 -26.3,-18.819l0,0Zm-26.671,36.865c-32.961,31.42 9.254,75.666 8.967,100.567c-0.285,24.749 -17.228,34.665 -17.719,56.076c-0.492,21.46 14.14,38.209 13.527,44.923c-0.614,6.714 -9.514,7.501 -9.356,-1.391c-1.984,11.262 11.053,10.502 10.814,0.539c-0.239,-9.954 -12.765,-22.266 -12.38,-43.441c0.393,-21.558 17.147,-28.007 18.082,-56.706c0.935,-28.698 -40.449,-67.072 -9.042,-98.074l-2.893,-2.493l0,0Zm15.599,-66.378c-10.413,0.029 -20.112,4.378 -25.271,10.037l3.514,2.751c4.273,-4.069 11.581,-9.329 23.147,-8.941l-1.39,-3.847Zm274.491,8.911c-9.703,-0.531 -24.145,-12.707 -57.591,-12.444c-33.446,0.262 -72.813,30.596 -100.275,8.861l-2.17,2.547c29.462,24.098 69.761,-8.356 102.445,-8.573c32.683,-0.216 45.325,10.432 57.257,11.289c11.932,0.856 14.345,-12.826 -1.067,-11.32c13.323,0.795 11.104,10.17 1.401,9.64Zm-293.735,126.475c0,0 -7.993,13.024 -8.728,20.424c-0.736,7.41 -1.197,14.376 5.121,20.692c-3.761,-6.632 -3.983,-9.228 -3.289,-18.22c0.693,-8.991 8.706,-19.361 8.706,-19.361l-1.81,-3.535l0,0Z"/>
        </g>
        <g id="border-top" serif:id="border top" transform="matrix(0.239341,0,0,0.144866,4.58044,18.7112)">
            <path d="M32.129,26.046l5.88,-1.427c8.68,-12.123 33.634,-18.413 53.157,3.432l3.839,-2.132c-16.495,-19.751 -46.815,-23.479 -62.876,0.127l0,0Zm-4.122,22.468l-0.692,-4.386c-28.12,-11.686 -8.829,-39.571 8.783,-28.36l3.344,-2.753c-23.856,-16.651 -50.026,21.648 -11.435,35.499Zm73.286,-16.309l-2.912,1.897c45.084,38.704 68.94,-38.26 114.288,-6.99c-44.873,-36.081 -69.163,39.553 -111.376,5.093l0,0Zm-31.846,9.284l0.608,3.752c22.959,-3.224 49.794,-41.373 81.624,-16.823l2.701,-2.297c-33.701,-28.322 -64.785,12.134 -84.933,15.368l0,0Zm-22.925,-22.325l-2.875,2.511c5.933,6.004 6.062,12.156 6.915,21.918l4.269,-0.767c-0.526,-8.75 -1.486,-17.224 -8.309,-23.662l0,0l0,0Zm7.208,7.772l0.95,3.624c8.08,2.599 10.709,9.481 8.609,22.2l3.73,-0.203c2.204,-13.351 0.338,-22.732 -13.289,-25.621l0,0Zm-23.621,9.977c-1.979,7.309 -0.811,23.797 17.86,23.885l0.686,-3.757c-15.187,-0.588 -16.081,-13.471 -13.113,-22.488l-5.433,2.36l0,0Zm-15.674,6.111c-21.938,40.425 61.185,51.594 17.474,113.052l1.333,3.63c49.047,-63.277 -33.832,-79.152 -15.172,-113.792l-3.635,-2.89l0,0l0,0Zm46.51,0.273c-7.095,2.526 -16.232,3.24 -23.748,3.026l0.709,3.278c5.66,0.737 18.521,-0.928 23.417,-2.675l-0.378,-3.629Zm-9.99,8.018c-0.109,12.128 0.679,24.03 -14.653,36.757l2.282,3.088c15.464,-11.917 16.32,-22.881 16.21,-40.46l-3.839,0.615Zm5.62,5.057l0.253,3.987c25.86,-6.954 27.269,6.963 22.764,11.709c-4.505,4.747 -14.834,1.053 -13.428,-11.036l-3.603,0.214c-2.286,14.546 12.233,21.735 20.314,13.945c8.038,-7.749 2.06,-26.968 -26.3,-18.819l0,0Zm-26.671,36.865c-32.961,31.42 9.254,75.666 8.967,100.567c-0.285,24.749 -17.228,34.665 -17.719,56.076c-0.492,21.46 14.14,38.209 13.527,44.923c-0.614,6.714 -9.514,7.501 -9.356,-1.391c-1.984,11.262 11.053,10.502 10.814,0.539c-0.239,-9.954 -12.765,-22.266 -12.38,-43.441c0.393,-21.558 17.147,-28.007 18.082,-56.706c0.935,-28.698 -40.449,-67.072 -9.042,-98.074l-2.893,-2.493l0,0Zm15.599,-66.378c-10.413,0.029 -20.112,4.378 -25.271,10.037l3.514,2.751c4.273,-4.069 11.581,-9.329 23.147,-8.941l-1.39,-3.847Zm274.491,8.911c-9.703,-0.531 -24.145,-12.707 -57.591,-12.444c-33.446,0.262 -72.813,30.596 -100.275,8.861l-2.17,2.547c29.462,24.098 69.761,-8.356 102.445,-8.573c32.683,-0.216 45.325,10.432 57.257,11.289c11.932,0.856 14.345,-12.826 -1.067,-11.32c13.323,0.795 11.104,10.17 1.401,9.64Zm-293.735,126.475c0,0 -7.993,13.024 -8.728,20.424c-0.736,7.41 -1.197,14.376 5.121,20.692c-3.761,-6.632 -3.983,-9.228 -3.289,-18.22c0.693,-8.991 8.706,-19.361 8.706,-19.361l-1.81,-3.535l0,0Z"/>
        </g>
    </g>
</svg>
