<?xml version="1.0" encoding="UTF-8" standalone="no"?>
<!DOCTYPE svg PUBLIC "-//W3C//DTD SVG 1.1//EN" "http://www.w3.org/Graphics/SVG/1.1/DTD/svg11.dtd">
<svg width="100%" height="100%" viewBox="0 0 94 396" version="1.1" xmlns="http://www.w3.org/2000/svg" xmlns:xlink="http://www.w3.org/1999/xlink" xml:space="preserve" xmlns:serif="http://www.serif.com/" style="fill-rule:evenodd;clip-rule:evenodd;stroke-linejoin:round;stroke-miterlimit:1.41421;">
    <g transform="matrix(1.04167,0,0,1.04167,0,0)">
        <g id="Layer-0" serif:id="Layer 0" transform="matrix(1,0,0,1,0,3.05176e-05)">
            <rect id="background" x="0" y="0" width="90" height="380" style="fill:white;"/>
            <g id="svg_2" transform="matrix(0.0723112,0,0,0.0603557,18.6064,290.921)">
                <path d="M365.013,467.444C371.602,467.444 372.294,466.986 384.295,482.467C391.32,491.525 406.514,510.849 414.572,522.459L535.268,522.014C550.307,521.335 551.967,519.605 558.191,515.137C569.567,506.972 580.182,493.164 605.094,454.104C612.618,442.304 622.226,427.414 626.442,421.023C632.845,410.733 630.505,409.069 647.413,405.697C635.169,436.059 619.511,471.833 609.028,487.733C588.404,519.014 555.548,552.549 490.451,573.467C541.09,564.69 557.127,549.275 590.861,521.739C567.941,569.059 535.981,611.833 506.428,655.027C572.854,584.363 636.545,506.037 670.573,414.077C676.468,396.054 683.162,371.344 682.375,370.561C669.863,384.574 654.65,400.127 622.369,400.873C573.529,402 535.918,387.093 500.646,360.435C496.933,363.144 492.415,365.509 492.333,371.041C492.257,376.232 497.953,381.956 509.096,388.249C527.396,398.583 574.36,410.793 595.789,410.793C598.501,410.793 600.715,411.049 600.715,411.374C600.715,411.702 588.123,427.711 572.731,446.92C549.103,476.401 544.112,482.047 540.708,483.218C532.811,485.94 488.683,484.143 464.964,480.14C453.591,478.22 448.508,476.111 442.42,470.765C431.388,459.506 422.999,445.604 411.733,434.878C399.242,439.592 385.972,444.492 365,444.732C348.635,444.915 333.359,440.505 318.268,434.878C307.003,445.604 298.612,459.506 287.58,470.765C281.492,476.111 276.41,478.22 265.035,480.14C241.316,484.143 197.19,485.94 189.292,483.218C185.888,482.047 180.896,476.401 157.27,446.92C141.876,427.711 129.286,411.702 129.286,411.374C129.286,411.049 131.499,410.793 134.212,410.793C155.639,410.793 202.605,398.583 220.903,388.249C232.047,381.956 237.742,376.232 237.667,371.041C237.586,365.509 233.069,363.144 229.353,360.435C194.082,387.093 156.471,402 107.63,400.873C75.35,400.127 60.138,384.574 47.624,370.561C46.84,371.344 53.531,396.054 59.427,414.077C93.454,506.037 157.148,584.363 223.571,655.027C194.019,611.833 162.061,569.059 139.139,521.739C172.873,549.275 188.911,564.69 239.548,573.467C174.451,552.549 141.597,519.014 120.973,487.733C110.488,471.833 94.833,436.059 82.587,405.697C99.496,409.069 97.155,410.733 103.559,421.023C107.774,427.414 117.38,442.304 124.907,454.104C149.818,493.164 160.434,506.972 171.81,515.137C178.034,519.605 179.693,521.335 194.732,522.014L315.428,522.459C323.486,510.849 338.679,491.525 345.705,482.467C357.706,466.986 358.423,467.444 365.013,467.444ZM163.463,6.521C121.321,6.942 83.129,30.726 63.874,94.307C98.041,76.218 142.12,76.595 179.952,89.586C230.397,106.908 273.55,146.643 310.844,198.411C306.695,168.367 294.206,137.181 286.246,121.06C293.602,122.256 303.976,125.842 308.552,120.205C313.494,114.117 309.609,107.932 304.72,102.826C265.248,61.593 212.019,34.739 154.465,32.453C191.648,30.733 238.509,36.901 280.191,53.562C246.109,26.348 203.051,6.127 163.463,6.521L163.463,6.521ZM566.539,6.521C526.951,6.127 483.89,26.348 449.809,53.562C491.49,36.901 538.352,30.733 575.534,32.453C517.981,34.739 464.753,61.593 425.279,102.826C420.391,107.932 416.507,114.117 421.449,120.205C426.024,125.842 436.399,122.256 443.753,121.06C435.793,137.181 423.305,168.367 419.156,198.411C456.452,146.643 499.604,106.908 550.048,89.586C587.88,76.595 631.958,76.218 666.127,94.307C646.87,30.726 608.681,6.942 566.539,6.521L566.539,6.521ZM187.821,158.829C168.965,159.015 153.156,161.814 141.225,167.006C117.663,177.259 103.203,216.598 82.075,218.664C63.094,220.52 52.173,194.207 44.134,180.211C49.155,196.084 57.589,212.408 68.253,223.898C57.358,230.831 45.699,237.831 37.737,248.052C51.876,238.397 66.018,228.869 79.372,230.399C63.626,239.047 41.362,251.074 30.587,270.631C49.326,252.203 71.971,235.454 99.248,236.933C107.128,237.36 109.493,238.012 119.023,242.544C143.104,256.344 169.451,256.686 196.1,256.399L196.1,240.08C177.156,240.032 158.247,237.708 139.686,233.991C131.882,232.007 118.449,225.628 115.738,222.633C113.895,220.596 113.919,220.262 116.285,214.661C122.426,200.133 132.392,188.543 144.886,180.724C160.167,171.161 178.339,169.413 195.929,169.913C195.985,169.915 196.044,169.911 196.1,169.913L196.1,158.966C196.011,158.963 195.84,158.934 195.758,158.932C194.358,158.894 192.988,158.841 191.619,158.829C190.334,158.82 189.078,158.817 187.821,158.829L187.821,158.829ZM538.381,158.829C537.014,158.842 535.643,158.894 534.242,158.932C534.159,158.934 533.989,158.963 533.901,158.966L533.901,169.913C533.957,169.911 534.014,169.914 534.071,169.913C551.661,169.413 569.832,171.161 585.114,180.724C597.608,188.543 607.576,200.132 613.714,214.661C616.082,220.262 616.104,220.596 614.263,222.633C611.551,225.628 598.119,232.007 590.314,233.991C571.752,237.708 552.845,240.032 533.901,240.08L533.901,256.399C560.549,256.685 586.895,256.344 610.977,242.543C620.506,238.011 622.871,237.36 630.751,236.933C658.029,235.454 680.674,252.203 699.413,270.631C688.637,251.073 666.374,239.047 650.628,230.399C663.984,228.869 678.122,238.397 692.265,248.052C684.302,237.831 672.641,230.831 661.748,223.898C672.411,212.408 680.844,196.084 685.865,180.211C677.829,194.207 666.907,220.52 647.925,218.664C626.798,216.598 612.337,177.259 588.773,167.005C576.845,161.814 561.035,159.015 542.179,158.829C540.923,158.817 539.666,158.819 538.381,158.829L538.381,158.829ZM208.245,160.471L208.245,171.111C236.729,175.624 269.332,191.832 276.838,206.93C254.649,191.5 228.959,179.014 201.539,179.424C183.739,179.69 161.495,184.241 144.134,193.861C135.371,198.717 122.987,209.61 122.786,212.985C121.993,226.245 181.372,233.505 202.703,232.588C227.685,231.524 252.861,230.352 275.093,219.451C262.433,236.61 232.507,239.121 208.245,239.841L208.245,256.091C246.312,253.937 293.085,236.699 292.917,214.388C292.661,180.224 235.192,165.022 208.245,160.471ZM521.754,160.471C494.808,165.022 437.34,180.224 437.084,214.388C436.917,236.699 483.688,253.937 521.754,256.091L521.754,239.841C497.492,239.121 467.566,236.61 454.908,219.451C477.139,230.352 502.313,231.524 527.298,232.588C548.63,233.505 608.005,226.245 607.216,212.985C607.014,209.61 594.627,198.717 585.865,193.861C568.506,184.241 546.262,179.69 528.46,179.424C501.041,179.014 475.352,191.5 453.162,206.93C460.667,191.832 493.271,175.624 521.754,171.111L521.754,160.471L521.754,160.471ZM322.578,178.158C322.463,244.557 312.119,290.875 270.03,341.825C260.694,353.126 249.626,365.399 249.127,380.826C248.752,392.423 254.179,402.918 261.169,412.984C257.086,403.098 254.377,393.434 255.525,382.673C256.532,373.226 263.167,366.624 282.517,347.572C301.133,329.243 304.637,324.873 308.005,328.517C309.494,330.127 309.272,339.423 307.183,356.296C304.175,380.599 305.217,397.248 310.399,407.509C315.721,418.046 329.73,426.65 348.783,431.114C352.894,432.077 358.811,432.346 365,432.346C371.188,432.346 377.106,432.077 381.217,431.114C400.268,426.65 414.278,418.046 419.601,407.509C424.783,397.248 425.825,380.599 422.816,356.296C420.729,339.423 420.504,330.127 421.995,328.517C425.364,324.873 428.868,329.243 447.482,347.572C466.833,366.624 473.467,373.226 474.474,382.673C475.624,393.434 472.915,403.098 468.832,412.984C475.823,402.918 481.247,392.423 480.875,380.826C480.376,365.399 469.306,353.126 459.969,341.825C417.881,290.875 407.537,244.557 407.423,178.158C400.13,213.028 401.156,265.155 402.494,310.076C403.341,338.431 405.589,357.013 408.585,374.189C411.424,390.469 411.01,402.855 405.301,407.509C394.481,416.331 379.373,419.505 365,419.517C350.627,419.53 335.526,416.366 324.699,407.509C318.997,402.846 318.576,390.469 321.415,374.189C324.41,357.013 326.659,338.431 327.505,310.076C328.844,265.155 329.87,213.028 322.578,178.158L322.578,178.158ZM287.17,411.204C285.607,411.257 284.139,411.481 282.825,411.889C280.35,412.656 280.133,416.518 283.236,420.613C286.77,424.812 290.545,426.814 298.699,428.822C306.679,430.789 311.077,430.859 311.597,428.311C313.558,418.68 298.11,410.831 287.17,411.204L287.17,411.204ZM442.831,411.204C431.89,410.831 416.441,418.68 418.405,428.311C418.923,430.859 423.321,430.789 431.3,428.822C439.455,426.814 443.228,424.812 446.765,420.613C449.869,416.518 449.651,412.656 447.175,411.889C445.862,411.481 444.394,411.257 442.831,411.204ZM278.617,526.908C276.835,528.527 274.105,530.043 275.504,532.244C277.026,534.637 292.025,538.312 313.204,539.326C347.631,540.974 382.366,541.602 416.794,539.326C437.965,537.924 452.975,534.637 454.497,532.244C455.896,530.043 453.165,528.527 451.384,526.908L278.617,526.908L278.617,526.908ZM321.963,592.522C335.147,608 342.694,616.064 342.626,627.863C342.5,649.988 332.915,652.615 333.902,687.836C334.695,716.117 339.276,734.547 341.908,752.494C348.171,795.204 355.483,795.873 365,795.873C374.516,795.873 381.829,795.204 388.093,752.494C390.724,734.547 395.305,716.117 396.098,687.836C397.086,652.615 387.5,649.988 387.374,627.863C387.307,616.064 394.853,608 408.039,592.522L321.963,592.522Z" style="fill-rule:nonzero;"/>
            </g>
            <g transform="matrix(1,0,0,1,7.74933,38)">
                <path d="M25.688,204.79L25.688,197.617L26.489,197.617L26.489,198.29C26.678,198.027 26.891,197.829 27.129,197.697C27.366,197.565 27.654,197.499 27.993,197.499C28.436,197.499 28.826,197.613 29.165,197.841C29.503,198.069 29.759,198.391 29.931,198.806C30.104,199.221 30.19,199.676 30.19,200.17C30.19,200.701 30.095,201.179 29.904,201.603C29.714,202.028 29.437,202.354 29.074,202.58C28.711,202.806 28.33,202.919 27.929,202.919C27.636,202.919 27.374,202.858 27.141,202.734C26.908,202.61 26.717,202.454 26.567,202.265L26.567,204.79L25.688,204.79ZM26.484,200.239C26.484,200.906 26.619,201.399 26.889,201.718C27.16,202.037 27.487,202.197 27.871,202.197C28.261,202.197 28.596,202.032 28.874,201.701C29.153,201.371 29.292,200.859 29.292,200.165C29.292,199.505 29.156,199.01 28.884,198.681C28.612,198.352 28.287,198.188 27.91,198.188C27.535,198.188 27.204,198.363 26.916,198.713C26.628,199.063 26.484,199.571 26.484,200.239Z" style="fill-rule:nonzero;"/>
                <path d="M34.633,202.163C34.308,202.439 33.995,202.635 33.694,202.748C33.392,202.862 33.069,202.919 32.724,202.919C32.155,202.919 31.717,202.78 31.411,202.502C31.105,202.224 30.952,201.868 30.952,201.435C30.952,201.181 31.01,200.949 31.125,200.739C31.241,200.529 31.392,200.361 31.579,200.234C31.766,200.107 31.977,200.011 32.212,199.946C32.384,199.9 32.645,199.856 32.993,199.814C33.702,199.729 34.225,199.628 34.56,199.511C34.563,199.391 34.565,199.314 34.565,199.282C34.565,198.924 34.482,198.671 34.316,198.525C34.091,198.326 33.758,198.227 33.315,198.227C32.902,198.227 32.597,198.299 32.4,198.444C32.203,198.589 32.057,198.845 31.963,199.213L31.103,199.096C31.181,198.728 31.31,198.431 31.489,198.205C31.668,197.979 31.927,197.805 32.265,197.683C32.604,197.561 32.996,197.499 33.442,197.499C33.885,197.499 34.244,197.552 34.521,197.656C34.798,197.76 35.001,197.891 35.132,198.049C35.262,198.207 35.353,198.406 35.405,198.647C35.434,198.797 35.449,199.067 35.449,199.457L35.449,200.629C35.449,201.446 35.468,201.963 35.505,202.18C35.542,202.396 35.617,202.604 35.727,202.802L34.809,202.802C34.718,202.62 34.66,202.407 34.633,202.163ZM34.56,200.2C34.241,200.33 33.763,200.441 33.125,200.532C32.763,200.584 32.508,200.642 32.358,200.707C32.208,200.773 32.093,200.868 32.011,200.993C31.93,201.118 31.889,201.258 31.889,201.411C31.889,201.645 31.978,201.84 32.155,201.997C32.333,202.153 32.592,202.231 32.934,202.231C33.273,202.231 33.574,202.157 33.838,202.009C34.101,201.861 34.295,201.658 34.419,201.401C34.513,201.202 34.56,200.909 34.56,200.522L34.56,200.2Z" style="fill-rule:nonzero;"/>
                <path d="M38.73,202.016L38.857,202.792C38.61,202.845 38.388,202.871 38.193,202.871C37.874,202.871 37.627,202.82 37.451,202.719C37.275,202.618 37.151,202.486 37.08,202.321C37.008,202.157 36.972,201.811 36.972,201.284L36.972,198.3L36.328,198.3L36.328,197.617L36.972,197.617L36.972,196.332L37.846,195.805L37.846,197.617L38.73,197.617L38.73,198.3L37.846,198.3L37.846,201.332C37.846,201.583 37.862,201.744 37.893,201.816C37.924,201.887 37.974,201.944 38.044,201.987C38.114,202.029 38.214,202.05 38.344,202.05C38.442,202.05 38.571,202.039 38.73,202.016Z" style="fill-rule:nonzero;"/>
                <path d="M42.973,200.903L43.838,201.015C43.743,201.611 43.501,202.077 43.112,202.414C42.723,202.751 42.246,202.919 41.679,202.919C40.97,202.919 40.399,202.687 39.968,202.224C39.537,201.76 39.321,201.095 39.321,200.229C39.321,199.669 39.414,199.179 39.599,198.759C39.785,198.339 40.067,198.024 40.446,197.814C40.826,197.604 41.238,197.499 41.684,197.499C42.247,197.499 42.708,197.642 43.066,197.927C43.424,198.212 43.654,198.616 43.755,199.14L42.9,199.272C42.819,198.924 42.675,198.662 42.468,198.486C42.261,198.31 42.011,198.222 41.718,198.222C41.276,198.222 40.916,198.381 40.639,198.698C40.363,199.016 40.224,199.518 40.224,200.205C40.224,200.901 40.358,201.407 40.625,201.723C40.892,202.039 41.24,202.197 41.67,202.197C42.015,202.197 42.303,202.091 42.534,201.879C42.765,201.668 42.911,201.342 42.973,200.903Z" style="fill-rule:nonzero;"/>
                <path d="M44.59,202.802L44.59,195.644L45.468,195.644L45.468,198.212C45.879,197.737 46.396,197.499 47.021,197.499C47.405,197.499 47.739,197.575 48.022,197.727C48.305,197.878 48.508,198.087 48.63,198.354C48.752,198.621 48.813,199.008 48.813,199.516L48.813,202.802L47.934,202.802L47.934,199.516C47.934,199.077 47.839,198.757 47.649,198.557C47.458,198.356 47.189,198.256 46.841,198.256C46.58,198.256 46.335,198.324 46.106,198.459C45.876,198.594 45.713,198.777 45.615,199.008C45.517,199.239 45.468,199.558 45.468,199.965L45.468,202.802L44.59,202.802Z" style="fill-rule:nonzero;"/>
            </g>
            <g transform="matrix(1,0,0,1,-0.0973974,14.4719)">
                <path d="M23.431,32.958L23.431,25.698L24.538,25.698L24.538,26.799C24.821,26.284 25.082,25.945 25.321,25.78C25.56,25.616 25.823,25.534 26.111,25.534C26.525,25.534 26.947,25.667 27.375,25.931L26.951,27.072C26.651,26.895 26.35,26.806 26.049,26.806C25.78,26.806 25.539,26.887 25.324,27.049C25.11,27.21 24.958,27.435 24.866,27.722C24.73,28.159 24.661,28.638 24.661,29.157L24.661,32.958L23.431,32.958Z" style="fill-rule:nonzero;"/>
                <path d="M31.709,32.958L31.709,30.559L27.362,30.559L27.362,29.431L31.935,22.937L32.94,22.937L32.94,29.431L34.293,29.431L34.293,30.559L32.94,30.559L32.94,32.958L31.709,32.958ZM31.709,29.431L31.709,24.912L28.572,29.431L31.709,29.431Z" style="fill-rule:nonzero;"/>
                <path d="M35.072,32.958L37.725,29.185L35.271,25.698L36.809,25.698L37.923,27.401C38.133,27.724 38.301,27.995 38.429,28.214C38.629,27.913 38.814,27.647 38.983,27.414L40.206,25.698L41.676,25.698L39.167,29.116L41.867,32.958L40.357,32.958L38.866,30.702L38.47,30.094L36.563,32.958L35.072,32.958Z" style="fill-rule:nonzero;"/>
                <path d="M43.091,32.958L43.091,22.937L44.417,22.937L44.417,27.052L49.626,27.052L49.626,22.937L50.952,22.937L50.952,32.958L49.626,32.958L49.626,28.235L44.417,28.235L44.417,32.958L43.091,32.958Z" style="fill-rule:nonzero;"/>
                <path d="M56.606,32.958L56.606,30.559L52.258,30.559L52.258,29.431L56.831,22.937L57.836,22.937L57.836,29.431L59.19,29.431L59.19,30.559L57.836,30.559L57.836,32.958L56.606,32.958ZM56.606,29.431L56.606,24.912L53.468,29.431L56.606,29.431Z" style="fill-rule:nonzero;"/>
                <path d="M59.969,32.958L62.621,29.185L60.167,25.698L61.705,25.698L62.82,27.401C63.029,27.724 63.198,27.995 63.325,28.214C63.526,27.913 63.711,27.647 63.879,27.414L65.103,25.698L66.572,25.698L64.064,29.116L66.764,32.958L65.253,32.958L63.763,30.702L63.366,30.094L61.459,32.958L59.969,32.958Z" style="fill-rule:nonzero;"/>
            </g>
            <g transform="matrix(1,0,0,1,18.0919,83.4014)">
                <path d="M15.123,68.861C14.735,68.372 14.407,67.799 14.139,67.142C13.87,66.486 13.736,65.806 13.736,65.103C13.736,64.484 13.836,63.89 14.037,63.322C14.271,62.663 14.633,62.007 15.123,61.353L15.627,61.353C15.312,61.895 15.103,62.282 15.002,62.513C14.843,62.873 14.718,63.248 14.627,63.638C14.515,64.125 14.459,64.615 14.459,65.107C14.459,66.36 14.848,67.611 15.627,68.861L15.123,68.861Z" style="fill-rule:nonzero;"/>
                <path d="M16.443,68.767L16.443,63.029L17.084,63.029L17.084,63.568C17.235,63.357 17.405,63.199 17.596,63.094C17.786,62.988 18.016,62.935 18.287,62.935C18.641,62.935 18.954,63.026 19.224,63.209C19.495,63.391 19.7,63.648 19.838,63.98C19.976,64.312 20.045,64.676 20.045,65.072C20.045,65.497 19.969,65.879 19.816,66.219C19.664,66.558 19.443,66.819 19.152,67C18.862,67.181 18.557,67.271 18.236,67.271C18.002,67.271 17.792,67.222 17.605,67.123C17.419,67.024 17.266,66.899 17.146,66.748L17.146,68.767L16.443,68.767ZM17.08,65.127C17.08,65.661 17.188,66.055 17.404,66.31C17.62,66.566 17.882,66.693 18.189,66.693C18.502,66.693 18.769,66.561 18.992,66.297C19.215,66.032 19.326,65.623 19.326,65.068C19.326,64.54 19.217,64.144 19,63.881C18.782,63.618 18.523,63.486 18.221,63.486C17.921,63.486 17.656,63.626 17.426,63.906C17.195,64.186 17.08,64.593 17.08,65.127Z" style="fill-rule:nonzero;"/>
                <path d="M23.599,66.666C23.339,66.887 23.088,67.043 22.848,67.135C22.607,67.226 22.348,67.271 22.072,67.271C21.616,67.271 21.266,67.16 21.021,66.937C20.777,66.715 20.654,66.43 20.654,66.084C20.654,65.881 20.7,65.695 20.793,65.527C20.885,65.359 21.006,65.224 21.156,65.123C21.306,65.021 21.474,64.944 21.662,64.892C21.8,64.856 22.008,64.821 22.287,64.787C22.855,64.719 23.273,64.638 23.541,64.545C23.543,64.448 23.545,64.387 23.545,64.361C23.545,64.075 23.478,63.873 23.346,63.756C23.166,63.597 22.899,63.517 22.545,63.517C22.214,63.517 21.97,63.575 21.812,63.691C21.655,63.807 21.538,64.012 21.463,64.306L20.775,64.213C20.838,63.918 20.941,63.681 21.084,63.5C21.227,63.319 21.434,63.179 21.705,63.082C21.976,62.984 22.29,62.935 22.646,62.935C23.001,62.935 23.288,62.977 23.51,63.06C23.731,63.144 23.894,63.249 23.998,63.375C24.102,63.501 24.175,63.661 24.217,63.853C24.24,63.973 24.252,64.189 24.252,64.502L24.252,65.439C24.252,66.093 24.267,66.506 24.297,66.679C24.327,66.853 24.386,67.019 24.474,67.178L23.74,67.178C23.667,67.032 23.62,66.861 23.599,66.666ZM23.541,65.096C23.286,65.2 22.903,65.288 22.392,65.361C22.103,65.403 21.899,65.45 21.779,65.502C21.659,65.554 21.567,65.63 21.502,65.73C21.437,65.831 21.404,65.942 21.404,66.064C21.404,66.252 21.475,66.408 21.617,66.533C21.759,66.658 21.967,66.721 22.24,66.721C22.511,66.721 22.752,66.661 22.963,66.543C23.174,66.424 23.329,66.262 23.428,66.056C23.503,65.898 23.541,65.663 23.541,65.353L23.541,65.096Z" style="fill-rule:nonzero;"/>
                <path d="M25.334,67.178L25.334,63.029L25.967,63.029L25.967,63.658C26.128,63.364 26.277,63.17 26.414,63.076C26.551,62.982 26.701,62.935 26.865,62.935C27.102,62.935 27.343,63.011 27.588,63.162L27.346,63.814C27.174,63.713 27.002,63.662 26.83,63.662C26.676,63.662 26.538,63.708 26.416,63.801C26.293,63.893 26.206,64.021 26.154,64.185C26.076,64.435 26.037,64.709 26.037,65.006L26.037,67.178L25.334,67.178Z" style="fill-rule:nonzero;"/>
                <path d="M29.541,66.549L29.642,67.17C29.445,67.211 29.267,67.232 29.111,67.232C28.856,67.232 28.658,67.192 28.517,67.111C28.377,67.03 28.278,66.924 28.221,66.793C28.163,66.661 28.135,66.385 28.135,65.963L28.135,63.576L27.619,63.576L27.619,63.029L28.135,63.029L28.135,62.002L28.834,61.58L28.834,63.029L29.541,63.029L29.541,63.576L28.834,63.576L28.834,66.002C28.834,66.202 28.846,66.331 28.871,66.388C28.896,66.446 28.936,66.491 28.992,66.525C29.048,66.559 29.128,66.576 29.232,66.576C29.31,66.576 29.413,66.567 29.541,66.549Z" style="fill-rule:nonzero;"/>
                <path d="M30.232,62.26L30.232,61.451L30.935,61.451L30.935,62.26L30.232,62.26ZM30.232,67.178L30.232,63.029L30.935,63.029L30.935,67.178L30.232,67.178Z" style="fill-rule:nonzero;"/>
                <path d="M34.713,66.666C34.452,66.887 34.202,67.043 33.961,67.135C33.72,67.226 33.461,67.271 33.185,67.271C32.73,67.271 32.379,67.16 32.135,66.937C31.89,66.715 31.767,66.43 31.767,66.084C31.767,65.881 31.814,65.695 31.906,65.527C31.999,65.359 32.12,65.224 32.269,65.123C32.419,65.021 32.588,64.944 32.775,64.892C32.913,64.856 33.122,64.821 33.4,64.787C33.968,64.719 34.386,64.638 34.654,64.545C34.657,64.448 34.658,64.387 34.658,64.361C34.658,64.075 34.592,63.873 34.459,63.756C34.279,63.597 34.012,63.517 33.658,63.517C33.327,63.517 33.083,63.575 32.926,63.691C32.768,63.807 32.652,64.012 32.576,64.306L31.889,64.213C31.951,63.918 32.054,63.681 32.197,63.5C32.34,63.319 32.547,63.179 32.818,63.082C33.089,62.984 33.403,62.935 33.76,62.935C34.114,62.935 34.402,62.977 34.623,63.06C34.844,63.144 35.007,63.249 35.111,63.375C35.215,63.501 35.288,63.661 35.33,63.853C35.353,63.973 35.365,64.189 35.365,64.502L35.365,65.439C35.365,66.093 35.38,66.506 35.41,66.679C35.44,66.853 35.499,67.019 35.588,67.178L34.853,67.178C34.78,67.032 34.734,66.861 34.713,66.666ZM34.654,65.096C34.399,65.2 34.016,65.288 33.506,65.361C33.217,65.403 33.012,65.45 32.892,65.502C32.773,65.554 32.68,65.63 32.615,65.73C32.55,65.831 32.517,65.942 32.517,66.064C32.517,66.252 32.588,66.408 32.73,66.533C32.872,66.658 33.08,66.721 33.353,66.721C33.624,66.721 33.865,66.661 34.076,66.543C34.287,66.424 34.442,66.262 34.541,66.056C34.616,65.898 34.654,65.663 34.654,65.353L34.654,65.096Z" style="fill-rule:nonzero;"/>
                <rect x="36.439" y="61.451" width="0.703" height="5.727" style="fill-rule:nonzero;"/>
                <path d="M38.693,68.861L38.189,68.861C38.968,67.611 39.357,66.36 39.357,65.107C39.357,64.618 39.301,64.132 39.189,63.65C39.101,63.26 38.977,62.885 38.818,62.525C38.717,62.291 38.507,61.9 38.189,61.353L38.693,61.353C39.183,62.007 39.545,62.663 39.779,63.322C39.98,63.89 40.08,64.484 40.08,65.103C40.08,65.806 39.945,66.486 39.676,67.142C39.406,67.799 39.079,68.372 38.693,68.861Z" style="fill-rule:nonzero;"/>
            </g>
            <g transform="matrix(1,0,0,1,24.6987,-14.1796)">
                <path d="M8.426,302.464L8.426,298.169L9.905,298.169C10.239,298.169 10.494,298.189 10.67,298.23C10.916,298.287 11.126,298.39 11.3,298.538C11.526,298.729 11.696,298.974 11.808,299.272C11.92,299.57 11.977,299.91 11.977,300.293C11.977,300.619 11.939,300.908 11.862,301.16C11.786,301.412 11.689,301.62 11.569,301.786C11.45,301.951 11.32,302.08 11.178,302.175C11.037,302.27 10.866,302.342 10.666,302.39C10.465,302.439 10.235,302.464 9.976,302.464L8.426,302.464ZM8.994,301.957L9.911,301.957C10.194,301.957 10.417,301.931 10.578,301.878C10.739,301.825 10.867,301.751 10.963,301.655C11.098,301.52 11.203,301.339 11.278,301.112C11.353,300.884 11.391,300.608 11.391,300.284C11.391,299.835 11.317,299.49 11.169,299.248C11.022,299.007 10.843,298.846 10.632,298.764C10.48,298.705 10.234,298.676 9.897,298.676L8.994,298.676L8.994,301.957Z" style="fill-rule:nonzero;"/>
                <path d="M12.735,302.464L12.735,298.169L13.304,298.169L13.304,301.957L15.419,301.957L15.419,302.464L12.735,302.464Z" style="fill-rule:nonzero;"/>
                <path d="M16.603,302.464L15.65,299.352L16.195,299.352L16.69,301.148L16.875,301.816C16.883,301.783 16.937,301.569 17.036,301.175L17.531,299.352L18.073,299.352L18.539,301.157L18.694,301.752L18.873,301.151L19.406,299.352L19.919,299.352L18.946,302.464L18.398,302.464L17.903,300.6L17.783,300.07L17.153,302.464L16.603,302.464Z" style="fill-rule:nonzero;"/>
                <path d="M20.364,298.775L20.364,298.169L20.892,298.169L20.892,298.775L20.364,298.775ZM20.364,302.464L20.364,299.352L20.892,299.352L20.892,302.464L20.364,302.464Z" style="fill-rule:nonzero;"/>
                <path d="M21.598,302.722L22.11,302.798C22.132,302.956 22.191,303.071 22.289,303.143C22.42,303.241 22.599,303.29 22.825,303.29C23.069,303.29 23.258,303.241 23.391,303.143C23.523,303.046 23.613,302.909 23.66,302.733C23.688,302.626 23.7,302.4 23.698,302.057C23.468,302.328 23.181,302.464 22.837,302.464C22.409,302.464 22.078,302.309 21.844,302.001C21.609,301.692 21.492,301.322 21.492,300.89C21.492,300.594 21.546,300.32 21.653,300.069C21.761,299.818 21.917,299.624 22.121,299.487C22.325,299.35 22.564,299.282 22.84,299.282C23.207,299.282 23.51,299.431 23.748,299.727L23.748,299.352L24.234,299.352L24.234,302.042C24.234,302.526 24.185,302.869 24.086,303.072C23.988,303.274 23.832,303.433 23.618,303.551C23.404,303.668 23.141,303.726 22.828,303.726C22.457,303.726 22.157,303.643 21.929,303.476C21.7,303.309 21.59,303.057 21.598,302.722ZM22.034,300.852C22.034,301.261 22.115,301.558 22.277,301.746C22.439,301.933 22.643,302.027 22.887,302.027C23.129,302.027 23.332,301.934 23.496,301.747C23.66,301.561 23.742,301.268 23.742,300.87C23.742,300.489 23.658,300.202 23.489,300.009C23.32,299.815 23.116,299.719 22.878,299.719C22.644,299.719 22.444,299.814 22.28,300.004C22.116,300.195 22.034,300.477 22.034,300.852Z" style="fill-rule:nonzero;"/>
                <path d="M24.935,302.722L25.447,302.798C25.469,302.956 25.528,303.071 25.626,303.143C25.757,303.241 25.936,303.29 26.162,303.29C26.406,303.29 26.595,303.241 26.728,303.143C26.86,303.046 26.95,302.909 26.997,302.733C27.024,302.626 27.037,302.4 27.035,302.057C26.805,302.328 26.518,302.464 26.174,302.464C25.746,302.464 25.415,302.309 25.181,302.001C24.946,301.692 24.829,301.322 24.829,300.89C24.829,300.594 24.883,300.32 24.99,300.069C25.098,299.818 25.253,299.624 25.458,299.487C25.662,299.35 25.901,299.282 26.177,299.282C26.544,299.282 26.847,299.431 27.085,299.727L27.085,299.352L27.571,299.352L27.571,302.042C27.571,302.526 27.522,302.869 27.423,303.072C27.325,303.274 27.168,303.433 26.955,303.551C26.741,303.668 26.478,303.726 26.165,303.726C25.794,303.726 25.494,303.643 25.266,303.476C25.037,303.309 24.927,303.057 24.935,302.722ZM25.371,300.852C25.371,301.261 25.452,301.558 25.614,301.746C25.776,301.933 25.98,302.027 26.224,302.027C26.466,302.027 26.669,301.934 26.833,301.747C26.997,301.561 27.079,301.268 27.079,300.87C27.079,300.489 26.995,300.202 26.826,300.009C26.657,299.815 26.453,299.719 26.215,299.719C25.981,299.719 25.781,299.814 25.617,300.004C25.453,300.195 25.371,300.477 25.371,300.852Z" style="fill-rule:nonzero;"/>
                <rect x="28.356" y="298.169" width="0.527" height="4.295" style="fill-rule:nonzero;"/>
                <path d="M29.423,302.464L29.423,302.036L31.403,299.763C31.179,299.774 30.981,299.78 30.809,299.78L29.54,299.78L29.54,299.352L32.083,299.352L32.083,299.701L30.398,301.676L30.073,302.036C30.31,302.018 30.531,302.01 30.738,302.01L32.177,302.01L32.177,302.464L29.423,302.464Z" style="fill-rule:nonzero;"/>
            </g>
            <g transform="matrix(1,0,0,1,0.92693,71)">
                <path d="M32.132,69.106L32.996,69.218C32.902,69.814 32.66,70.28 32.271,70.617C31.882,70.954 31.405,71.123 30.838,71.123C30.129,71.123 29.558,70.891 29.127,70.427C28.695,69.963 28.48,69.298 28.48,68.432C28.48,67.872 28.573,67.382 28.758,66.962C28.944,66.543 29.226,66.228 29.605,66.018C29.985,65.808 30.397,65.703 30.843,65.703C31.406,65.703 31.867,65.845 32.225,66.13C32.583,66.415 32.812,66.819 32.913,67.343L32.059,67.475C31.978,67.127 31.833,66.865 31.627,66.689C31.42,66.513 31.17,66.425 30.877,66.425C30.435,66.425 30.075,66.584 29.798,66.901C29.521,67.219 29.383,67.721 29.383,68.408C29.383,69.104 29.517,69.611 29.784,69.926C30.05,70.242 30.399,70.4 30.828,70.4C31.173,70.4 31.462,70.294 31.693,70.083C31.924,69.871 32.07,69.545 32.132,69.106Z" style="fill-rule:nonzero;"/>
                <path d="M37.132,70.366C36.807,70.642 36.493,70.838 36.192,70.952C35.891,71.066 35.568,71.123 35.223,71.123C34.653,71.123 34.215,70.983 33.909,70.705C33.604,70.427 33.451,70.071 33.451,69.638C33.451,69.384 33.508,69.152 33.624,68.942C33.739,68.732 33.891,68.564 34.078,68.437C34.265,68.31 34.476,68.214 34.71,68.149C34.883,68.103 35.143,68.059 35.492,68.017C36.201,67.933 36.724,67.832 37.059,67.714C37.062,67.594 37.064,67.517 37.064,67.485C37.064,67.127 36.981,66.875 36.815,66.728C36.59,66.53 36.257,66.43 35.814,66.43C35.4,66.43 35.095,66.503 34.898,66.648C34.701,66.792 34.556,67.049 34.461,67.417L33.602,67.299C33.68,66.932 33.809,66.635 33.988,66.408C34.167,66.182 34.425,66.008 34.764,65.886C35.103,65.764 35.495,65.703 35.941,65.703C36.383,65.703 36.743,65.755 37.02,65.859C37.297,65.963 37.5,66.094 37.63,66.252C37.76,66.41 37.852,66.609 37.904,66.85C37.933,67 37.948,67.27 37.948,67.661L37.948,68.833C37.948,69.65 37.966,70.166 38.004,70.383C38.041,70.599 38.115,70.807 38.226,71.005L37.308,71.005C37.217,70.823 37.158,70.61 37.132,70.366ZM37.059,68.403C36.74,68.533 36.261,68.644 35.623,68.735C35.262,68.787 35.007,68.846 34.857,68.911C34.707,68.976 34.591,69.071 34.51,69.196C34.429,69.322 34.388,69.461 34.388,69.614C34.388,69.848 34.477,70.044 34.654,70.2C34.832,70.356 35.091,70.434 35.433,70.434C35.771,70.434 36.073,70.36 36.336,70.212C36.6,70.064 36.794,69.861 36.917,69.604C37.012,69.406 37.059,69.113 37.059,68.725L37.059,68.403Z" style="fill-rule:nonzero;"/>
                <path d="M41.229,70.219L41.356,70.996C41.108,71.048 40.887,71.074 40.692,71.074C40.373,71.074 40.125,71.023 39.95,70.922C39.774,70.822 39.65,70.689 39.578,70.524C39.507,70.36 39.471,70.014 39.471,69.487L39.471,66.503L38.826,66.503L38.826,65.82L39.471,65.82L39.471,64.536L40.345,64.008L40.345,65.82L41.229,65.82L41.229,66.503L40.345,66.503L40.345,69.536C40.345,69.786 40.361,69.947 40.391,70.019C40.422,70.091 40.473,70.148 40.543,70.19C40.613,70.232 40.713,70.253 40.843,70.253C40.941,70.253 41.069,70.242 41.229,70.219Z" style="fill-rule:nonzero;"/>
                <path d="M45.472,70.366C45.146,70.642 44.833,70.838 44.532,70.952C44.231,71.066 43.908,71.123 43.563,71.123C42.993,71.123 42.555,70.983 42.249,70.705C41.943,70.427 41.79,70.071 41.79,69.638C41.79,69.384 41.848,69.152 41.964,68.942C42.079,68.732 42.231,68.564 42.418,68.437C42.605,68.31 42.816,68.214 43.05,68.149C43.223,68.103 43.483,68.059 43.831,68.017C44.541,67.933 45.063,67.832 45.399,67.714C45.402,67.594 45.404,67.517 45.404,67.485C45.404,67.127 45.321,66.875 45.155,66.728C44.93,66.53 44.596,66.43 44.154,66.43C43.74,66.43 43.435,66.503 43.238,66.648C43.041,66.792 42.895,67.049 42.801,67.417L41.942,67.299C42.02,66.932 42.148,66.635 42.327,66.408C42.507,66.182 42.765,66.008 43.104,65.886C43.442,65.764 43.835,65.703 44.281,65.703C44.723,65.703 45.083,65.755 45.36,65.859C45.636,65.963 45.84,66.094 45.97,66.252C46.1,66.41 46.191,66.609 46.243,66.85C46.273,67 46.287,67.27 46.287,67.661L46.287,68.833C46.287,69.65 46.306,70.166 46.344,70.383C46.381,70.599 46.455,70.807 46.566,71.005L45.648,71.005C45.557,70.823 45.498,70.61 45.472,70.366ZM45.399,68.403C45.08,68.533 44.601,68.644 43.963,68.735C43.602,68.787 43.346,68.846 43.197,68.911C43.047,68.976 42.931,69.071 42.85,69.196C42.769,69.322 42.728,69.461 42.728,69.614C42.728,69.848 42.817,70.044 42.994,70.2C43.171,70.356 43.431,70.434 43.773,70.434C44.111,70.434 44.412,70.36 44.676,70.212C44.94,70.064 45.133,69.861 45.257,69.604C45.352,69.406 45.399,69.113 45.399,68.725L45.399,68.403Z" style="fill-rule:nonzero;"/>
                <rect x="47.63" y="63.847" width="0.879" height="7.158" style="fill-rule:nonzero;"/>
                <path d="M49.544,68.413C49.544,67.452 49.811,66.741 50.345,66.279C50.791,65.895 51.335,65.703 51.976,65.703C52.689,65.703 53.271,65.936 53.724,66.403C54.176,66.871 54.403,67.516 54.403,68.339C54.403,69.007 54.303,69.532 54.102,69.914C53.902,70.297 53.611,70.594 53.228,70.805C52.846,71.017 52.428,71.123 51.976,71.123C51.25,71.123 50.663,70.89 50.216,70.424C49.768,69.959 49.544,69.288 49.544,68.413ZM50.448,68.413C50.448,69.077 50.592,69.574 50.882,69.904C51.172,70.235 51.536,70.4 51.976,70.4C52.412,70.4 52.775,70.234 53.065,69.902C53.354,69.57 53.499,69.064 53.499,68.383C53.499,67.742 53.354,67.256 53.062,66.926C52.771,66.595 52.409,66.43 51.976,66.43C51.536,66.43 51.172,66.595 50.882,66.923C50.592,67.252 50.448,67.749 50.448,68.413Z" style="fill-rule:nonzero;"/>
                <path d="M55.272,71.435L56.126,71.562C56.162,71.826 56.261,72.018 56.424,72.138C56.642,72.301 56.94,72.382 57.318,72.382C57.725,72.382 58.039,72.301 58.26,72.138C58.481,71.975 58.631,71.748 58.709,71.455C58.755,71.276 58.776,70.9 58.773,70.327C58.389,70.779 57.91,71.005 57.337,71.005C56.624,71.005 56.073,70.748 55.682,70.234C55.291,69.72 55.096,69.103 55.096,68.383C55.096,67.889 55.186,67.432 55.365,67.014C55.544,66.595 55.803,66.272 56.143,66.045C56.484,65.817 56.883,65.703 57.342,65.703C57.954,65.703 58.459,65.95 58.856,66.445L58.856,65.82L59.666,65.82L59.666,70.302C59.666,71.11 59.584,71.682 59.42,72.019C59.255,72.356 58.995,72.622 58.638,72.817C58.282,73.012 57.843,73.11 57.323,73.11C56.704,73.11 56.204,72.971 55.824,72.692C55.443,72.414 55.259,71.995 55.272,71.435ZM55.999,68.32C55.999,69 56.134,69.497 56.405,69.809C56.675,70.122 57.013,70.278 57.42,70.278C57.824,70.278 58.162,70.122 58.436,69.812C58.709,69.501 58.846,69.013 58.846,68.349C58.846,67.714 58.705,67.236 58.424,66.914C58.142,66.591 57.803,66.43 57.406,66.43C57.015,66.43 56.683,66.589 56.409,66.906C56.136,67.224 55.999,67.695 55.999,68.32Z" style="fill-rule:nonzero;"/>
            </g>
            <g id="border-bottom" serif:id="border bottom" transform="matrix(-0.239341,0,0,-0.144866,85.4196,259.027)">
                <path d="M32.129,26.046L38.009,24.619C46.689,12.496 71.643,6.206 91.166,28.051L95.005,25.919C78.51,6.168 48.19,2.44 32.129,26.046L32.129,26.046ZM28.007,48.514L27.315,44.128C-0.805,32.442 18.486,4.557 36.098,15.768L39.442,13.015C15.586,-3.636 -10.584,34.663 28.007,48.514ZM101.293,32.205L98.381,34.102C143.465,72.806 167.321,-4.158 212.669,27.112C167.796,-8.969 143.506,66.665 101.293,32.205L101.293,32.205ZM69.447,41.489L70.055,45.241C93.014,42.017 119.849,3.868 151.679,28.418L154.38,26.121C120.679,-2.201 89.595,38.255 69.447,41.489L69.447,41.489ZM46.522,19.164L43.647,21.675C49.58,27.679 49.709,33.831 50.562,43.593L54.831,42.826C54.305,34.076 53.345,25.602 46.522,19.164L46.522,19.164L46.522,19.164ZM53.73,26.936L54.68,30.56C62.76,33.159 65.389,40.041 63.289,52.76L67.019,52.557C69.223,39.206 67.357,29.825 53.73,26.936L53.73,26.936ZM30.109,36.913C28.13,44.222 29.298,60.71 47.969,60.798L48.655,57.041C33.468,56.453 32.574,43.57 35.542,34.553L30.109,36.913L30.109,36.913ZM14.435,43.024C-7.503,83.449 75.62,94.618 31.909,156.076L33.242,159.706C82.289,96.429 -0.59,80.554 18.07,45.914L14.435,43.024L14.435,43.024L14.435,43.024ZM60.945,43.297C53.85,45.823 44.713,46.537 37.197,46.323L37.906,49.601C43.566,50.338 56.427,48.673 61.323,46.926L60.945,43.297ZM50.955,51.315C50.846,63.443 51.634,75.345 36.302,88.072L38.584,91.16C54.048,79.243 54.904,68.279 54.794,50.7L50.955,51.315ZM56.575,56.372L56.828,60.359C82.688,53.405 84.097,67.322 79.592,72.068C75.087,76.815 64.758,73.121 66.164,61.032L62.561,61.246C60.275,75.792 74.794,82.981 82.875,75.191C90.913,67.442 84.935,48.223 56.575,56.372L56.575,56.372ZM29.904,93.237C-3.057,124.657 39.158,168.903 38.871,193.804C38.586,218.553 21.643,228.469 21.152,249.88C20.66,271.34 35.292,288.089 34.679,294.803C34.065,301.517 25.165,302.304 25.323,293.412C23.339,304.674 36.376,303.914 36.137,293.951C35.898,283.997 23.372,271.685 23.757,250.51C24.15,228.952 40.904,222.503 41.839,193.804C42.774,165.106 1.39,126.732 32.797,95.73L29.904,93.237L29.904,93.237ZM45.503,26.859C35.09,26.888 25.391,31.237 20.232,36.896L23.746,39.647C28.019,35.578 35.327,30.318 46.893,30.706L45.503,26.859ZM319.994,35.77C310.291,35.239 295.849,23.063 262.403,23.326C228.957,23.588 189.59,53.922 162.128,32.187L159.958,34.734C189.42,58.832 229.719,26.378 262.403,26.161C295.086,25.945 307.728,36.593 319.66,37.45C331.592,38.306 334.005,24.624 318.593,26.13C331.916,26.925 329.697,36.3 319.994,35.77ZM26.259,162.245C26.259,162.245 18.266,175.269 17.531,182.669C16.795,190.079 16.334,197.045 22.652,203.361C18.891,196.729 18.669,194.133 19.363,185.141C20.056,176.15 28.069,165.78 28.069,165.78L26.259,162.245L26.259,162.245Z"/>
            </g>
            <g id="border-top" serif:id="border top" transform="matrix(0.239341,0,0,0.144866,4.58044,18.7112)">
                <path d="M32.129,26.046L38.009,24.619C46.689,12.496 71.643,6.206 91.166,28.051L95.005,25.919C78.51,6.168 48.19,2.44 32.129,26.046L32.129,26.046ZM28.007,48.514L27.315,44.128C-0.805,32.442 18.486,4.557 36.098,15.768L39.442,13.015C15.586,-3.636 -10.584,34.663 28.007,48.514ZM101.293,32.205L98.381,34.102C143.465,72.806 167.321,-4.158 212.669,27.112C167.796,-8.969 143.506,66.665 101.293,32.205L101.293,32.205ZM69.447,41.489L70.055,45.241C93.014,42.017 119.849,3.868 151.679,28.418L154.38,26.121C120.679,-2.201 89.595,38.255 69.447,41.489L69.447,41.489ZM46.522,19.164L43.647,21.675C49.58,27.679 49.709,33.831 50.562,43.593L54.831,42.826C54.305,34.076 53.345,25.602 46.522,19.164L46.522,19.164L46.522,19.164ZM53.73,26.936L54.68,30.56C62.76,33.159 65.389,40.041 63.289,52.76L67.019,52.557C69.223,39.206 67.357,29.825 53.73,26.936L53.73,26.936ZM30.109,36.913C28.13,44.222 29.298,60.71 47.969,60.798L48.655,57.041C33.468,56.453 32.574,43.57 35.542,34.553L30.109,36.913L30.109,36.913ZM14.435,43.024C-7.503,83.449 75.62,94.618 31.909,156.076L33.242,159.706C82.289,96.429 -0.59,80.554 18.07,45.914L14.435,43.024L14.435,43.024L14.435,43.024ZM60.945,43.297C53.85,45.823 44.713,46.537 37.197,46.323L37.906,49.601C43.566,50.338 56.427,48.673 61.323,46.926L60.945,43.297ZM50.955,51.315C50.846,63.443 51.634,75.345 36.302,88.072L38.584,91.16C54.048,79.243 54.904,68.279 54.794,50.7L50.955,51.315ZM56.575,56.372L56.828,60.359C82.688,53.405 84.097,67.322 79.592,72.068C75.087,76.815 64.758,73.121 66.164,61.032L62.561,61.246C60.275,75.792 74.794,82.981 82.875,75.191C90.913,67.442 84.935,48.223 56.575,56.372L56.575,56.372ZM29.904,93.237C-3.057,124.657 39.158,168.903 38.871,193.804C38.586,218.553 21.643,228.469 21.152,249.88C20.66,271.34 35.292,288.089 34.679,294.803C34.065,301.517 25.165,302.304 25.323,293.412C23.339,304.674 36.376,303.914 36.137,293.951C35.898,283.997 23.372,271.685 23.757,250.51C24.15,228.952 40.904,222.503 41.839,193.804C42.774,165.106 1.39,126.732 32.797,95.73L29.904,93.237L29.904,93.237ZM45.503,26.859C35.09,26.888 25.391,31.237 20.232,36.896L23.746,39.647C28.019,35.578 35.327,30.318 46.893,30.706L45.503,26.859ZM319.994,35.77C310.291,35.239 295.849,23.063 262.403,23.326C228.957,23.588 189.59,53.922 162.128,32.187L159.958,34.734C189.42,58.832 229.719,26.378 262.403,26.161C295.086,25.945 307.728,36.593 319.66,37.45C331.592,38.306 334.005,24.624 318.593,26.13C331.916,26.925 329.697,36.3 319.994,35.77ZM26.259,162.245C26.259,162.245 18.266,175.269 17.531,182.669C16.795,190.079 16.334,197.045 22.652,203.361C18.891,196.729 18.669,194.133 19.363,185.141C20.056,176.15 28.069,165.78 28.069,165.78L26.259,162.245L26.259,162.245Z"/>
            </g>
        </g>
    </g>
</svg>
