<?xml version="1.0" encoding="UTF-8" standalone="no"?>
<!DOCTYPE svg PUBLIC "-//W3C//DTD SVG 1.1//EN" "http://www.w3.org/Graphics/SVG/1.1/DTD/svg11.dtd">
<svg width="100%" height="100%" viewBox="0 0 94 396" version="1.1" xmlns="http://www.w3.org/2000/svg" xmlns:xlink="http://www.w3.org/1999/xlink" xml:space="preserve" xmlns:serif="http://www.serif.com/" style="fill-rule:evenodd;clip-rule:evenodd;stroke-linejoin:round;stroke-miterlimit:1.41421;">
    <g transform="matrix(1.04167,0,0,1.04167,0,0)">
        <g id="Layer-0" serif:id="Layer 0" transform="matrix(1,0,0,1,0,3.05176e-05)">
            <rect id="rect1709" x="0" y="0" width="90" height="380" style="fill:white;"/>
            <g transform="matrix(1,0,0,1,7.74933,38)">
                <path d="M25.688,204.79L25.688,197.617L26.489,197.617L26.489,198.29C26.678,198.027 26.891,197.829 27.129,197.697C27.366,197.565 27.654,197.499 27.993,197.499C28.436,197.499 28.826,197.613 29.165,197.841C29.503,198.069 29.759,198.391 29.931,198.806C30.104,199.221 30.19,199.676 30.19,200.17C30.19,200.701 30.095,201.179 29.904,201.603C29.714,202.028 29.437,202.354 29.074,202.58C28.711,202.806 28.33,202.919 27.929,202.919C27.636,202.919 27.374,202.858 27.141,202.734C26.908,202.61 26.717,202.454 26.567,202.265L26.567,204.79L25.688,204.79ZM26.484,200.239C26.484,200.906 26.619,201.399 26.889,201.718C27.16,202.037 27.487,202.197 27.871,202.197C28.261,202.197 28.596,202.032 28.874,201.701C29.153,201.371 29.292,200.859 29.292,200.165C29.292,199.505 29.156,199.01 28.884,198.681C28.612,198.352 28.287,198.188 27.91,198.188C27.535,198.188 27.204,198.363 26.916,198.713C26.628,199.063 26.484,199.571 26.484,200.239Z" style="fill-rule:nonzero;"/>
                <path d="M34.633,202.163C34.308,202.439 33.995,202.635 33.694,202.748C33.392,202.862 33.069,202.919 32.724,202.919C32.155,202.919 31.717,202.78 31.411,202.502C31.105,202.224 30.952,201.868 30.952,201.435C30.952,201.181 31.01,200.949 31.125,200.739C31.241,200.529 31.392,200.361 31.579,200.234C31.766,200.107 31.977,200.011 32.212,199.946C32.384,199.9 32.645,199.856 32.993,199.814C33.702,199.729 34.225,199.628 34.56,199.511C34.563,199.391 34.565,199.314 34.565,199.282C34.565,198.924 34.482,198.671 34.316,198.525C34.091,198.326 33.758,198.227 33.315,198.227C32.902,198.227 32.597,198.299 32.4,198.444C32.203,198.589 32.057,198.845 31.963,199.213L31.103,199.096C31.181,198.728 31.31,198.431 31.489,198.205C31.668,197.979 31.927,197.805 32.265,197.683C32.604,197.561 32.996,197.499 33.442,197.499C33.885,197.499 34.244,197.552 34.521,197.656C34.798,197.76 35.001,197.891 35.132,198.049C35.262,198.207 35.353,198.406 35.405,198.647C35.434,198.797 35.449,199.067 35.449,199.457L35.449,200.629C35.449,201.446 35.468,201.963 35.505,202.18C35.542,202.396 35.617,202.604 35.727,202.802L34.809,202.802C34.718,202.62 34.66,202.407 34.633,202.163ZM34.56,200.2C34.241,200.33 33.763,200.441 33.125,200.532C32.763,200.584 32.508,200.642 32.358,200.707C32.208,200.773 32.093,200.868 32.011,200.993C31.93,201.118 31.889,201.258 31.889,201.411C31.889,201.645 31.978,201.84 32.155,201.997C32.333,202.153 32.592,202.231 32.934,202.231C33.273,202.231 33.574,202.157 33.838,202.009C34.101,201.861 34.295,201.658 34.419,201.401C34.513,201.202 34.56,200.909 34.56,200.522L34.56,200.2Z" style="fill-rule:nonzero;"/>
                <path d="M38.73,202.016L38.857,202.792C38.61,202.845 38.388,202.871 38.193,202.871C37.874,202.871 37.627,202.82 37.451,202.719C37.275,202.618 37.151,202.486 37.08,202.321C37.008,202.157 36.972,201.811 36.972,201.284L36.972,198.3L36.328,198.3L36.328,197.617L36.972,197.617L36.972,196.332L37.846,195.805L37.846,197.617L38.73,197.617L38.73,198.3L37.846,198.3L37.846,201.332C37.846,201.583 37.862,201.744 37.893,201.816C37.924,201.887 37.974,201.944 38.044,201.987C38.114,202.029 38.214,202.05 38.344,202.05C38.442,202.05 38.571,202.039 38.73,202.016Z" style="fill-rule:nonzero;"/>
                <path d="M42.973,200.903L43.838,201.015C43.743,201.611 43.501,202.077 43.112,202.414C42.723,202.751 42.246,202.919 41.679,202.919C40.97,202.919 40.399,202.687 39.968,202.224C39.537,201.76 39.321,201.095 39.321,200.229C39.321,199.669 39.414,199.179 39.599,198.759C39.785,198.339 40.067,198.024 40.446,197.814C40.826,197.604 41.238,197.499 41.684,197.499C42.247,197.499 42.708,197.642 43.066,197.927C43.424,198.212 43.654,198.616 43.755,199.14L42.9,199.272C42.819,198.924 42.675,198.662 42.468,198.486C42.261,198.31 42.011,198.222 41.718,198.222C41.276,198.222 40.916,198.381 40.639,198.698C40.363,199.016 40.224,199.518 40.224,200.205C40.224,200.901 40.358,201.407 40.625,201.723C40.892,202.039 41.24,202.197 41.67,202.197C42.015,202.197 42.303,202.091 42.534,201.879C42.765,201.668 42.911,201.342 42.973,200.903Z" style="fill-rule:nonzero;"/>
                <path d="M44.59,202.802L44.59,195.644L45.468,195.644L45.468,198.212C45.879,197.737 46.396,197.499 47.021,197.499C47.405,197.499 47.739,197.575 48.022,197.727C48.305,197.878 48.508,198.087 48.63,198.354C48.752,198.621 48.813,199.008 48.813,199.516L48.813,202.802L47.934,202.802L47.934,199.516C47.934,199.077 47.839,198.757 47.649,198.557C47.458,198.356 47.189,198.256 46.841,198.256C46.58,198.256 46.335,198.324 46.106,198.459C45.876,198.594 45.713,198.777 45.615,199.008C45.517,199.239 45.468,199.558 45.468,199.965L45.468,202.802L44.59,202.802Z" style="fill-rule:nonzero;"/>
            </g>
            <g transform="matrix(1,0,0,1,-10.7273,-3.52808)">
                <path d="M23.445,32.958L23.445,25.698L24.545,25.698L24.545,26.717C24.773,26.362 25.076,26.076 25.454,25.859C25.833,25.643 26.263,25.534 26.746,25.534C27.284,25.534 27.725,25.646 28.069,25.869C28.413,26.093 28.656,26.405 28.797,26.806C29.371,25.958 30.119,25.534 31.039,25.534C31.759,25.534 32.313,25.734 32.7,26.133C33.088,26.531 33.281,27.145 33.281,27.975L33.281,32.958L32.058,32.958L32.058,28.385C32.058,27.893 32.018,27.538 31.938,27.322C31.858,27.106 31.714,26.931 31.504,26.799C31.295,26.667 31.048,26.601 30.766,26.601C30.255,26.601 29.832,26.771 29.494,27.11C29.157,27.45 28.989,27.993 28.989,28.74L28.989,32.958L27.758,32.958L27.758,28.241C27.758,27.695 27.658,27.284 27.457,27.011C27.257,26.738 26.929,26.601 26.473,26.601C26.127,26.601 25.806,26.692 25.512,26.874C25.218,27.057 25.005,27.323 24.873,27.674C24.741,28.025 24.675,28.531 24.675,29.192L24.675,32.958L23.445,32.958Z" style="fill-rule:nonzero;"/>
                <path d="M34.772,30.313L36.002,30.149C36.143,30.846 36.384,31.348 36.723,31.656C37.063,31.964 37.476,32.117 37.964,32.117C38.543,32.117 39.032,31.917 39.43,31.516C39.829,31.115 40.029,30.618 40.029,30.026C40.029,29.461 39.844,28.995 39.475,28.628C39.106,28.261 38.636,28.077 38.067,28.077C37.834,28.077 37.545,28.123 37.198,28.214L37.335,27.134C37.417,27.143 37.483,27.148 37.533,27.148C38.058,27.148 38.529,27.011 38.948,26.738C39.368,26.464 39.577,26.043 39.577,25.473C39.577,25.022 39.425,24.648 39.119,24.352C38.814,24.056 38.42,23.907 37.937,23.907C37.458,23.907 37.059,24.058 36.74,24.359C36.421,24.659 36.216,25.111 36.125,25.712L34.895,25.493C35.045,24.669 35.387,24.029 35.92,23.576C36.453,23.122 37.116,22.896 37.909,22.896C38.456,22.896 38.96,23.013 39.42,23.248C39.88,23.482 40.232,23.803 40.476,24.208C40.72,24.614 40.842,25.044 40.842,25.5C40.842,25.933 40.726,26.327 40.493,26.683C40.261,27.038 39.917,27.321 39.461,27.53C40.054,27.667 40.514,27.951 40.842,28.382C41.17,28.812 41.334,29.351 41.334,29.998C41.334,30.873 41.015,31.615 40.377,32.223C39.739,32.832 38.933,33.136 37.957,33.136C37.078,33.136 36.347,32.874 35.766,32.35C35.185,31.826 34.854,31.147 34.772,30.313Z" style="fill-rule:nonzero;"/>
                <path d="M42.633,24.249L42.633,23.067L49.12,23.067L49.12,24.024C48.482,24.703 47.85,25.605 47.223,26.731C46.597,27.856 46.113,29.014 45.771,30.203C45.525,31.042 45.367,31.96 45.299,32.958L44.034,32.958C44.048,32.17 44.203,31.217 44.499,30.101C44.795,28.984 45.22,27.908 45.774,26.871C46.328,25.834 46.917,24.96 47.541,24.249L42.633,24.249Z" style="fill-rule:nonzero;"/>
                <path d="M54.281,32.958L54.281,30.559L49.934,30.559L49.934,29.431L54.507,22.937L55.512,22.937L55.512,29.431L56.865,29.431L56.865,30.559L55.512,30.559L55.512,32.958L54.281,32.958ZM54.281,29.431L54.281,24.912L51.144,29.431L54.281,29.431Z" style="fill-rule:nonzero;"/>
                <path d="M63.175,32.958L63.175,32.042C62.715,32.762 62.038,33.122 61.145,33.122C60.566,33.122 60.034,32.963 59.549,32.644C59.063,32.325 58.687,31.879 58.421,31.307C58.154,30.735 58.021,30.078 58.021,29.335C58.021,28.611 58.142,27.953 58.383,27.363C58.625,26.773 58.987,26.321 59.47,26.006C59.953,25.692 60.493,25.534 61.09,25.534C61.528,25.534 61.917,25.627 62.259,25.811C62.601,25.996 62.879,26.236 63.093,26.532L63.093,22.937L64.317,22.937L64.317,32.958L63.175,32.958ZM59.285,29.335C59.285,30.265 59.481,30.96 59.873,31.42C60.265,31.88 60.728,32.111 61.261,32.111C61.799,32.111 62.256,31.891 62.632,31.451C63.008,31.011 63.196,30.34 63.196,29.438C63.196,28.444 63.004,27.715 62.621,27.25C62.239,26.785 61.767,26.553 61.206,26.553C60.659,26.553 60.203,26.776 59.836,27.223C59.469,27.669 59.285,28.374 59.285,29.335Z" style="fill-rule:nonzero;"/>
                <path d="M69.854,32.958L69.854,30.559L65.506,30.559L65.506,29.431L70.079,22.937L71.084,22.937L71.084,29.431L72.438,29.431L72.438,30.559L71.084,30.559L71.084,32.958L69.854,32.958ZM69.854,29.431L69.854,24.912L66.716,29.431L69.854,29.431Z" style="fill-rule:nonzero;"/>
                <path d="M73.778,24.249L73.778,23.067L80.265,23.067L80.265,24.024C79.627,24.703 78.995,25.605 78.368,26.731C77.741,27.856 77.257,29.014 76.915,30.203C76.669,31.042 76.512,31.96 76.444,32.958L75.179,32.958C75.193,32.17 75.348,31.217 75.644,30.101C75.94,28.984 76.365,27.908 76.919,26.871C77.472,25.834 78.061,24.96 78.686,24.249L73.778,24.249Z" style="fill-rule:nonzero;"/>
                <path d="M85.426,32.958L85.426,30.559L81.078,30.559L81.078,29.431L85.652,22.937L86.656,22.937L86.656,29.431L88.01,29.431L88.01,30.559L86.656,30.559L86.656,32.958L85.426,32.958ZM85.426,29.431L85.426,24.912L82.288,29.431L85.426,29.431Z" style="fill-rule:nonzero;"/>
            </g>
            <g transform="matrix(1,0,0,1,20.0939,-28.2053)">
                <path d="M15.123,68.861C14.735,68.372 14.407,67.799 14.139,67.142C13.87,66.486 13.736,65.806 13.736,65.103C13.736,64.484 13.836,63.89 14.037,63.322C14.271,62.663 14.633,62.007 15.123,61.353L15.627,61.353C15.312,61.895 15.103,62.282 15.002,62.513C14.843,62.873 14.718,63.248 14.627,63.638C14.515,64.125 14.459,64.615 14.459,65.107C14.459,66.36 14.848,67.611 15.627,68.861L15.123,68.861Z" style="fill-rule:nonzero;"/>
                <path d="M16.443,67.178L16.443,63.029L17.072,63.029L17.072,63.611C17.202,63.408 17.376,63.245 17.592,63.121C17.808,62.997 18.054,62.935 18.33,62.935C18.637,62.935 18.889,62.999 19.086,63.127C19.282,63.254 19.421,63.433 19.502,63.662C19.83,63.178 20.257,62.935 20.783,62.935C21.195,62.935 21.511,63.049 21.732,63.277C21.954,63.505 22.064,63.856 22.064,64.33L22.064,67.178L21.365,67.178L21.365,64.564C21.365,64.283 21.342,64.081 21.297,63.957C21.251,63.833 21.168,63.734 21.049,63.658C20.929,63.582 20.788,63.545 20.627,63.545C20.335,63.545 20.093,63.642 19.9,63.836C19.708,64.03 19.611,64.34 19.611,64.767L19.611,67.178L18.908,67.178L18.908,64.482C18.908,64.17 18.851,63.935 18.736,63.779C18.622,63.623 18.434,63.545 18.174,63.545C17.976,63.545 17.793,63.597 17.625,63.701C17.457,63.805 17.335,63.957 17.26,64.158C17.184,64.359 17.146,64.648 17.146,65.025L17.146,67.178L16.443,67.178Z" style="fill-rule:nonzero;"/>
                <path d="M25.947,65.842L26.674,65.931C26.559,66.356 26.347,66.685 26.037,66.92C25.727,67.154 25.331,67.271 24.849,67.271C24.243,67.271 23.762,67.084 23.406,66.711C23.051,66.337 22.873,65.813 22.873,65.138C22.873,64.441 23.053,63.899 23.412,63.513C23.771,63.128 24.237,62.935 24.81,62.935C25.365,62.935 25.818,63.124 26.17,63.502C26.521,63.879 26.697,64.411 26.697,65.096C26.697,65.137 26.696,65.2 26.693,65.283L23.599,65.283C23.626,65.739 23.754,66.088 23.986,66.33C24.218,66.572 24.507,66.693 24.853,66.693C25.111,66.693 25.331,66.625 25.514,66.49C25.696,66.355 25.84,66.138 25.947,65.842ZM23.639,64.705L25.955,64.705C25.924,64.356 25.835,64.094 25.689,63.92C25.465,63.649 25.175,63.513 24.818,63.513C24.495,63.513 24.224,63.622 24.004,63.838C23.784,64.054 23.662,64.343 23.639,64.705Z" style="fill-rule:nonzero;"/>
                <path d="M29.092,66.549L29.193,67.17C28.995,67.211 28.818,67.232 28.662,67.232C28.407,67.232 28.209,67.192 28.068,67.111C27.928,67.03 27.829,66.924 27.771,66.793C27.714,66.661 27.685,66.385 27.685,65.963L27.685,63.576L27.17,63.576L27.17,63.029L27.685,63.029L27.685,62.002L28.385,61.58L28.385,63.029L29.092,63.029L29.092,63.576L28.385,63.576L28.385,66.002C28.385,66.202 28.397,66.331 28.422,66.388C28.446,66.446 28.487,66.491 28.543,66.525C28.599,66.559 28.679,66.576 28.783,66.576C28.861,66.576 28.964,66.567 29.092,66.549Z" style="fill-rule:nonzero;"/>
                <path d="M32.486,66.666C32.226,66.887 31.975,67.043 31.734,67.135C31.493,67.226 31.235,67.271 30.959,67.271C30.503,67.271 30.153,67.16 29.908,66.937C29.663,66.715 29.541,66.43 29.541,66.084C29.541,65.881 29.587,65.695 29.68,65.527C29.772,65.359 29.893,65.224 30.043,65.123C30.193,65.021 30.361,64.944 30.549,64.892C30.687,64.856 30.895,64.821 31.174,64.787C31.741,64.719 32.159,64.638 32.428,64.545C32.43,64.448 32.432,64.387 32.432,64.361C32.432,64.075 32.365,63.873 32.232,63.756C32.053,63.597 31.786,63.517 31.432,63.517C31.101,63.517 30.857,63.575 30.699,63.691C30.542,63.807 30.425,64.012 30.349,64.306L29.662,64.213C29.724,63.918 29.827,63.681 29.971,63.5C30.114,63.319 30.321,63.179 30.592,63.082C30.862,62.984 31.176,62.935 31.533,62.935C31.887,62.935 32.175,62.977 32.396,63.06C32.618,63.144 32.78,63.249 32.885,63.375C32.989,63.501 33.062,63.661 33.103,63.853C33.127,63.973 33.139,64.189 33.139,64.502L33.139,65.439C33.139,66.093 33.154,66.506 33.183,66.679C33.213,66.853 33.273,67.019 33.361,67.178L32.627,67.178C32.554,67.032 32.507,66.861 32.486,66.666ZM32.428,65.096C32.172,65.2 31.79,65.288 31.279,65.361C30.99,65.403 30.786,65.45 30.666,65.502C30.546,65.554 30.454,65.63 30.389,65.73C30.323,65.831 30.291,65.942 30.291,66.064C30.291,66.252 30.362,66.408 30.504,66.533C30.646,66.658 30.853,66.721 31.127,66.721C31.398,66.721 31.639,66.661 31.849,66.543C32.06,66.424 32.215,66.262 32.314,66.056C32.39,65.898 32.428,65.663 32.428,65.353L32.428,65.096Z" style="fill-rule:nonzero;"/>
                <path d="M34.689,68.861L34.185,68.861C34.964,67.611 35.353,66.36 35.353,65.107C35.353,64.618 35.297,64.132 35.185,63.65C35.097,63.26 34.973,62.885 34.814,62.525C34.713,62.291 34.503,61.9 34.185,61.353L34.689,61.353C35.179,62.007 35.541,62.663 35.775,63.322C35.976,63.89 36.076,64.484 36.076,65.103C36.076,65.806 35.941,66.486 35.672,67.142C35.402,67.799 35.075,68.372 34.689,68.861Z" style="fill-rule:nonzero;"/>
            </g>
            <g transform="matrix(1,0,0,1,20.5859,33.1936)">
                <path d="M8.58,302.464L8.58,296.737L10.553,296.737C10.998,296.737 11.338,296.765 11.572,296.819C11.9,296.895 12.18,297.031 12.412,297.229C12.714,297.485 12.94,297.811 13.09,298.208C13.24,298.605 13.314,299.059 13.314,299.569C13.314,300.004 13.264,300.39 13.162,300.725C13.061,301.061 12.93,301.339 12.772,301.559C12.613,301.779 12.439,301.953 12.25,302.079C12.061,302.205 11.833,302.301 11.566,302.366C11.3,302.431 10.993,302.464 10.647,302.464L8.58,302.464ZM9.338,301.788L10.561,301.788C10.938,301.788 11.234,301.753 11.449,301.682C11.664,301.612 11.835,301.513 11.963,301.386C12.143,301.206 12.283,300.964 12.383,300.661C12.483,300.358 12.533,299.99 12.533,299.557C12.533,298.959 12.435,298.498 12.238,298.177C12.042,297.855 11.803,297.64 11.522,297.53C11.318,297.452 10.992,297.413 10.541,297.413L9.338,297.413L9.338,301.788Z" style="fill-rule:nonzero;"/>
                <path d="M14.326,302.464L14.326,296.737L15.084,296.737L15.084,301.788L17.904,301.788L17.904,302.464L14.326,302.464Z" style="fill-rule:nonzero;"/>
                <path d="M19.482,302.464L18.213,298.315L18.939,298.315L19.6,300.71L19.846,301.6C19.856,301.556 19.928,301.271 20.061,300.745L20.721,298.315L21.443,298.315L22.064,300.722L22.272,301.515L22.51,300.714L23.221,298.315L23.904,298.315L22.607,302.464L21.877,302.464L21.217,299.979L21.057,299.272L20.217,302.464L19.482,302.464Z" style="fill-rule:nonzero;"/>
                <path d="M24.498,297.546L24.498,296.737L25.201,296.737L25.201,297.546L24.498,297.546ZM24.498,302.464L24.498,298.315L25.201,298.315L25.201,302.464L24.498,302.464Z" style="fill-rule:nonzero;"/>
                <path d="M26.143,302.807L26.826,302.909C26.855,303.12 26.934,303.274 27.064,303.37C27.239,303.5 27.477,303.565 27.779,303.565C28.105,303.565 28.356,303.5 28.533,303.37C28.71,303.24 28.83,303.057 28.893,302.823C28.929,302.68 28.946,302.379 28.943,301.921C28.636,302.283 28.253,302.464 27.795,302.464C27.225,302.464 26.783,302.258 26.471,301.847C26.158,301.435 26.002,300.942 26.002,300.366C26.002,299.97 26.074,299.605 26.217,299.27C26.36,298.936 26.568,298.677 26.84,298.495C27.112,298.313 27.432,298.222 27.799,298.222C28.288,298.222 28.692,298.419 29.01,298.815L29.01,298.315L29.658,298.315L29.658,301.901C29.658,302.547 29.592,303.005 29.461,303.274C29.329,303.544 29.121,303.757 28.836,303.913C28.551,304.069 28.2,304.147 27.783,304.147C27.288,304.147 26.889,304.036 26.584,303.813C26.279,303.591 26.132,303.255 26.143,302.807ZM26.725,300.315C26.725,300.86 26.833,301.257 27.049,301.507C27.265,301.757 27.536,301.882 27.861,301.882C28.184,301.882 28.455,301.757 28.674,301.509C28.893,301.26 29.002,300.87 29.002,300.339C29.002,299.831 28.889,299.448 28.664,299.19C28.439,298.932 28.167,298.804 27.85,298.804C27.537,298.804 27.272,298.931 27.053,299.184C26.834,299.438 26.725,299.815 26.725,300.315Z" style="fill-rule:nonzero;"/>
                <path d="M30.592,302.807L31.275,302.909C31.304,303.12 31.384,303.274 31.514,303.37C31.688,303.5 31.926,303.565 32.229,303.565C32.554,303.565 32.805,303.5 32.982,303.37C33.16,303.24 33.279,303.057 33.342,302.823C33.378,302.68 33.395,302.379 33.393,301.921C33.085,302.283 32.703,302.464 32.244,302.464C31.674,302.464 31.232,302.258 30.92,301.847C30.607,301.435 30.451,300.942 30.451,300.366C30.451,299.97 30.523,299.605 30.666,299.27C30.809,298.936 31.017,298.677 31.289,298.495C31.561,298.313 31.881,298.222 32.248,298.222C32.738,298.222 33.141,298.419 33.459,298.815L33.459,298.315L34.107,298.315L34.107,301.901C34.107,302.547 34.042,303.005 33.91,303.274C33.779,303.544 33.57,303.757 33.285,303.913C33,304.069 32.649,304.147 32.232,304.147C31.738,304.147 31.338,304.036 31.033,303.813C30.729,303.591 30.581,303.255 30.592,302.807ZM31.174,300.315C31.174,300.86 31.282,301.257 31.498,301.507C31.714,301.757 31.985,301.882 32.311,301.882C32.634,301.882 32.904,301.757 33.123,301.509C33.342,301.26 33.451,300.87 33.451,300.339C33.451,299.831 33.339,299.448 33.113,299.19C32.888,298.932 32.617,298.804 32.299,298.804C31.986,298.804 31.721,298.931 31.502,299.184C31.283,299.438 31.174,299.815 31.174,300.315Z" style="fill-rule:nonzero;"/>
                <rect x="35.154" y="296.737" width="0.703" height="5.727" style="fill-rule:nonzero;"/>
                <path d="M36.576,302.464L36.576,301.893L39.217,298.862C38.917,298.878 38.653,298.886 38.424,298.886L36.732,298.886L36.732,298.315L40.123,298.315L40.123,298.78L37.877,301.413L37.443,301.893C37.759,301.87 38.054,301.858 38.33,301.858L40.248,301.858L40.248,302.464L36.576,302.464Z" style="fill-rule:nonzero;"/>
            </g>
            <g transform="matrix(1,0,0,1,0.92693,71)">
                <path d="M32.132,69.106L32.996,69.218C32.902,69.814 32.66,70.28 32.271,70.617C31.882,70.954 31.405,71.123 30.838,71.123C30.129,71.123 29.558,70.891 29.127,70.427C28.695,69.963 28.48,69.298 28.48,68.432C28.48,67.872 28.573,67.382 28.758,66.962C28.944,66.543 29.226,66.228 29.605,66.018C29.985,65.808 30.397,65.703 30.843,65.703C31.406,65.703 31.867,65.845 32.225,66.13C32.583,66.415 32.812,66.819 32.913,67.343L32.059,67.475C31.978,67.127 31.833,66.865 31.627,66.689C31.42,66.513 31.17,66.425 30.877,66.425C30.435,66.425 30.075,66.584 29.798,66.901C29.521,67.219 29.383,67.721 29.383,68.408C29.383,69.104 29.517,69.611 29.784,69.926C30.05,70.242 30.399,70.4 30.828,70.4C31.173,70.4 31.462,70.294 31.693,70.083C31.924,69.871 32.07,69.545 32.132,69.106Z" style="fill-rule:nonzero;"/>
                <path d="M37.132,70.366C36.807,70.642 36.493,70.838 36.192,70.952C35.891,71.066 35.568,71.123 35.223,71.123C34.653,71.123 34.215,70.983 33.909,70.705C33.604,70.427 33.451,70.071 33.451,69.638C33.451,69.384 33.508,69.152 33.624,68.942C33.739,68.732 33.891,68.564 34.078,68.437C34.265,68.31 34.476,68.214 34.71,68.149C34.883,68.103 35.143,68.059 35.492,68.017C36.201,67.933 36.724,67.832 37.059,67.714C37.062,67.594 37.064,67.517 37.064,67.485C37.064,67.127 36.981,66.875 36.815,66.728C36.59,66.53 36.257,66.43 35.814,66.43C35.4,66.43 35.095,66.503 34.898,66.648C34.701,66.792 34.556,67.049 34.461,67.417L33.602,67.299C33.68,66.932 33.809,66.635 33.988,66.408C34.167,66.182 34.425,66.008 34.764,65.886C35.103,65.764 35.495,65.703 35.941,65.703C36.383,65.703 36.743,65.755 37.02,65.859C37.297,65.963 37.5,66.094 37.63,66.252C37.76,66.41 37.852,66.609 37.904,66.85C37.933,67 37.948,67.27 37.948,67.661L37.948,68.833C37.948,69.65 37.966,70.166 38.004,70.383C38.041,70.599 38.115,70.807 38.226,71.005L37.308,71.005C37.217,70.823 37.158,70.61 37.132,70.366ZM37.059,68.403C36.74,68.533 36.261,68.644 35.623,68.735C35.262,68.787 35.007,68.846 34.857,68.911C34.707,68.976 34.591,69.071 34.51,69.196C34.429,69.322 34.388,69.461 34.388,69.614C34.388,69.848 34.477,70.044 34.654,70.2C34.832,70.356 35.091,70.434 35.433,70.434C35.771,70.434 36.073,70.36 36.336,70.212C36.6,70.064 36.794,69.861 36.917,69.604C37.012,69.406 37.059,69.113 37.059,68.725L37.059,68.403Z" style="fill-rule:nonzero;"/>
                <path d="M41.229,70.219L41.356,70.996C41.108,71.048 40.887,71.074 40.692,71.074C40.373,71.074 40.125,71.023 39.95,70.922C39.774,70.822 39.65,70.689 39.578,70.524C39.507,70.36 39.471,70.014 39.471,69.487L39.471,66.503L38.826,66.503L38.826,65.82L39.471,65.82L39.471,64.536L40.345,64.008L40.345,65.82L41.229,65.82L41.229,66.503L40.345,66.503L40.345,69.536C40.345,69.786 40.361,69.947 40.391,70.019C40.422,70.091 40.473,70.148 40.543,70.19C40.613,70.232 40.713,70.253 40.843,70.253C40.941,70.253 41.069,70.242 41.229,70.219Z" style="fill-rule:nonzero;"/>
                <path d="M45.472,70.366C45.146,70.642 44.833,70.838 44.532,70.952C44.231,71.066 43.908,71.123 43.563,71.123C42.993,71.123 42.555,70.983 42.249,70.705C41.943,70.427 41.79,70.071 41.79,69.638C41.79,69.384 41.848,69.152 41.964,68.942C42.079,68.732 42.231,68.564 42.418,68.437C42.605,68.31 42.816,68.214 43.05,68.149C43.223,68.103 43.483,68.059 43.831,68.017C44.541,67.933 45.063,67.832 45.399,67.714C45.402,67.594 45.404,67.517 45.404,67.485C45.404,67.127 45.321,66.875 45.155,66.728C44.93,66.53 44.596,66.43 44.154,66.43C43.74,66.43 43.435,66.503 43.238,66.648C43.041,66.792 42.895,67.049 42.801,67.417L41.942,67.299C42.02,66.932 42.148,66.635 42.327,66.408C42.507,66.182 42.765,66.008 43.104,65.886C43.442,65.764 43.835,65.703 44.281,65.703C44.723,65.703 45.083,65.755 45.36,65.859C45.636,65.963 45.84,66.094 45.97,66.252C46.1,66.41 46.191,66.609 46.243,66.85C46.273,67 46.287,67.27 46.287,67.661L46.287,68.833C46.287,69.65 46.306,70.166 46.344,70.383C46.381,70.599 46.455,70.807 46.566,71.005L45.648,71.005C45.557,70.823 45.498,70.61 45.472,70.366ZM45.399,68.403C45.08,68.533 44.601,68.644 43.963,68.735C43.602,68.787 43.346,68.846 43.197,68.911C43.047,68.976 42.931,69.071 42.85,69.196C42.769,69.322 42.728,69.461 42.728,69.614C42.728,69.848 42.817,70.044 42.994,70.2C43.171,70.356 43.431,70.434 43.773,70.434C44.111,70.434 44.412,70.36 44.676,70.212C44.94,70.064 45.133,69.861 45.257,69.604C45.352,69.406 45.399,69.113 45.399,68.725L45.399,68.403Z" style="fill-rule:nonzero;"/>
                <rect x="47.63" y="63.847" width="0.879" height="7.158" style="fill-rule:nonzero;"/>
                <path d="M49.544,68.413C49.544,67.452 49.811,66.741 50.345,66.279C50.791,65.895 51.335,65.703 51.976,65.703C52.689,65.703 53.271,65.936 53.724,66.403C54.176,66.871 54.403,67.516 54.403,68.339C54.403,69.007 54.303,69.532 54.102,69.914C53.902,70.297 53.611,70.594 53.228,70.805C52.846,71.017 52.428,71.123 51.976,71.123C51.25,71.123 50.663,70.89 50.216,70.424C49.768,69.959 49.544,69.288 49.544,68.413ZM50.448,68.413C50.448,69.077 50.592,69.574 50.882,69.904C51.172,70.235 51.536,70.4 51.976,70.4C52.412,70.4 52.775,70.234 53.065,69.902C53.354,69.57 53.499,69.064 53.499,68.383C53.499,67.742 53.354,67.256 53.062,66.926C52.771,66.595 52.409,66.43 51.976,66.43C51.536,66.43 51.172,66.595 50.882,66.923C50.592,67.252 50.448,67.749 50.448,68.413Z" style="fill-rule:nonzero;"/>
                <path d="M55.272,71.435L56.126,71.562C56.162,71.826 56.261,72.018 56.424,72.138C56.642,72.301 56.94,72.382 57.318,72.382C57.725,72.382 58.039,72.301 58.26,72.138C58.481,71.975 58.631,71.748 58.709,71.455C58.755,71.276 58.776,70.9 58.773,70.327C58.389,70.779 57.91,71.005 57.337,71.005C56.624,71.005 56.073,70.748 55.682,70.234C55.291,69.72 55.096,69.103 55.096,68.383C55.096,67.889 55.186,67.432 55.365,67.014C55.544,66.595 55.803,66.272 56.143,66.045C56.484,65.817 56.883,65.703 57.342,65.703C57.954,65.703 58.459,65.95 58.856,66.445L58.856,65.82L59.666,65.82L59.666,70.302C59.666,71.11 59.584,71.682 59.42,72.019C59.255,72.356 58.995,72.622 58.638,72.817C58.282,73.012 57.843,73.11 57.323,73.11C56.704,73.11 56.204,72.971 55.824,72.692C55.443,72.414 55.259,71.995 55.272,71.435ZM55.999,68.32C55.999,69 56.134,69.497 56.405,69.809C56.675,70.122 57.013,70.278 57.42,70.278C57.824,70.278 58.162,70.122 58.436,69.812C58.709,69.501 58.846,69.013 58.846,68.349C58.846,67.714 58.705,67.236 58.424,66.914C58.142,66.591 57.803,66.43 57.406,66.43C57.015,66.43 56.683,66.589 56.409,66.906C56.136,67.224 55.999,67.695 55.999,68.32Z" style="fill-rule:nonzero;"/>
            </g>
        </g>
    </g>
</svg>
