<?xml version="1.0" encoding="UTF-8" standalone="no"?>
<!DOCTYPE svg PUBLIC "-//W3C//DTD SVG 1.1//EN" "http://www.w3.org/Graphics/SVG/1.1/DTD/svg11.dtd">
<svg width="90px" height="380px" version="1.1" xmlns="http://www.w3.org/2000/svg" xmlns:xlink="http://www.w3.org/1999/xlink" xml:space="preserve" xmlns:serif="http://www.serif.com/" style="fill-rule:evenodd;clip-rule:evenodd;stroke-linejoin:round;stroke-miterlimit:1.41421;">
    <g id="Layer-0" serif:id="Layer 0" transform="matrix(1,0,0,1,0,3.05176e-05)">
        <rect id="background" x="0" y="0" width="90" height="380" style="fill:white;"/>
        <g id="guy" transform="matrix(0.0723112,0,0,0.0603557,18.6064,290.921)">
            <path d="M365.013,467.444C371.602,467.444 372.294,466.986 384.295,482.467C391.32,491.525 406.514,510.849 414.572,522.459L535.268,522.014C550.307,521.335 551.967,519.605 558.191,515.137C569.567,506.972 580.182,493.164 605.094,454.104C612.618,442.304 622.226,427.414 626.442,421.023C632.845,410.733 630.505,409.069 647.413,405.697C635.169,436.059 619.511,471.833 609.028,487.733C588.404,519.014 555.548,552.549 490.451,573.467C541.09,564.69 557.127,549.275 590.861,521.739C567.941,569.059 535.981,611.833 506.428,655.027C572.854,584.363 636.545,506.037 670.573,414.077C676.468,396.054 683.162,371.344 682.375,370.561C669.863,384.574 654.65,400.127 622.369,400.873C573.529,402 535.918,387.093 500.646,360.435C496.933,363.144 492.415,365.509 492.333,371.041C492.257,376.232 497.953,381.956 509.096,388.249C527.396,398.583 574.36,410.793 595.789,410.793C598.501,410.793 600.715,411.049 600.715,411.374C600.715,411.702 588.123,427.711 572.731,446.92C549.103,476.401 544.112,482.047 540.708,483.218C532.811,485.94 488.683,484.143 464.964,480.14C453.591,478.22 448.508,476.111 442.42,470.765C431.388,459.506 422.999,445.604 411.733,434.878C399.242,439.592 385.972,444.492 365,444.732C348.635,444.915 333.359,440.505 318.268,434.878C307.003,445.604 298.612,459.506 287.58,470.765C281.492,476.111 276.41,478.22 265.035,480.14C241.316,484.143 197.19,485.94 189.292,483.218C185.888,482.047 180.896,476.401 157.27,446.92C141.876,427.711 129.286,411.702 129.286,411.374C129.286,411.049 131.499,410.793 134.212,410.793C155.639,410.793 202.605,398.583 220.903,388.249C232.047,381.956 237.742,376.232 237.667,371.041C237.586,365.509 233.069,363.144 229.353,360.435C194.082,387.093 156.471,402 107.63,400.873C75.35,400.127 60.138,384.574 47.624,370.561C46.84,371.344 53.531,396.054 59.427,414.077C93.454,506.037 157.148,584.363 223.571,655.027C194.019,611.833 162.061,569.059 139.139,521.739C172.873,549.275 188.911,564.69 239.548,573.467C174.451,552.549 141.597,519.014 120.973,487.733C110.488,471.833 94.833,436.059 82.587,405.697C99.496,409.069 97.155,410.733 103.559,421.023C107.774,427.414 117.38,442.304 124.907,454.104C149.818,493.164 160.434,506.972 171.81,515.137C178.034,519.605 179.693,521.335 194.732,522.014L315.428,522.459C323.486,510.849 338.679,491.525 345.705,482.467C357.706,466.986 358.423,467.444 365.013,467.444ZM163.463,6.521C121.321,6.942 83.129,30.726 63.874,94.307C98.041,76.218 142.12,76.595 179.952,89.586C230.397,106.908 273.55,146.643 310.844,198.411C306.695,168.367 294.206,137.181 286.246,121.06C293.602,122.256 303.976,125.842 308.552,120.205C313.494,114.117 309.609,107.932 304.72,102.826C265.248,61.593 212.019,34.739 154.465,32.453C191.648,30.733 238.509,36.901 280.191,53.562C246.109,26.348 203.051,6.127 163.463,6.521L163.463,6.521ZM566.539,6.521C526.951,6.127 483.89,26.348 449.809,53.562C491.49,36.901 538.352,30.733 575.534,32.453C517.981,34.739 464.753,61.593 425.279,102.826C420.391,107.932 416.507,114.117 421.449,120.205C426.024,125.842 436.399,122.256 443.753,121.06C435.793,137.181 423.305,168.367 419.156,198.411C456.452,146.643 499.604,106.908 550.048,89.586C587.88,76.595 631.958,76.218 666.127,94.307C646.87,30.726 608.681,6.942 566.539,6.521L566.539,6.521ZM187.821,158.829C168.965,159.015 153.156,161.814 141.225,167.006C117.663,177.259 103.203,216.598 82.075,218.664C63.094,220.52 52.173,194.207 44.134,180.211C49.155,196.084 57.589,212.408 68.253,223.898C57.358,230.831 45.699,237.831 37.737,248.052C51.876,238.397 66.018,228.869 79.372,230.399C63.626,239.047 41.362,251.074 30.587,270.631C49.326,252.203 71.971,235.454 99.248,236.933C107.128,237.36 109.493,238.012 119.023,242.544C143.104,256.344 169.451,256.686 196.1,256.399L196.1,240.08C177.156,240.032 158.247,237.708 139.686,233.991C131.882,232.007 118.449,225.628 115.738,222.633C113.895,220.596 113.919,220.262 116.285,214.661C122.426,200.133 132.392,188.543 144.886,180.724C160.167,171.161 178.339,169.413 195.929,169.913C195.985,169.915 196.044,169.911 196.1,169.913L196.1,158.966C196.011,158.963 195.84,158.934 195.758,158.932C194.358,158.894 192.988,158.841 191.619,158.829C190.334,158.82 189.078,158.817 187.821,158.829L187.821,158.829ZM538.381,158.829C537.014,158.842 535.643,158.894 534.242,158.932C534.159,158.934 533.989,158.963 533.901,158.966L533.901,169.913C533.957,169.911 534.014,169.914 534.071,169.913C551.661,169.413 569.832,171.161 585.114,180.724C597.608,188.543 607.576,200.132 613.714,214.661C616.082,220.262 616.104,220.596 614.263,222.633C611.551,225.628 598.119,232.007 590.314,233.991C571.752,237.708 552.845,240.032 533.901,240.08L533.901,256.399C560.549,256.685 586.895,256.344 610.977,242.543C620.506,238.011 622.871,237.36 630.751,236.933C658.029,235.454 680.674,252.203 699.413,270.631C688.637,251.073 666.374,239.047 650.628,230.399C663.984,228.869 678.122,238.397 692.265,248.052C684.302,237.831 672.641,230.831 661.748,223.898C672.411,212.408 680.844,196.084 685.865,180.211C677.829,194.207 666.907,220.52 647.925,218.664C626.798,216.598 612.337,177.259 588.773,167.005C576.845,161.814 561.035,159.015 542.179,158.829C540.923,158.817 539.666,158.819 538.381,158.829L538.381,158.829ZM208.245,160.471L208.245,171.111C236.729,175.624 269.332,191.832 276.838,206.93C254.649,191.5 228.959,179.014 201.539,179.424C183.739,179.69 161.495,184.241 144.134,193.861C135.371,198.717 122.987,209.61 122.786,212.985C121.993,226.245 181.372,233.505 202.703,232.588C227.685,231.524 252.861,230.352 275.093,219.451C262.433,236.61 232.507,239.121 208.245,239.841L208.245,256.091C246.312,253.937 293.085,236.699 292.917,214.388C292.661,180.224 235.192,165.022 208.245,160.471ZM521.754,160.471C494.808,165.022 437.34,180.224 437.084,214.388C436.917,236.699 483.688,253.937 521.754,256.091L521.754,239.841C497.492,239.121 467.566,236.61 454.908,219.451C477.139,230.352 502.313,231.524 527.298,232.588C548.63,233.505 608.005,226.245 607.216,212.985C607.014,209.61 594.627,198.717 585.865,193.861C568.506,184.241 546.262,179.69 528.46,179.424C501.041,179.014 475.352,191.5 453.162,206.93C460.667,191.832 493.271,175.624 521.754,171.111L521.754,160.471L521.754,160.471ZM322.578,178.158C322.463,244.557 312.119,290.875 270.03,341.825C260.694,353.126 249.626,365.399 249.127,380.826C248.752,392.423 254.179,402.918 261.169,412.984C257.086,403.098 254.377,393.434 255.525,382.673C256.532,373.226 263.167,366.624 282.517,347.572C301.133,329.243 304.637,324.873 308.005,328.517C309.494,330.127 309.272,339.423 307.183,356.296C304.175,380.599 305.217,397.248 310.399,407.509C315.721,418.046 329.73,426.65 348.783,431.114C352.894,432.077 358.811,432.346 365,432.346C371.188,432.346 377.106,432.077 381.217,431.114C400.268,426.65 414.278,418.046 419.601,407.509C424.783,397.248 425.825,380.599 422.816,356.296C420.729,339.423 420.504,330.127 421.995,328.517C425.364,324.873 428.868,329.243 447.482,347.572C466.833,366.624 473.467,373.226 474.474,382.673C475.624,393.434 472.915,403.098 468.832,412.984C475.823,402.918 481.247,392.423 480.875,380.826C480.376,365.399 469.306,353.126 459.969,341.825C417.881,290.875 407.537,244.557 407.423,178.158C400.13,213.028 401.156,265.155 402.494,310.076C403.341,338.431 405.589,357.013 408.585,374.189C411.424,390.469 411.01,402.855 405.301,407.509C394.481,416.331 379.373,419.505 365,419.517C350.627,419.53 335.526,416.366 324.699,407.509C318.997,402.846 318.576,390.469 321.415,374.189C324.41,357.013 326.659,338.431 327.505,310.076C328.844,265.155 329.87,213.028 322.578,178.158L322.578,178.158ZM287.17,411.204C285.607,411.257 284.139,411.481 282.825,411.889C280.35,412.656 280.133,416.518 283.236,420.613C286.77,424.812 290.545,426.814 298.699,428.822C306.679,430.789 311.077,430.859 311.597,428.311C313.558,418.68 298.11,410.831 287.17,411.204L287.17,411.204ZM442.831,411.204C431.89,410.831 416.441,418.68 418.405,428.311C418.923,430.859 423.321,430.789 431.3,428.822C439.455,426.814 443.228,424.812 446.765,420.613C449.869,416.518 449.651,412.656 447.175,411.889C445.862,411.481 444.394,411.257 442.831,411.204ZM278.617,526.908C276.835,528.527 274.105,530.043 275.504,532.244C277.026,534.637 292.025,538.312 313.204,539.326C347.631,540.974 382.366,541.602 416.794,539.326C437.965,537.924 452.975,534.637 454.497,532.244C455.896,530.043 453.165,528.527 451.384,526.908L278.617,526.908L278.617,526.908ZM321.963,592.522C335.147,608 342.694,616.064 342.626,627.863C342.5,649.988 332.915,652.615 333.902,687.836C334.695,716.117 339.276,734.547 341.908,752.494C348.171,795.204 355.483,795.873 365,795.873C374.516,795.873 381.829,795.204 388.093,752.494C390.724,734.547 395.305,716.117 396.098,687.836C397.086,652.615 387.5,649.988 387.374,627.863C387.307,616.064 394.853,608 408.039,592.522L321.963,592.522Z" style="fill-rule:nonzero;"/>
        </g>
        <g transform="matrix(1,0,0,1,6.8924,34.7165)">
            <text x="25.029px" y="202.802px" style="font-family:'ComicSansMS', 'Comic Sans MS', cursive;font-size:10px;">patch</text>
        </g>
        <g transform="matrix(1,0,0,1,-3.34789,12.8599)">
            <text x="22.522px" y="32.958px" style="font-family:'ComicSansMS', 'Comic Sans MS', cursive;font-size:14px;">r4xH4x</text>
        </g>
        <g transform="matrix(1,0,0,1,16.4455,83.4014)">
            <text x="13.252px" y="67.178px" style="font-family:'ComicSansMS', 'Comic Sans MS', cursive;font-size:8px;">(partial)</text>
        </g>
        <g transform="matrix(1,0,0,1,24.6987,-14.1796)">
            <text x="7.963px" y="302.464px" style="font-family:'ComicSansMS', 'Comic Sans MS', cursive;font-size:6px;">DLwigglz</text>
        </g>
        <g transform="matrix(1,0,0,1,0.148121,71)">
            <text x="28.089px" y="71.005px" style="font-family:'ComicSansMS', 'Comic Sans MS', cursive;font-size:10px;">catalog</text>
        </g>
        <g id="border-bottom" serif:id="border bottom" transform="matrix(-0.239341,0,0,-0.144866,85.4196,259.027)">
            <path d="M32.129,26.046L38.009,24.619C46.689,12.496 71.643,6.206 91.166,28.051L95.005,25.919C78.51,6.168 48.19,2.44 32.129,26.046L32.129,26.046ZM28.007,48.514L27.315,44.128C-0.805,32.442 18.486,4.557 36.098,15.768L39.442,13.015C15.586,-3.636 -10.584,34.663 28.007,48.514ZM101.293,32.205L98.381,34.102C143.465,72.806 167.321,-4.158 212.669,27.112C167.796,-8.969 143.506,66.665 101.293,32.205L101.293,32.205ZM69.447,41.489L70.055,45.241C93.014,42.017 119.849,3.868 151.679,28.418L154.38,26.121C120.679,-2.201 89.595,38.255 69.447,41.489L69.447,41.489ZM46.522,19.164L43.647,21.675C49.58,27.679 49.709,33.831 50.562,43.593L54.831,42.826C54.305,34.076 53.345,25.602 46.522,19.164L46.522,19.164L46.522,19.164ZM53.73,26.936L54.68,30.56C62.76,33.159 65.389,40.041 63.289,52.76L67.019,52.557C69.223,39.206 67.357,29.825 53.73,26.936L53.73,26.936ZM30.109,36.913C28.13,44.222 29.298,60.71 47.969,60.798L48.655,57.041C33.468,56.453 32.574,43.57 35.542,34.553L30.109,36.913L30.109,36.913ZM14.435,43.024C-7.503,83.449 75.62,94.618 31.909,156.076L33.242,159.706C82.289,96.429 -0.59,80.554 18.07,45.914L14.435,43.024L14.435,43.024L14.435,43.024ZM60.945,43.297C53.85,45.823 44.713,46.537 37.197,46.323L37.906,49.601C43.566,50.338 56.427,48.673 61.323,46.926L60.945,43.297ZM50.955,51.315C50.846,63.443 51.634,75.345 36.302,88.072L38.584,91.16C54.048,79.243 54.904,68.279 54.794,50.7L50.955,51.315ZM56.575,56.372L56.828,60.359C82.688,53.405 84.097,67.322 79.592,72.068C75.087,76.815 64.758,73.121 66.164,61.032L62.561,61.246C60.275,75.792 74.794,82.981 82.875,75.191C90.913,67.442 84.935,48.223 56.575,56.372L56.575,56.372ZM29.904,93.237C-3.057,124.657 39.158,168.903 38.871,193.804C38.586,218.553 21.643,228.469 21.152,249.88C20.66,271.34 35.292,288.089 34.679,294.803C34.065,301.517 25.165,302.304 25.323,293.412C23.339,304.674 36.376,303.914 36.137,293.951C35.898,283.997 23.372,271.685 23.757,250.51C24.15,228.952 40.904,222.503 41.839,193.804C42.774,165.106 1.39,126.732 32.797,95.73L29.904,93.237L29.904,93.237ZM45.503,26.859C35.09,26.888 25.391,31.237 20.232,36.896L23.746,39.647C28.019,35.578 35.327,30.318 46.893,30.706L45.503,26.859ZM319.994,35.77C310.291,35.239 295.849,23.063 262.403,23.326C228.957,23.588 189.59,53.922 162.128,32.187L159.958,34.734C189.42,58.832 229.719,26.378 262.403,26.161C295.086,25.945 307.728,36.593 319.66,37.45C331.592,38.306 334.005,24.624 318.593,26.13C331.916,26.925 329.697,36.3 319.994,35.77ZM26.259,162.245C26.259,162.245 18.266,175.269 17.531,182.669C16.795,190.079 16.334,197.045 22.652,203.361C18.891,196.729 18.669,194.133 19.363,185.141C20.056,176.15 28.069,165.78 28.069,165.78L26.259,162.245L26.259,162.245Z"/>
        </g>
        <g id="border-top" serif:id="border top" transform="matrix(0.239341,0,0,0.144866,4.58044,18.7112)">
            <path d="M32.129,26.046L38.009,24.619C46.689,12.496 71.643,6.206 91.166,28.051L95.005,25.919C78.51,6.168 48.19,2.44 32.129,26.046L32.129,26.046ZM28.007,48.514L27.315,44.128C-0.805,32.442 18.486,4.557 36.098,15.768L39.442,13.015C15.586,-3.636 -10.584,34.663 28.007,48.514ZM101.293,32.205L98.381,34.102C143.465,72.806 167.321,-4.158 212.669,27.112C167.796,-8.969 143.506,66.665 101.293,32.205L101.293,32.205ZM69.447,41.489L70.055,45.241C93.014,42.017 119.849,3.868 151.679,28.418L154.38,26.121C120.679,-2.201 89.595,38.255 69.447,41.489L69.447,41.489ZM46.522,19.164L43.647,21.675C49.58,27.679 49.709,33.831 50.562,43.593L54.831,42.826C54.305,34.076 53.345,25.602 46.522,19.164L46.522,19.164L46.522,19.164ZM53.73,26.936L54.68,30.56C62.76,33.159 65.389,40.041 63.289,52.76L67.019,52.557C69.223,39.206 67.357,29.825 53.73,26.936L53.73,26.936ZM30.109,36.913C28.13,44.222 29.298,60.71 47.969,60.798L48.655,57.041C33.468,56.453 32.574,43.57 35.542,34.553L30.109,36.913L30.109,36.913ZM14.435,43.024C-7.503,83.449 75.62,94.618 31.909,156.076L33.242,159.706C82.289,96.429 -0.59,80.554 18.07,45.914L14.435,43.024L14.435,43.024L14.435,43.024ZM60.945,43.297C53.85,45.823 44.713,46.537 37.197,46.323L37.906,49.601C43.566,50.338 56.427,48.673 61.323,46.926L60.945,43.297ZM50.955,51.315C50.846,63.443 51.634,75.345 36.302,88.072L38.584,91.16C54.048,79.243 54.904,68.279 54.794,50.7L50.955,51.315ZM56.575,56.372L56.828,60.359C82.688,53.405 84.097,67.322 79.592,72.068C75.087,76.815 64.758,73.121 66.164,61.032L62.561,61.246C60.275,75.792 74.794,82.981 82.875,75.191C90.913,67.442 84.935,48.223 56.575,56.372L56.575,56.372ZM29.904,93.237C-3.057,124.657 39.158,168.903 38.871,193.804C38.586,218.553 21.643,228.469 21.152,249.88C20.66,271.34 35.292,288.089 34.679,294.803C34.065,301.517 25.165,302.304 25.323,293.412C23.339,304.674 36.376,303.914 36.137,293.951C35.898,283.997 23.372,271.685 23.757,250.51C24.15,228.952 40.904,222.503 41.839,193.804C42.774,165.106 1.39,126.732 32.797,95.73L29.904,93.237L29.904,93.237ZM45.503,26.859C35.09,26.888 25.391,31.237 20.232,36.896L23.746,39.647C28.019,35.578 35.327,30.318 46.893,30.706L45.503,26.859ZM319.994,35.77C310.291,35.239 295.849,23.063 262.403,23.326C228.957,23.588 189.59,53.922 162.128,32.187L159.958,34.734C189.42,58.832 229.719,26.378 262.403,26.161C295.086,25.945 307.728,36.593 319.66,37.45C331.592,38.306 334.005,24.624 318.593,26.13C331.916,26.925 329.697,36.3 319.994,35.77ZM26.259,162.245C26.259,162.245 18.266,175.269 17.531,182.669C16.795,190.079 16.334,197.045 22.652,203.361C18.891,196.729 18.669,194.133 19.363,185.141C20.056,176.15 28.069,165.78 28.069,165.78L26.259,162.245L26.259,162.245Z"/>
        </g>
    </g>
</svg>
