<?xml version="1.0" encoding="UTF-8" standalone="no"?>
<!DOCTYPE svg PUBLIC "-//W3C//DTD SVG 1.1//EN" "http://www.w3.org/Graphics/SVG/1.1/DTD/svg11.dtd">
<svg width="100%" height="100%" viewBox="0 0 94 396" version="1.1" xmlns="http://www.w3.org/2000/svg" xmlns:xlink="http://www.w3.org/1999/xlink" xml:space="preserve" xmlns:serif="http://www.serif.com/" style="fill-rule:evenodd;clip-rule:evenodd;stroke-linejoin:round;stroke-miterlimit:1.41421;">
    <g transform="matrix(1.04167,0,0,1.04167,0,0)">
        <g id="Layer-0" serif:id="Layer 0" transform="matrix(1,0,0,1,0,3.05176e-05)">
            <rect id="background" x="0" y="0" width="90" height="380" style="fill:white;"/>
            <g transform="matrix(1,0,0,1,7.74933,38)">
                <path d="M25.688,204.79L25.688,197.617L26.489,197.617L26.489,198.29C26.678,198.027 26.891,197.829 27.129,197.697C27.366,197.565 27.654,197.499 27.993,197.499C28.436,197.499 28.826,197.613 29.165,197.841C29.503,198.069 29.759,198.391 29.931,198.806C30.104,199.221 30.19,199.676 30.19,200.17C30.19,200.701 30.095,201.179 29.904,201.603C29.714,202.028 29.437,202.354 29.074,202.58C28.711,202.806 28.33,202.919 27.929,202.919C27.636,202.919 27.374,202.858 27.141,202.734C26.908,202.61 26.717,202.454 26.567,202.265L26.567,204.79L25.688,204.79ZM26.484,200.239C26.484,200.906 26.619,201.399 26.889,201.718C27.16,202.037 27.487,202.197 27.871,202.197C28.261,202.197 28.596,202.032 28.874,201.701C29.153,201.371 29.292,200.859 29.292,200.165C29.292,199.505 29.156,199.01 28.884,198.681C28.612,198.352 28.287,198.188 27.91,198.188C27.535,198.188 27.204,198.363 26.916,198.713C26.628,199.063 26.484,199.571 26.484,200.239Z" style="fill-rule:nonzero;"/>
                <path d="M34.633,202.163C34.308,202.439 33.995,202.635 33.694,202.748C33.392,202.862 33.069,202.919 32.724,202.919C32.155,202.919 31.717,202.78 31.411,202.502C31.105,202.224 30.952,201.868 30.952,201.435C30.952,201.181 31.01,200.949 31.125,200.739C31.241,200.529 31.392,200.361 31.579,200.234C31.766,200.107 31.977,200.011 32.212,199.946C32.384,199.9 32.645,199.856 32.993,199.814C33.702,199.729 34.225,199.628 34.56,199.511C34.563,199.391 34.565,199.314 34.565,199.282C34.565,198.924 34.482,198.671 34.316,198.525C34.091,198.326 33.758,198.227 33.315,198.227C32.902,198.227 32.597,198.299 32.4,198.444C32.203,198.589 32.057,198.845 31.963,199.213L31.103,199.096C31.181,198.728 31.31,198.431 31.489,198.205C31.668,197.979 31.927,197.805 32.265,197.683C32.604,197.561 32.996,197.499 33.442,197.499C33.885,197.499 34.244,197.552 34.521,197.656C34.798,197.76 35.001,197.891 35.132,198.049C35.262,198.207 35.353,198.406 35.405,198.647C35.434,198.797 35.449,199.067 35.449,199.457L35.449,200.629C35.449,201.446 35.468,201.963 35.505,202.18C35.542,202.396 35.617,202.604 35.727,202.802L34.809,202.802C34.718,202.62 34.66,202.407 34.633,202.163ZM34.56,200.2C34.241,200.33 33.763,200.441 33.125,200.532C32.763,200.584 32.508,200.642 32.358,200.707C32.208,200.773 32.093,200.868 32.011,200.993C31.93,201.118 31.889,201.258 31.889,201.411C31.889,201.645 31.978,201.84 32.155,201.997C32.333,202.153 32.592,202.231 32.934,202.231C33.273,202.231 33.574,202.157 33.838,202.009C34.101,201.861 34.295,201.658 34.419,201.401C34.513,201.202 34.56,200.909 34.56,200.522L34.56,200.2Z" style="fill-rule:nonzero;"/>
                <path d="M38.73,202.016L38.857,202.792C38.61,202.845 38.388,202.871 38.193,202.871C37.874,202.871 37.627,202.82 37.451,202.719C37.275,202.618 37.151,202.486 37.08,202.321C37.008,202.157 36.972,201.811 36.972,201.284L36.972,198.3L36.328,198.3L36.328,197.617L36.972,197.617L36.972,196.332L37.846,195.805L37.846,197.617L38.73,197.617L38.73,198.3L37.846,198.3L37.846,201.332C37.846,201.583 37.862,201.744 37.893,201.816C37.924,201.887 37.974,201.944 38.044,201.987C38.114,202.029 38.214,202.05 38.344,202.05C38.442,202.05 38.571,202.039 38.73,202.016Z" style="fill-rule:nonzero;"/>
                <path d="M42.973,200.903L43.838,201.015C43.743,201.611 43.501,202.077 43.112,202.414C42.723,202.751 42.246,202.919 41.679,202.919C40.97,202.919 40.399,202.687 39.968,202.224C39.537,201.76 39.321,201.095 39.321,200.229C39.321,199.669 39.414,199.179 39.599,198.759C39.785,198.339 40.067,198.024 40.446,197.814C40.826,197.604 41.238,197.499 41.684,197.499C42.247,197.499 42.708,197.642 43.066,197.927C43.424,198.212 43.654,198.616 43.755,199.14L42.9,199.272C42.819,198.924 42.675,198.662 42.468,198.486C42.261,198.31 42.011,198.222 41.718,198.222C41.276,198.222 40.916,198.381 40.639,198.698C40.363,199.016 40.224,199.518 40.224,200.205C40.224,200.901 40.358,201.407 40.625,201.723C40.892,202.039 41.24,202.197 41.67,202.197C42.015,202.197 42.303,202.091 42.534,201.879C42.765,201.668 42.911,201.342 42.973,200.903Z" style="fill-rule:nonzero;"/>
                <path d="M44.59,202.802L44.59,195.644L45.468,195.644L45.468,198.212C45.879,197.737 46.396,197.499 47.021,197.499C47.405,197.499 47.739,197.575 48.022,197.727C48.305,197.878 48.508,198.087 48.63,198.354C48.752,198.621 48.813,199.008 48.813,199.516L48.813,202.802L47.934,202.802L47.934,199.516C47.934,199.077 47.839,198.757 47.649,198.557C47.458,198.356 47.189,198.256 46.841,198.256C46.58,198.256 46.335,198.324 46.106,198.459C45.876,198.594 45.713,198.777 45.615,199.008C45.517,199.239 45.468,199.558 45.468,199.965L45.468,202.802L44.59,202.802Z" style="fill-rule:nonzero;"/>
            </g>
            <g transform="matrix(1,0,0,1,-0.0973974,-3.52808)">
                <path d="M23.431,32.958L23.431,25.698L24.538,25.698L24.538,26.799C24.821,26.284 25.082,25.945 25.321,25.78C25.56,25.616 25.823,25.534 26.111,25.534C26.525,25.534 26.947,25.667 27.375,25.931L26.951,27.072C26.651,26.895 26.35,26.806 26.049,26.806C25.78,26.806 25.539,26.887 25.324,27.049C25.11,27.21 24.958,27.435 24.866,27.722C24.73,28.159 24.661,28.638 24.661,29.157L24.661,32.958L23.431,32.958Z" style="fill-rule:nonzero;"/>
                <path d="M31.709,32.958L31.709,30.559L27.362,30.559L27.362,29.431L31.935,22.937L32.94,22.937L32.94,29.431L34.293,29.431L34.293,30.559L32.94,30.559L32.94,32.958L31.709,32.958ZM31.709,29.431L31.709,24.912L28.572,29.431L31.709,29.431Z" style="fill-rule:nonzero;"/>
                <path d="M35.072,32.958L37.725,29.185L35.271,25.698L36.809,25.698L37.923,27.401C38.133,27.724 38.301,27.995 38.429,28.214C38.629,27.913 38.814,27.647 38.983,27.414L40.206,25.698L41.676,25.698L39.167,29.116L41.867,32.958L40.357,32.958L38.866,30.702L38.47,30.094L36.563,32.958L35.072,32.958Z" style="fill-rule:nonzero;"/>
                <path d="M43.091,32.958L43.091,22.937L44.417,22.937L44.417,27.052L49.626,27.052L49.626,22.937L50.952,22.937L50.952,32.958L49.626,32.958L49.626,28.235L44.417,28.235L44.417,32.958L43.091,32.958Z" style="fill-rule:nonzero;"/>
                <path d="M56.606,32.958L56.606,30.559L52.258,30.559L52.258,29.431L56.831,22.937L57.836,22.937L57.836,29.431L59.19,29.431L59.19,30.559L57.836,30.559L57.836,32.958L56.606,32.958ZM56.606,29.431L56.606,24.912L53.468,29.431L56.606,29.431Z" style="fill-rule:nonzero;"/>
                <path d="M59.969,32.958L62.621,29.185L60.167,25.698L61.705,25.698L62.82,27.401C63.029,27.724 63.198,27.995 63.325,28.214C63.526,27.913 63.711,27.647 63.879,27.414L65.103,25.698L66.572,25.698L64.064,29.116L66.764,32.958L65.253,32.958L63.763,30.702L63.366,30.094L61.459,32.958L59.969,32.958Z" style="fill-rule:nonzero;"/>
            </g>
            <g transform="matrix(1,0,0,1,18.0919,83.4014)">
                <path d="M15.123,68.861C14.735,68.372 14.407,67.799 14.139,67.142C13.87,66.486 13.736,65.806 13.736,65.103C13.736,64.484 13.836,63.89 14.037,63.322C14.271,62.663 14.633,62.007 15.123,61.353L15.627,61.353C15.312,61.895 15.103,62.282 15.002,62.513C14.843,62.873 14.718,63.248 14.627,63.638C14.515,64.125 14.459,64.615 14.459,65.107C14.459,66.36 14.848,67.611 15.627,68.861L15.123,68.861Z" style="fill-rule:nonzero;"/>
                <path d="M16.443,68.767L16.443,63.029L17.084,63.029L17.084,63.568C17.235,63.357 17.405,63.199 17.596,63.094C17.786,62.988 18.016,62.935 18.287,62.935C18.641,62.935 18.954,63.026 19.224,63.209C19.495,63.391 19.7,63.648 19.838,63.98C19.976,64.312 20.045,64.676 20.045,65.072C20.045,65.497 19.969,65.879 19.816,66.219C19.664,66.558 19.443,66.819 19.152,67C18.862,67.181 18.557,67.271 18.236,67.271C18.002,67.271 17.792,67.222 17.605,67.123C17.419,67.024 17.266,66.899 17.146,66.748L17.146,68.767L16.443,68.767ZM17.08,65.127C17.08,65.661 17.188,66.055 17.404,66.31C17.62,66.566 17.882,66.693 18.189,66.693C18.502,66.693 18.769,66.561 18.992,66.297C19.215,66.032 19.326,65.623 19.326,65.068C19.326,64.54 19.217,64.144 19,63.881C18.782,63.618 18.523,63.486 18.221,63.486C17.921,63.486 17.656,63.626 17.426,63.906C17.195,64.186 17.08,64.593 17.08,65.127Z" style="fill-rule:nonzero;"/>
                <path d="M23.599,66.666C23.339,66.887 23.088,67.043 22.848,67.135C22.607,67.226 22.348,67.271 22.072,67.271C21.616,67.271 21.266,67.16 21.021,66.937C20.777,66.715 20.654,66.43 20.654,66.084C20.654,65.881 20.7,65.695 20.793,65.527C20.885,65.359 21.006,65.224 21.156,65.123C21.306,65.021 21.474,64.944 21.662,64.892C21.8,64.856 22.008,64.821 22.287,64.787C22.855,64.719 23.273,64.638 23.541,64.545C23.543,64.448 23.545,64.387 23.545,64.361C23.545,64.075 23.478,63.873 23.346,63.756C23.166,63.597 22.899,63.517 22.545,63.517C22.214,63.517 21.97,63.575 21.812,63.691C21.655,63.807 21.538,64.012 21.463,64.306L20.775,64.213C20.838,63.918 20.941,63.681 21.084,63.5C21.227,63.319 21.434,63.179 21.705,63.082C21.976,62.984 22.29,62.935 22.646,62.935C23.001,62.935 23.288,62.977 23.51,63.06C23.731,63.144 23.894,63.249 23.998,63.375C24.102,63.501 24.175,63.661 24.217,63.853C24.24,63.973 24.252,64.189 24.252,64.502L24.252,65.439C24.252,66.093 24.267,66.506 24.297,66.679C24.327,66.853 24.386,67.019 24.474,67.178L23.74,67.178C23.667,67.032 23.62,66.861 23.599,66.666ZM23.541,65.096C23.286,65.2 22.903,65.288 22.392,65.361C22.103,65.403 21.899,65.45 21.779,65.502C21.659,65.554 21.567,65.63 21.502,65.73C21.437,65.831 21.404,65.942 21.404,66.064C21.404,66.252 21.475,66.408 21.617,66.533C21.759,66.658 21.967,66.721 22.24,66.721C22.511,66.721 22.752,66.661 22.963,66.543C23.174,66.424 23.329,66.262 23.428,66.056C23.503,65.898 23.541,65.663 23.541,65.353L23.541,65.096Z" style="fill-rule:nonzero;"/>
                <path d="M25.334,67.178L25.334,63.029L25.967,63.029L25.967,63.658C26.128,63.364 26.277,63.17 26.414,63.076C26.551,62.982 26.701,62.935 26.865,62.935C27.102,62.935 27.343,63.011 27.588,63.162L27.346,63.814C27.174,63.713 27.002,63.662 26.83,63.662C26.676,63.662 26.538,63.708 26.416,63.801C26.293,63.893 26.206,64.021 26.154,64.185C26.076,64.435 26.037,64.709 26.037,65.006L26.037,67.178L25.334,67.178Z" style="fill-rule:nonzero;"/>
                <path d="M29.541,66.549L29.642,67.17C29.445,67.211 29.267,67.232 29.111,67.232C28.856,67.232 28.658,67.192 28.517,67.111C28.377,67.03 28.278,66.924 28.221,66.793C28.163,66.661 28.135,66.385 28.135,65.963L28.135,63.576L27.619,63.576L27.619,63.029L28.135,63.029L28.135,62.002L28.834,61.58L28.834,63.029L29.541,63.029L29.541,63.576L28.834,63.576L28.834,66.002C28.834,66.202 28.846,66.331 28.871,66.388C28.896,66.446 28.936,66.491 28.992,66.525C29.048,66.559 29.128,66.576 29.232,66.576C29.31,66.576 29.413,66.567 29.541,66.549Z" style="fill-rule:nonzero;"/>
                <path d="M30.232,62.26L30.232,61.451L30.935,61.451L30.935,62.26L30.232,62.26ZM30.232,67.178L30.232,63.029L30.935,63.029L30.935,67.178L30.232,67.178Z" style="fill-rule:nonzero;"/>
                <path d="M34.713,66.666C34.452,66.887 34.202,67.043 33.961,67.135C33.72,67.226 33.461,67.271 33.185,67.271C32.73,67.271 32.379,67.16 32.135,66.937C31.89,66.715 31.767,66.43 31.767,66.084C31.767,65.881 31.814,65.695 31.906,65.527C31.999,65.359 32.12,65.224 32.269,65.123C32.419,65.021 32.588,64.944 32.775,64.892C32.913,64.856 33.122,64.821 33.4,64.787C33.968,64.719 34.386,64.638 34.654,64.545C34.657,64.448 34.658,64.387 34.658,64.361C34.658,64.075 34.592,63.873 34.459,63.756C34.279,63.597 34.012,63.517 33.658,63.517C33.327,63.517 33.083,63.575 32.926,63.691C32.768,63.807 32.652,64.012 32.576,64.306L31.889,64.213C31.951,63.918 32.054,63.681 32.197,63.5C32.34,63.319 32.547,63.179 32.818,63.082C33.089,62.984 33.403,62.935 33.76,62.935C34.114,62.935 34.402,62.977 34.623,63.06C34.844,63.144 35.007,63.249 35.111,63.375C35.215,63.501 35.288,63.661 35.33,63.853C35.353,63.973 35.365,64.189 35.365,64.502L35.365,65.439C35.365,66.093 35.38,66.506 35.41,66.679C35.44,66.853 35.499,67.019 35.588,67.178L34.853,67.178C34.78,67.032 34.734,66.861 34.713,66.666ZM34.654,65.096C34.399,65.2 34.016,65.288 33.506,65.361C33.217,65.403 33.012,65.45 32.892,65.502C32.773,65.554 32.68,65.63 32.615,65.73C32.55,65.831 32.517,65.942 32.517,66.064C32.517,66.252 32.588,66.408 32.73,66.533C32.872,66.658 33.08,66.721 33.353,66.721C33.624,66.721 33.865,66.661 34.076,66.543C34.287,66.424 34.442,66.262 34.541,66.056C34.616,65.898 34.654,65.663 34.654,65.353L34.654,65.096Z" style="fill-rule:nonzero;"/>
                <rect x="36.439" y="61.451" width="0.703" height="5.727" style="fill-rule:nonzero;"/>
                <path d="M38.693,68.861L38.189,68.861C38.968,67.611 39.357,66.36 39.357,65.107C39.357,64.618 39.301,64.132 39.189,63.65C39.101,63.26 38.977,62.885 38.818,62.525C38.717,62.291 38.507,61.9 38.189,61.353L38.693,61.353C39.183,62.007 39.545,62.663 39.779,63.322C39.98,63.89 40.08,64.484 40.08,65.103C40.08,65.806 39.945,66.486 39.676,67.142C39.406,67.799 39.079,68.372 38.693,68.861Z" style="fill-rule:nonzero;"/>
            </g>
            <g transform="matrix(1,0,0,1,20.5859,33.1936)">
                <path d="M8.58,302.464L8.58,296.737L10.553,296.737C10.998,296.737 11.338,296.765 11.572,296.819C11.9,296.895 12.18,297.031 12.412,297.229C12.714,297.485 12.94,297.811 13.09,298.208C13.24,298.605 13.314,299.059 13.314,299.569C13.314,300.004 13.264,300.39 13.162,300.725C13.061,301.061 12.93,301.339 12.772,301.559C12.613,301.779 12.439,301.953 12.25,302.079C12.061,302.205 11.833,302.301 11.566,302.366C11.3,302.431 10.993,302.464 10.647,302.464L8.58,302.464ZM9.338,301.788L10.561,301.788C10.938,301.788 11.234,301.753 11.449,301.682C11.664,301.612 11.835,301.513 11.963,301.386C12.143,301.206 12.283,300.964 12.383,300.661C12.483,300.358 12.533,299.99 12.533,299.557C12.533,298.959 12.435,298.498 12.238,298.177C12.042,297.855 11.803,297.64 11.522,297.53C11.318,297.452 10.992,297.413 10.541,297.413L9.338,297.413L9.338,301.788Z" style="fill-rule:nonzero;"/>
                <path d="M14.326,302.464L14.326,296.737L15.084,296.737L15.084,301.788L17.904,301.788L17.904,302.464L14.326,302.464Z" style="fill-rule:nonzero;"/>
                <path d="M19.482,302.464L18.213,298.315L18.939,298.315L19.6,300.71L19.846,301.6C19.856,301.556 19.928,301.271 20.061,300.745L20.721,298.315L21.443,298.315L22.064,300.722L22.272,301.515L22.51,300.714L23.221,298.315L23.904,298.315L22.607,302.464L21.877,302.464L21.217,299.979L21.057,299.272L20.217,302.464L19.482,302.464Z" style="fill-rule:nonzero;"/>
                <path d="M24.498,297.546L24.498,296.737L25.201,296.737L25.201,297.546L24.498,297.546ZM24.498,302.464L24.498,298.315L25.201,298.315L25.201,302.464L24.498,302.464Z" style="fill-rule:nonzero;"/>
                <path d="M26.143,302.807L26.826,302.909C26.855,303.12 26.934,303.274 27.064,303.37C27.239,303.5 27.477,303.565 27.779,303.565C28.105,303.565 28.356,303.5 28.533,303.37C28.71,303.24 28.83,303.057 28.893,302.823C28.929,302.68 28.946,302.379 28.943,301.921C28.636,302.283 28.253,302.464 27.795,302.464C27.225,302.464 26.783,302.258 26.471,301.847C26.158,301.435 26.002,300.942 26.002,300.366C26.002,299.97 26.074,299.605 26.217,299.27C26.36,298.936 26.568,298.677 26.84,298.495C27.112,298.313 27.432,298.222 27.799,298.222C28.288,298.222 28.692,298.419 29.01,298.815L29.01,298.315L29.658,298.315L29.658,301.901C29.658,302.547 29.592,303.005 29.461,303.274C29.329,303.544 29.121,303.757 28.836,303.913C28.551,304.069 28.2,304.147 27.783,304.147C27.288,304.147 26.889,304.036 26.584,303.813C26.279,303.591 26.132,303.255 26.143,302.807ZM26.725,300.315C26.725,300.86 26.833,301.257 27.049,301.507C27.265,301.757 27.536,301.882 27.861,301.882C28.184,301.882 28.455,301.757 28.674,301.509C28.893,301.26 29.002,300.87 29.002,300.339C29.002,299.831 28.889,299.448 28.664,299.19C28.439,298.932 28.167,298.804 27.85,298.804C27.537,298.804 27.272,298.931 27.053,299.184C26.834,299.438 26.725,299.815 26.725,300.315Z" style="fill-rule:nonzero;"/>
                <path d="M30.592,302.807L31.275,302.909C31.304,303.12 31.384,303.274 31.514,303.37C31.688,303.5 31.926,303.565 32.229,303.565C32.554,303.565 32.805,303.5 32.982,303.37C33.16,303.24 33.279,303.057 33.342,302.823C33.378,302.68 33.395,302.379 33.393,301.921C33.085,302.283 32.703,302.464 32.244,302.464C31.674,302.464 31.232,302.258 30.92,301.847C30.607,301.435 30.451,300.942 30.451,300.366C30.451,299.97 30.523,299.605 30.666,299.27C30.809,298.936 31.017,298.677 31.289,298.495C31.561,298.313 31.881,298.222 32.248,298.222C32.738,298.222 33.141,298.419 33.459,298.815L33.459,298.315L34.107,298.315L34.107,301.901C34.107,302.547 34.042,303.005 33.91,303.274C33.779,303.544 33.57,303.757 33.285,303.913C33,304.069 32.649,304.147 32.232,304.147C31.738,304.147 31.338,304.036 31.033,303.813C30.729,303.591 30.581,303.255 30.592,302.807ZM31.174,300.315C31.174,300.86 31.282,301.257 31.498,301.507C31.714,301.757 31.985,301.882 32.311,301.882C32.634,301.882 32.904,301.757 33.123,301.509C33.342,301.26 33.451,300.87 33.451,300.339C33.451,299.831 33.339,299.448 33.113,299.19C32.888,298.932 32.617,298.804 32.299,298.804C31.986,298.804 31.721,298.931 31.502,299.184C31.283,299.438 31.174,299.815 31.174,300.315Z" style="fill-rule:nonzero;"/>
                <rect x="35.154" y="296.737" width="0.703" height="5.727" style="fill-rule:nonzero;"/>
                <path d="M36.576,302.464L36.576,301.893L39.217,298.862C38.917,298.878 38.653,298.886 38.424,298.886L36.732,298.886L36.732,298.315L40.123,298.315L40.123,298.78L37.877,301.413L37.443,301.893C37.759,301.87 38.054,301.858 38.33,301.858L40.248,301.858L40.248,302.464L36.576,302.464Z" style="fill-rule:nonzero;"/>
            </g>
            <g transform="matrix(1,0,0,1,0.92693,71)">
                <path d="M32.132,69.106L32.996,69.218C32.902,69.814 32.66,70.28 32.271,70.617C31.882,70.954 31.405,71.123 30.838,71.123C30.129,71.123 29.558,70.891 29.127,70.427C28.695,69.963 28.48,69.298 28.48,68.432C28.48,67.872 28.573,67.382 28.758,66.962C28.944,66.543 29.226,66.228 29.605,66.018C29.985,65.808 30.397,65.703 30.843,65.703C31.406,65.703 31.867,65.845 32.225,66.13C32.583,66.415 32.812,66.819 32.913,67.343L32.059,67.475C31.978,67.127 31.833,66.865 31.627,66.689C31.42,66.513 31.17,66.425 30.877,66.425C30.435,66.425 30.075,66.584 29.798,66.901C29.521,67.219 29.383,67.721 29.383,68.408C29.383,69.104 29.517,69.611 29.784,69.926C30.05,70.242 30.399,70.4 30.828,70.4C31.173,70.4 31.462,70.294 31.693,70.083C31.924,69.871 32.07,69.545 32.132,69.106Z" style="fill-rule:nonzero;"/>
                <path d="M37.132,70.366C36.807,70.642 36.493,70.838 36.192,70.952C35.891,71.066 35.568,71.123 35.223,71.123C34.653,71.123 34.215,70.983 33.909,70.705C33.604,70.427 33.451,70.071 33.451,69.638C33.451,69.384 33.508,69.152 33.624,68.942C33.739,68.732 33.891,68.564 34.078,68.437C34.265,68.31 34.476,68.214 34.71,68.149C34.883,68.103 35.143,68.059 35.492,68.017C36.201,67.933 36.724,67.832 37.059,67.714C37.062,67.594 37.064,67.517 37.064,67.485C37.064,67.127 36.981,66.875 36.815,66.728C36.59,66.53 36.257,66.43 35.814,66.43C35.4,66.43 35.095,66.503 34.898,66.648C34.701,66.792 34.556,67.049 34.461,67.417L33.602,67.299C33.68,66.932 33.809,66.635 33.988,66.408C34.167,66.182 34.425,66.008 34.764,65.886C35.103,65.764 35.495,65.703 35.941,65.703C36.383,65.703 36.743,65.755 37.02,65.859C37.297,65.963 37.5,66.094 37.63,66.252C37.76,66.41 37.852,66.609 37.904,66.85C37.933,67 37.948,67.27 37.948,67.661L37.948,68.833C37.948,69.65 37.966,70.166 38.004,70.383C38.041,70.599 38.115,70.807 38.226,71.005L37.308,71.005C37.217,70.823 37.158,70.61 37.132,70.366ZM37.059,68.403C36.74,68.533 36.261,68.644 35.623,68.735C35.262,68.787 35.007,68.846 34.857,68.911C34.707,68.976 34.591,69.071 34.51,69.196C34.429,69.322 34.388,69.461 34.388,69.614C34.388,69.848 34.477,70.044 34.654,70.2C34.832,70.356 35.091,70.434 35.433,70.434C35.771,70.434 36.073,70.36 36.336,70.212C36.6,70.064 36.794,69.861 36.917,69.604C37.012,69.406 37.059,69.113 37.059,68.725L37.059,68.403Z" style="fill-rule:nonzero;"/>
                <path d="M41.229,70.219L41.356,70.996C41.108,71.048 40.887,71.074 40.692,71.074C40.373,71.074 40.125,71.023 39.95,70.922C39.774,70.822 39.65,70.689 39.578,70.524C39.507,70.36 39.471,70.014 39.471,69.487L39.471,66.503L38.826,66.503L38.826,65.82L39.471,65.82L39.471,64.536L40.345,64.008L40.345,65.82L41.229,65.82L41.229,66.503L40.345,66.503L40.345,69.536C40.345,69.786 40.361,69.947 40.391,70.019C40.422,70.091 40.473,70.148 40.543,70.19C40.613,70.232 40.713,70.253 40.843,70.253C40.941,70.253 41.069,70.242 41.229,70.219Z" style="fill-rule:nonzero;"/>
                <path d="M45.472,70.366C45.146,70.642 44.833,70.838 44.532,70.952C44.231,71.066 43.908,71.123 43.563,71.123C42.993,71.123 42.555,70.983 42.249,70.705C41.943,70.427 41.79,70.071 41.79,69.638C41.79,69.384 41.848,69.152 41.964,68.942C42.079,68.732 42.231,68.564 42.418,68.437C42.605,68.31 42.816,68.214 43.05,68.149C43.223,68.103 43.483,68.059 43.831,68.017C44.541,67.933 45.063,67.832 45.399,67.714C45.402,67.594 45.404,67.517 45.404,67.485C45.404,67.127 45.321,66.875 45.155,66.728C44.93,66.53 44.596,66.43 44.154,66.43C43.74,66.43 43.435,66.503 43.238,66.648C43.041,66.792 42.895,67.049 42.801,67.417L41.942,67.299C42.02,66.932 42.148,66.635 42.327,66.408C42.507,66.182 42.765,66.008 43.104,65.886C43.442,65.764 43.835,65.703 44.281,65.703C44.723,65.703 45.083,65.755 45.36,65.859C45.636,65.963 45.84,66.094 45.97,66.252C46.1,66.41 46.191,66.609 46.243,66.85C46.273,67 46.287,67.27 46.287,67.661L46.287,68.833C46.287,69.65 46.306,70.166 46.344,70.383C46.381,70.599 46.455,70.807 46.566,71.005L45.648,71.005C45.557,70.823 45.498,70.61 45.472,70.366ZM45.399,68.403C45.08,68.533 44.601,68.644 43.963,68.735C43.602,68.787 43.346,68.846 43.197,68.911C43.047,68.976 42.931,69.071 42.85,69.196C42.769,69.322 42.728,69.461 42.728,69.614C42.728,69.848 42.817,70.044 42.994,70.2C43.171,70.356 43.431,70.434 43.773,70.434C44.111,70.434 44.412,70.36 44.676,70.212C44.94,70.064 45.133,69.861 45.257,69.604C45.352,69.406 45.399,69.113 45.399,68.725L45.399,68.403Z" style="fill-rule:nonzero;"/>
                <rect x="47.63" y="63.847" width="0.879" height="7.158" style="fill-rule:nonzero;"/>
                <path d="M49.544,68.413C49.544,67.452 49.811,66.741 50.345,66.279C50.791,65.895 51.335,65.703 51.976,65.703C52.689,65.703 53.271,65.936 53.724,66.403C54.176,66.871 54.403,67.516 54.403,68.339C54.403,69.007 54.303,69.532 54.102,69.914C53.902,70.297 53.611,70.594 53.228,70.805C52.846,71.017 52.428,71.123 51.976,71.123C51.25,71.123 50.663,70.89 50.216,70.424C49.768,69.959 49.544,69.288 49.544,68.413ZM50.448,68.413C50.448,69.077 50.592,69.574 50.882,69.904C51.172,70.235 51.536,70.4 51.976,70.4C52.412,70.4 52.775,70.234 53.065,69.902C53.354,69.57 53.499,69.064 53.499,68.383C53.499,67.742 53.354,67.256 53.062,66.926C52.771,66.595 52.409,66.43 51.976,66.43C51.536,66.43 51.172,66.595 50.882,66.923C50.592,67.252 50.448,67.749 50.448,68.413Z" style="fill-rule:nonzero;"/>
                <path d="M55.272,71.435L56.126,71.562C56.162,71.826 56.261,72.018 56.424,72.138C56.642,72.301 56.94,72.382 57.318,72.382C57.725,72.382 58.039,72.301 58.26,72.138C58.481,71.975 58.631,71.748 58.709,71.455C58.755,71.276 58.776,70.9 58.773,70.327C58.389,70.779 57.91,71.005 57.337,71.005C56.624,71.005 56.073,70.748 55.682,70.234C55.291,69.72 55.096,69.103 55.096,68.383C55.096,67.889 55.186,67.432 55.365,67.014C55.544,66.595 55.803,66.272 56.143,66.045C56.484,65.817 56.883,65.703 57.342,65.703C57.954,65.703 58.459,65.95 58.856,66.445L58.856,65.82L59.666,65.82L59.666,70.302C59.666,71.11 59.584,71.682 59.42,72.019C59.255,72.356 58.995,72.622 58.638,72.817C58.282,73.012 57.843,73.11 57.323,73.11C56.704,73.11 56.204,72.971 55.824,72.692C55.443,72.414 55.259,71.995 55.272,71.435ZM55.999,68.32C55.999,69 56.134,69.497 56.405,69.809C56.675,70.122 57.013,70.278 57.42,70.278C57.824,70.278 58.162,70.122 58.436,69.812C58.709,69.501 58.846,69.013 58.846,68.349C58.846,67.714 58.705,67.236 58.424,66.914C58.142,66.591 57.803,66.43 57.406,66.43C57.015,66.43 56.683,66.589 56.409,66.906C56.136,67.224 55.999,67.695 55.999,68.32Z" style="fill-rule:nonzero;"/>
            </g>
        </g>
    </g>
</svg>
